<?xml version="1.0" encoding="utf-8"?>
<!-- Generator: Adobe Illustrator 16.0.0, SVG Export Plug-In . SVG Version: 6.00 Build 0)  -->
<!DOCTYPE svg PUBLIC "-//W3C//DTD SVG 1.1//EN" "http://www.w3.org/Graphics/SVG/1.1/DTD/svg11.dtd">
<svg version="1.1" id="Layer_1" xmlns="http://www.w3.org/2000/svg" xmlns:xlink="http://www.w3.org/1999/xlink" x="0px" y="0px"
	 width="32px" height="32px" viewBox="-7 -7 32 32" enable-background="new -7 -7 32 32" xml:space="preserve">
<g>
	<path fill="#262B56" d="M21.25-4.5h-1.499V-7h-2.5v2.5H0.748V-7H-1.75v2.5h-1.5C-5.32-4.499-6.997-2.822-7-0.752v22
		C-7,23.317-5.318,25-3.25,25h24.5c2.07-0.002,3.75-1.68,3.75-3.752v-22C24.996-2.822,23.32-4.499,21.25-4.5z M22.5,21.248
		c0,0.691-0.562,1.25-1.25,1.25h-24.5c-0.69,0-1.249-0.559-1.25-1.25V4.75h27V21.248z M22.5,2.25h-27v-3.002
		C-4.5-1.441-3.938-2-3.25-2h1.5v2.498h2.5V-2h16.501v2.498h2.5V-2h1.499c0.688,0,1.25,0.561,1.25,1.248V2.25L22.5,2.25z"/>
</g>
</svg>
