<?xml version="1.0" encoding="utf-8"?>
<!-- Generator: Adobe Illustrator 16.0.0, SVG Export Plug-In . SVG Version: 6.00 Build 0)  -->
<!DOCTYPE svg PUBLIC "-//W3C//DTD SVG 1.1//EN" "http://www.w3.org/Graphics/SVG/1.1/DTD/svg11.dtd">
<svg version="1.1" id="Layer_1" xmlns="http://www.w3.org/2000/svg" xmlns:xlink="http://www.w3.org/1999/xlink" x="0px" y="0px"
	 width="32px" height="32px" viewBox="-8.5 -8.5 32 32" enable-background="new -8.5 -8.5 32 32" xml:space="preserve">
<path fill="#262B56" d="M7.93,23.5c-2.708,0-4.983-0.264-6.83-0.791c-1.774-0.487-3.415-1.37-4.802-2.579
	c-2.73-2.388-4.094-6.607-4.094-12.664c0-5.368,1.336-9.37,4.009-12.009S2.791-8.5,7.93-8.5c5.048,0,8.784,1.193,11.216,3.579
	c2.432,2.387,3.65,6.011,3.65,10.872V6.33c0,2.594-0.226,4.635-0.673,6.125c-0.446,1.492-1.112,2.555-1.995,3.185
	c-0.882,0.63-2.024,0.945-3.423,0.945c-1.103,0-2.021-0.172-2.755-0.517c-0.689-0.303-1.25-0.838-1.582-1.515
	c-2.085,1.332-3.992,1.997-5.711,1.997c-1.997,0-3.521-0.621-4.578-1.858c-1.053-1.239-1.582-3.384-1.582-6.435
	c0-2.18,0.223-3.937,0.671-5.266c0.447-1.33,1.17-2.305,2.167-2.925c0.999-0.619,2.335-0.929,4.01-0.929
	c0.917,0,1.962,0.206,3.132,0.619l0.583,0.241v-0.517h3.2v6.436c0,3.764,0.105,5.976,0.312,6.641
	c0.229,0.594,0.493,0.969,0.789,1.12c0.301,0.149,0.77,0.222,1.412,0.222c0.827,0,1.445-0.35,1.858-1.05
	c0.414-0.696,0.671-1.565,0.775-2.598c0.101-1.031,0.155-2.34,0.155-3.923V5.918c0-2.731-0.397-4.943-1.189-6.641
	c-0.756-1.663-2.087-2.995-3.751-3.751c-1.709-0.803-3.95-1.205-6.727-1.205c-4.197,0-7.322,1.084-9.376,3.252
	s-3.08,5.533-3.08,10.1c0,3.118,0.425,5.626,1.273,7.518c0.85,1.895,2.178,3.28,3.991,4.164c1.813,0.88,4.222,1.325,7.227,1.325
	l4.92-0.344l0.104,2.856C10.82,23.397,9.146,23.5,7.93,23.5z M6.897,13.729c0.939,0,2.419-0.447,4.439-1.342
	c-0.185-0.987-0.277-2.732-0.277-5.23V2.545C9.866,2.156,8.835,1.961,7.964,1.961c-1.102,0-1.957,0.2-2.563,0.602
	C4.791,2.965,4.361,3.595,4.11,4.455c-0.252,0.86-0.38,2.037-0.38,3.527C3.73,11.813,4.785,13.729,6.897,13.729z"/>
</svg>
