<?xml version="1.0" encoding="utf-8"?>
<!-- Generator: Adobe Illustrator 16.0.0, SVG Export Plug-In . SVG Version: 6.00 Build 0)  -->
<!DOCTYPE svg PUBLIC "-//W3C//DTD SVG 1.1//EN" "http://www.w3.org/Graphics/SVG/1.1/DTD/svg11.dtd">
<svg version="1.1" id="Layer_1" xmlns="http://www.w3.org/2000/svg" xmlns:xlink="http://www.w3.org/1999/xlink" x="0px" y="0px"
	 width="32px" height="32px" viewBox="-8.5 -6 32 32" enable-background="new -8.5 -6 32 32" xml:space="preserve">
<g>
	<path fill="#4A90E2" d="M4.109,5.933c-0.272,0-0.547,0.006-0.819,0C3.076,5.93,2.979,6.042,2.976,6.258v1.636
		c0,0.211,0.094,0.331,0.306,0.328h1.644c0.209,0,0.309-0.102,0.309-0.323l0.002-1.637c0-0.242-0.116-0.338-0.335-0.33
		C4.638,5.938,4.373,5.933,4.109,5.933 M7.491,16.242v0.003h0.816c0.223,0.003,0.323-0.116,0.321-0.352v-1.567
		c0-0.242-0.104-0.371-0.343-0.371H6.686c-0.205,0-0.316,0.103-0.316,0.325v1.633c-0.002,0.219,0.101,0.329,0.306,0.329H7.491
		 M10.877,16.245h0.818c0.218,0.003,0.327-0.1,0.327-0.342V14.3c0-0.238-0.104-0.345-0.322-0.345h-1.606
		c-0.221,0-0.331,0.106-0.331,0.345V15.9c0,0.238,0.105,0.348,0.324,0.345H10.877 M4.096,16.245c0.26,0,0.521-0.007,0.784,0
		c0.251,0.003,0.357-0.129,0.355-0.391c-0.005-0.51-0.002-1.022,0-1.535c0-0.248-0.104-0.364-0.342-0.364
		c-0.521,0-1.047,0.003-1.568,0c-0.256,0-0.354,0.129-0.35,0.39c0.005,0.514,0.005,1.023-0.001,1.532
		c-0.005,0.255,0.1,0.371,0.335,0.368H4.096 M4.109,12.804c0.251,0,0.506-0.004,0.757,0.006c0.247,0.003,0.371-0.097,0.369-0.371
		c-0.007-0.522-0.007-1.042,0-1.561c0.005-0.257-0.111-0.362-0.344-0.36H3.316c-0.24-0.002-0.345,0.115-0.342,0.365
		c0.004,0.519,0,1.04,0,1.56c0,0.248,0.111,0.367,0.349,0.367c0.26-0.006,0.523,0,0.786,0 M10.896,5.936l-0.818-0.002
		C9.868,5.927,9.763,6.038,9.763,6.254v1.641c0,0.216,0.101,0.331,0.31,0.328h1.638c0.208,0,0.313-0.102,0.313-0.321V6.26
		c0-0.221-0.1-0.327-0.31-0.325H10.896 M7.505,10.518H6.723c-0.229-0.005-0.355,0.093-0.354,0.351c0.005,0.533,0.003,1.067,0,1.597
		c0,0.238,0.121,0.345,0.336,0.345h1.57c0.228,0,0.355-0.109,0.355-0.361V10.85c0-0.219-0.102-0.328-0.305-0.332H7.507
		 M10.882,12.804l0.786,0.006c0.25,0.003,0.359-0.119,0.359-0.384c-0.01-0.51-0.01-1.021,0-1.531c0-0.248-0.095-0.377-0.332-0.379
		H10.09c-0.213,0-0.327,0.113-0.327,0.348v1.598c0,0.232,0.114,0.343,0.332,0.343H10.882 M7.498,8.221v0.001h0.783
		c0.226,0,0.354-0.093,0.35-0.356c-0.005-0.52-0.005-1.039,0-1.559c0-0.249-0.105-0.372-0.34-0.374h-1.57
		c-0.229,0-0.352,0.105-0.349,0.358c0.002,0.522,0.004,1.042,0,1.562c-0.005,0.255,0.108,0.369,0.34,0.37h0.786 M9.76,20.258
		c0-0.468-0.005-0.936,0.003-1.403c0.005-0.219-0.072-0.319-0.303-0.315c-0.55,0.01-1.102,0.01-1.653,0
		c-0.229,0-0.307,0.093-0.304,0.315c0.004,0.936,0.004,1.868,0,2.804C7.5,21.877,7.58,21.978,7.807,21.978
		c0.552-0.01,1.102-0.013,1.653,0c0.23,0,0.308-0.097,0.303-0.316C9.752,21.193,9.76,20.723,9.76,20.258 M7.498,20.271
		c0-0.48-0.003-0.967,0.002-1.448c0.003-0.206-0.081-0.283-0.283-0.283c-0.559,0.01-1.12,0.01-1.678,0
		c-0.22-0.004-0.304,0.087-0.302,0.3c0.005,0.951,0.003,1.899,0,2.854c0,0.2,0.091,0.284,0.291,0.281
		c0.559-0.004,1.117-0.007,1.677,0c0.218,0.003,0.3-0.084,0.295-0.297c-0.006-0.468,0-0.939,0-1.407 M10.345-1.615
		c0.487,0,0.549,0.058,0.549,0.509V0.38c0,0.311-0.1,0.404-0.434,0.404H8.436c-0.094,0-0.187,0.011-0.291,0.016v1.535
		c0.72,0.113,1.39,0.343,1.982,0.74c0.646,0.431,1.146,0.976,1.46,1.653c0.086,0.186,0.195,0.231,0.4,0.225
		c0.458-0.012,0.918-0.005,1.377-0.002c0.581,0.005,0.925,0.322,0.925,0.861v17.312H0.728c-0.005-0.074-0.016-0.146-0.016-0.223
		V5.865c0-0.577,0.372-0.915,1-0.917c0.48,0,0.958,0.007,1.436-0.004c0.087-0.002,0.215-0.069,0.25-0.138
		c0.742-1.453,1.967-2.281,3.686-2.48C7.13,2.32,7.175,2.305,7.254,2.286V1.983v-3.724c0-0.348,0-0.348,0.37-0.348h0.111
		c0.378,0,0.375,0,0.396,0.353c0,0.033,0.006,0.066,0.016,0.122h2.193H10.345z"/>
	<path fill="#262B56" d="M15.758,26H-0.758c-2.276,0-4.129-1.852-4.129-4.129V-1.871C-4.887-4.147-3.034-6-0.758-6h16.516
		c2.277,0,4.129,1.853,4.129,4.129v23.742C19.887,24.148,18.035,26,15.758,26z M-0.758-4.348c-1.366,0-2.478,1.111-2.478,2.477
		v23.742c0,1.366,1.111,2.478,2.478,2.478h16.516c1.366,0,2.478-1.111,2.478-2.478V-1.871c0-1.366-1.111-2.477-2.478-2.477H-0.758z"
		/>
</g>
</svg>
