<?xml version="1.0" encoding="utf-8"?>
<!-- Generator: Adobe Illustrator 16.0.0, SVG Export Plug-In . SVG Version: 6.00 Build 0)  -->
<!DOCTYPE svg PUBLIC "-//W3C//DTD SVG 1.1//EN" "http://www.w3.org/Graphics/SVG/1.1/DTD/svg11.dtd">
<svg version="1.1" id="Layer_1" xmlns="http://www.w3.org/2000/svg" xmlns:xlink="http://www.w3.org/1999/xlink" x="0px" y="0px"
	 width="32px" height="32px" viewBox="-8.5 -10 32 32" enable-background="new -8.5 -10 32 32" xml:space="preserve">
<g>
	<path fill="#4A90E2" d="M-5.81,18.887c-1.415,0-2.586-1.172-2.586-2.578s1.156-2.571,2.586-2.571c1.422,0,2.579,1.149,2.586,2.571
		C-3.224,17.715-4.396,18.887-5.81,18.887z M-5.81,8.58c-0.07,0.008-0.148,0.008-0.219,0c-1.422-0.063-2.524-1.266-2.469-2.688
		C-8.436,4.47-7.232,3.368-5.81,3.423c0.07,0,0.148,0,0.219,0c1.422,0.063,2.524,1.266,2.469,2.688
		C-3.185,7.533-4.388,8.643-5.81,8.58z M-5.81-1.727c-0.07,0-0.148,0-0.219,0c-1.422-0.063-2.524-1.266-2.469-2.688
		c0.063-1.422,1.266-2.532,2.688-2.469c0.07,0,0.148,0,0.219,0c1.422,0.063,2.524,1.266,2.469,2.688
		C-3.185-2.774-4.388-1.672-5.81-1.727z M23.5,18.027H-0.637V14.59H23.5V18.027z M23.5,7.721H-0.637V4.282H23.5V7.721z M23.5-2.586
		H-0.637v-3.438H23.5V-2.586z"/>
	<rect x="-0.637" y="14.59" fill="#262B56" width="24.137" height="3.438"/>
	<rect x="-0.637" y="-6.024" fill="#262B56" width="24.137" height="3.438"/>
	<rect x="-0.637" y="4.282" fill="#262B56" width="24.137" height="3.438"/>
	<path fill="#4A90E2" d="M-5.81,13.737c-1.43,0-2.586,1.165-2.586,2.571s1.172,2.578,2.586,2.578c1.414,0,2.586-1.172,2.586-2.578
		C-3.231,14.887-4.388,13.737-5.81,13.737z"/>
	<path fill="#4A90E2" d="M-5.591-6.884c-0.07,0-0.148,0-0.219,0c-1.422-0.063-2.625,1.047-2.688,2.469
		c-0.055,1.422,1.047,2.625,2.469,2.688c0.07,0,0.148,0,0.219,0c1.422,0.055,2.625-1.047,2.688-2.469
		C-3.067-5.618-4.169-6.821-5.591-6.884z"/>
	<path fill="#4A90E2" d="M-5.591,3.423c-0.07,0-0.148,0-0.219,0C-7.232,3.368-8.436,4.47-8.498,5.892
		C-8.553,7.314-7.451,8.518-6.029,8.58c0.07,0.008,0.148,0.008,0.219,0c1.422,0.063,2.625-1.047,2.688-2.469
		C-3.067,4.688-4.169,3.485-5.591,3.423z"/>
</g>
</svg>
