<?xml version="1.0" encoding="utf-8"?>
<!-- Generator: Adobe Illustrator 16.0.0, SVG Export Plug-In . SVG Version: 6.00 Build 0)  -->
<!DOCTYPE svg PUBLIC "-//W3C//DTD SVG 1.1//EN" "http://www.w3.org/Graphics/SVG/1.1/DTD/svg11.dtd">
<svg version="1.1" id="Layer_1" xmlns="http://www.w3.org/2000/svg" xmlns:xlink="http://www.w3.org/1999/xlink" x="0px" y="0px"
	 width="32px" height="32px" viewBox="-9 -3.5 32 32" enable-background="new -9 -3.5 32 32" xml:space="preserve">
<g>
	<path fill="#262B56" d="M13.717-3.5H0.283c-1.295,0-2.349,1.054-2.349,2.35V26.15c0,1.296,1.054,2.35,2.349,2.35h13.434
		c1.295,0,2.35-1.054,2.35-2.35V-1.15C16.066-2.446,15.012-3.5,13.717-3.5z M-0.999,0.767h15.998v20.267H-0.999V0.767z M0.283-2.433
		h13.434c0.708,0,1.282,0.575,1.282,1.282V-0.3H-0.999V-1.15C-0.999-1.857-0.424-2.433,0.283-2.433z M13.717,27.432H0.283
		c-0.708-0.001-1.281-0.574-1.282-1.281v-4.05h15.998v4.05C14.999,26.856,14.425,27.432,13.717,27.432z"/>
	<path fill="#4A90E2" d="M7,22.632c-1.178,0.059-2.086,1.06-2.028,2.238C5.026,25.967,5.903,26.844,7,26.898
		c1.177,0,2.133-0.955,2.133-2.132C9.133,23.589,8.177,22.632,7,22.632z M7,25.832c-0.59,0-1.067-0.479-1.067-1.069
		c0.001-0.589,0.48-1.065,1.069-1.065l0,0c0.59,0,1.068,0.479,1.068,1.069c0,0.59-0.48,1.067-1.07,1.067V25.832z"/>
	<path fill="#262B56" d="M4.867-0.833H7c0.295,0,0.534-0.239,0.534-0.534S7.295-1.9,7-1.9H4.867c-0.294,0-0.534,0.238-0.534,0.533
		S4.572-0.833,4.867-0.833L4.867-0.833z M8.599-0.833h0.534c0.296,0,0.533-0.239,0.533-0.534S9.429-1.9,9.133-1.9H8.599
		c-0.293,0-0.532,0.238-0.532,0.533S8.306-0.833,8.599-0.833z"/>
</g>
</svg>
