<?xml version="1.0" encoding="utf-8"?>
<!-- Generator: Adobe Illustrator 16.0.0, SVG Export Plug-In . SVG Version: 6.00 Build 0)  -->
<!DOCTYPE svg PUBLIC "-//W3C//DTD SVG 1.1//EN" "http://www.w3.org/Graphics/SVG/1.1/DTD/svg11.dtd">
<svg version="1.1" id="Layer_1" xmlns="http://www.w3.org/2000/svg" xmlns:xlink="http://www.w3.org/1999/xlink" x="0px" y="0px"
	 width="32px" height="32px" viewBox="38.155 16.419 32 32" enable-background="new 38.155 16.419 32 32" xml:space="preserve">
<g>
	<path d="M53.822,38.734h-9.168c-0.319,0-0.577,0.257-0.577,0.577c0,0.318,0.258,0.578,0.577,0.578h9.168
		c0.318,0,0.578-0.26,0.578-0.578C54.4,38.991,54.141,38.734,53.822,38.734z"/>
	<path d="M44.654,36.298h12.629c0.318,0,0.577-0.257,0.577-0.577c0-0.318-0.259-0.578-0.577-0.578H44.654
		c-0.319,0-0.577,0.26-0.577,0.578C44.077,36.041,44.335,36.298,44.654,36.298z"/>
	<path d="M62.411,36.582V20.634c0-2.324-1.891-4.215-4.217-4.215H45.041c-2.324,0-4.215,1.891-4.215,4.215v19.402
		c0,2.323,1.891,4.216,4.215,4.216h10.803c0.77,2.407,3.005,4.167,5.667,4.167c3.294,0,5.974-2.676,5.974-5.965
		C67.484,39.475,65.275,37.02,62.411,36.582z M61.511,47.264c-2.02,0-3.747-1.25-4.462-3.012c-0.189-0.469-0.294-0.977-0.327-1.502
		c-0.005-0.1-0.029-0.194-0.029-0.296c0-2.445,1.845-4.448,4.216-4.748c0.201-0.025,0.397-0.062,0.603-0.062
		c0.309,0,0.609,0.036,0.9,0.093c2.229,0.422,3.918,2.373,3.918,4.717C66.329,45.107,64.168,47.264,61.511,47.264z M45.041,42.75
		c-1.496,0-2.715-1.219-2.715-2.714V20.634c0-1.496,1.219-2.715,2.715-2.715h13.153c1.498,0,2.714,1.219,2.714,2.715v15.917
		c-3.007,0.307-5.371,2.822-5.371,5.903c0,0.102,0.024,0.196,0.029,0.296H45.041z"/>
	<path d="M64.017,41.977h-2.025v-0.141v-1.881c0-0.267-0.215-0.48-0.48-0.48c-0.264,0-0.48,0.214-0.48,0.48v2.019h-0.943h-1.083
		c-0.264,0-0.48,0.217-0.48,0.48c0,0.095,0.036,0.179,0.084,0.253c0.086,0.136,0.228,0.228,0.396,0.228h2.026v0.201v1.82
		c0,0.264,0.217,0.48,0.48,0.48c0.266,0,0.48-0.217,0.48-0.48v-2.021h2.028c0.264-0.002,0.478-0.219,0.478-0.48
		C64.497,42.19,64.281,41.977,64.017,41.977z"/>
	<path d="M55.988,24.173h-0.613v0.814h1.364c0.153,0,0.275-0.184,0.275-0.409v-2.039h-0.546v1.178
		c-2.963-3.959-7.494-3.702-10.246,0.582l0.395,0.564C49.123,20.961,53.236,20.658,55.988,24.173z"/>
	<path d="M46.769,28.464c2.962,3.958,7.494,3.701,10.246-0.583l-0.395-0.563c-2.507,3.899-6.619,4.201-9.37,0.689h0.613
		l-0.001-0.814h-1.367c-0.151,0-0.272,0.182-0.272,0.407v2.04h0.546V28.464z"/>
</g>
</svg>
