<?xml version="1.0" encoding="utf-8"?>
<!-- Generator: Adobe Illustrator 16.0.0, SVG Export Plug-In . SVG Version: 6.00 Build 0)  -->
<!DOCTYPE svg PUBLIC "-//W3C//DTD SVG 1.1//EN" "http://www.w3.org/Graphics/SVG/1.1/DTD/svg11.dtd">
<svg version="1.1" id="Layer_1" xmlns="http://www.w3.org/2000/svg" xmlns:xlink="http://www.w3.org/1999/xlink" x="0px" y="0px"
	 width="32px" height="32px" viewBox="0 0 32 32" enable-background="new 0 0 32 32" xml:space="preserve">
<title>assignment-new</title>
<g>
	<path d="M21.949,0h-11.9c-3.684,0-6.68,2.996-6.68,6.68v18.638c0,3.684,2.996,6.682,6.68,6.682h11.9
		c3.684,0,6.682-2.998,6.682-6.682V6.681C28.631,2.997,25.633,0,21.949,0z M27.057,25.318c0,2.816-2.291,5.107-5.107,5.107h-11.9
		c-2.817,0-5.109-2.291-5.109-5.107V6.681c0-2.817,2.292-5.109,5.109-5.109h11.9c2.816,0,5.107,2.292,5.107,5.109V25.318z"/>
	<path d="M20.658,22.791h-7.281c-0.434,0-0.786,0.354-0.786,0.787s0.352,0.787,0.786,0.787h7.281c0.434,0,0.787-0.354,0.787-0.787
		S21.092,22.791,20.658,22.791z"/>
	<path d="M24.971,7.073H13.378c-0.434,0-0.786,0.352-0.786,0.786s0.352,0.786,0.786,0.786h11.593c0.434,0,0.787-0.352,0.787-0.786
		S25.404,7.073,24.971,7.073z"/>
	<path d="M22.607,14.933h-9.223c-0.434,0-0.786,0.352-0.786,0.786c0,0.434,0.352,0.786,0.786,0.786h9.223
		c0.434,0,0.787-0.352,0.787-0.786C23.395,15.285,23.041,14.933,22.607,14.933z"/>
	<path d="M10.89,21.258l-2.394,2.295l-0.857-0.82c-0.195-0.186-0.508-0.182-0.695,0.014c-0.187,0.197-0.181,0.508,0.015,0.695
		l1.196,1.146c0.095,0.09,0.217,0.137,0.34,0.137l0.002-0.002c0.123,0,0.245-0.047,0.34-0.137l2.733-2.619
		c0.195-0.188,0.202-0.498,0.015-0.693C11.397,21.076,11.086,21.072,10.89,21.258z"/>
	<path d="M10.89,5.539L8.496,7.833l-0.857-0.82C7.444,6.826,7.131,6.832,6.944,7.027C6.757,7.224,6.763,7.535,6.959,7.723
		l1.196,1.146c0.095,0.091,0.217,0.136,0.34,0.136l0.002-0.001c0.123,0,0.245-0.045,0.34-0.136l2.733-2.619
		c0.195-0.188,0.203-0.5,0.015-0.695C11.397,5.358,11.086,5.35,10.89,5.539z"/>
	<path d="M10.89,13.397l-2.394,2.294l-0.857-0.82c-0.195-0.186-0.508-0.181-0.695,0.015c-0.187,0.196-0.181,0.507,0.015,0.695
		l1.196,1.147c0.095,0.09,0.217,0.135,0.34,0.135h0.002c0.123,0,0.245-0.045,0.34-0.137l2.733-2.619
		c0.195-0.188,0.203-0.5,0.015-0.695C11.397,13.217,11.086,13.209,10.89,13.397z"/>
</g>
</svg>
