<?xml version="1.0" encoding="utf-8"?>
<!-- Generator: Adobe Illustrator 16.0.0, SVG Export Plug-In . SVG Version: 6.00 Build 0)  -->
<!DOCTYPE svg PUBLIC "-//W3C//DTD SVG 1.1//EN" "http://www.w3.org/Graphics/SVG/1.1/DTD/svg11.dtd">
<svg version="1.1" id="Layer_1" xmlns="http://www.w3.org/2000/svg" xmlns:xlink="http://www.w3.org/1999/xlink" x="0px" y="0px"
	 width="32px" height="32px" viewBox="0 0 32 32" enable-background="new 0 0 32 32" xml:space="preserve">
<title>assignment-delivered</title>
<g>
	<path d="M26.455,18.113V6.681c0-3.684-2.997-6.68-6.682-6.68h-11.9c-3.684,0-6.68,2.996-6.68,6.68v18.637
		c0,3.685,2.996,6.682,6.68,6.682h11.9c3.685,0,6.682-2.997,6.682-6.682v-2.966c1.751,0.501,3.182,1.579,4.443,3.769l0.471-0.178
		C31.354,25.874,30.258,20.686,26.455,18.113z M24.881,25.318c0,2.817-2.291,5.108-5.107,5.108H7.872
		c-2.817,0-5.109-2.291-5.109-5.108V6.681c0-2.817,2.292-5.109,5.109-5.109h11.901c2.816,0,5.107,2.292,5.107,5.109v10.621
		c-0.923-0.367-1.953-0.603-3.135-0.603c-0.028,0-0.057,0-0.084,0.001l-0.141-3.949l-7.066,7.336l7.555,6.361l-0.158-4.47
		c1.104-0.034,2.106-0.025,3.029,0.077V25.318z"/>
	<path d="M14.553,14.736H6.048c-0.4,0-0.725,0.352-0.725,0.786s0.325,0.786,0.725,0.786h8.505c0.4,0,0.726-0.352,0.726-0.786
		S14.953,14.736,14.553,14.736z"/>
	<path d="M6.04,8.448h10.692c0.399,0,0.726-0.352,0.726-0.786s-0.326-0.786-0.726-0.786H6.04c-0.4,0-0.725,0.352-0.725,0.786
		S5.64,8.448,6.04,8.448z"/>
	<path d="M12.755,22.594H6.039c-0.4,0-0.725,0.354-0.725,0.787s0.325,0.787,0.725,0.787h6.716c0.4,0,0.726-0.354,0.726-0.787
		S13.155,22.594,12.755,22.594z"/>
</g>
</svg>
