<?xml version="1.0" encoding="utf-8"?>
<!-- Generator: Adobe Illustrator 16.0.0, SVG Export Plug-In . SVG Version: 6.00 Build 0)  -->
<!DOCTYPE svg PUBLIC "-//W3C//DTD SVG 1.1//EN" "http://www.w3.org/Graphics/SVG/1.1/DTD/svg11.dtd">
<svg version="1.1" id="Layer_1" xmlns="http://www.w3.org/2000/svg" xmlns:xlink="http://www.w3.org/1999/xlink" x="0px" y="0px"
	 width="32px" height="32px" viewBox="0 0 32 32" enable-background="new 0 0 32 32" xml:space="preserve">
<title>tables-unlock</title>
<path d="M16,0C7.179,0,0,7.177,0,16c0,4.578,1.942,8.7,5.033,11.62c1.922,1.813,4.288,3.151,6.918,3.84C13.248,31.801,14.6,32,16,32
	c1.4,0,2.752-0.199,4.047-0.54c2.471-0.647,4.705-1.865,6.559-3.515C29.906,25.014,32,20.751,32,16C32,7.177,24.822,0,16,0z
	 M16,30.2c-4.412,0-8.359-2.021-10.967-5.188c-2.021-2.453-3.236-5.595-3.236-9.014C1.797,8.167,8.168,1.797,16,1.797
	s14.203,6.371,14.203,14.202c0,3.612-1.369,6.901-3.598,9.412C24.002,28.342,20.219,30.2,16,30.2L16,30.2z"/>
<path d="M24.131,14.494v-2.915h-7.403h-1.433H7.87v2.915H5.622v5.927h5.927v-5.927H9.301v-1.483h5.994v1.483h-2.258v5.927h5.926
	v-5.927h-2.235v-1.483H22.7l-0.001,1.483h-2.248v5.927h5.927v-5.927H24.131z M10.117,18.988H7.054v-3.063h3.063V18.988z
	 M17.532,18.988h-3.064v-3.063h3.064V18.988z M24.947,18.988h-3.064v-3.063h3.064V18.988z"/>
</svg>
