<!-- Generated by IcoMoon.io -->
<svg version="1.1" xmlns="http://www.w3.org/2000/svg" width="32" height="32" viewBox="0 0 32 32">
<title>tables-lamp-off</title>
<path d="M16 0c-8.821 0-16 7.177-16 16 0 4.578 1.942 8.7 5.033 11.62 1.922 1.813 4.288 3.151 6.918 3.84 1.297 0.341 2.649 0.54 4.049 0.54s2.752-0.199 4.047-0.54c2.471-0.647 4.705-1.865 6.559-3.515 3.3-2.931 5.394-7.194 5.394-11.945 0-8.823-7.178-16-16-16zM16 30.2c-4.412 0-8.359-2.021-10.967-5.188-2.021-2.453-3.236-5.595-3.236-9.014 0-7.831 6.371-14.201 14.203-14.201s14.203 6.371 14.203 14.202c0 3.612-1.369 6.901-3.598 9.412-2.603 2.931-6.386 4.789-10.605 4.789v0z"></path>
<path d="M14.335 12.143c-0.010 0.108-0.014 0.218-0.015 0.326 0.001 1.981 1.601 3.585 3.575 3.585 0.106 0 0.217-0.004 0.321-0.012 0.039 1.403-0.563 2.542-1.741 3.386-0.152 0.109-0.229 0.211-0.202 0.396 0.007 0.045-0.003 0.091-0.007 0.146h-3.873c-0.010-0.017-0.015-0.021-0.014-0.026 0.063-0.303-0.113-0.443-0.335-0.604-1.285-0.928-1.88-2.572-1.519-4.138 0.361-1.563 1.623-2.758 3.176-3.008 0.212-0.035 0.422-0.052 0.634-0.051zM16.271 21.926c-0.008 0.397-0.136 0.719-0.4 0.967-0.214 0.201-0.463 0.318-0.739 0.324-0.538 0.014-1.077 0.021-1.614 0-0.576-0.023-1.023-0.459-1.127-1.061-0.012-0.071-0.012-0.146-0.018-0.231l3.898 0.001zM12.38 21.273c-0.004-0.039-0.008-0.069-0.008-0.101v-0.552h3.897v0.653h-3.889z"></path>
<path d="M18.545 8.229c-1.971 0-3.574 1.609-3.574 3.586 0 1.979 1.605 3.588 3.574 3.588s3.574-1.609 3.574-3.588c0-1.976-1.605-3.586-3.574-3.586zM18.578 14.378c-1.432-0.004-2.589-1.166-2.587-2.596 0-0.547 0.164-1.063 0.479-1.503l3.604 3.618c-0.433 0.315-0.959 0.483-1.496 0.481zM20.617 13.353l-3.604-3.617c0.436-0.314 0.959-0.482 1.495-0.48 1.433 0.004 2.589 1.166 2.587 2.596 0 0.547-0.162 1.063-0.479 1.504l0.001-0.003z"></path>
</svg>
