<!-- Generated by IcoMoon.io -->
<svg version="1.1" xmlns="http://www.w3.org/2000/svg" width="32" height="32" viewBox="0 0 32 32">
<title>tables-unlock</title>
<path d="M16 0c-8.821 0-16 7.177-16 16 0 4.578 1.942 8.7 5.033 11.62 1.922 1.813 4.288 3.151 6.918 3.84 1.297 0.341 2.649 0.54 4.049 0.54s2.752-0.199 4.047-0.54c2.471-0.647 4.705-1.865 6.559-3.515 3.3-2.931 5.394-7.194 5.394-11.945 0-8.823-7.178-16-16-16zM16 30.2c-4.412 0-8.359-2.021-10.967-5.188-2.021-2.453-3.236-5.595-3.236-9.014 0-7.831 6.371-14.201 14.203-14.201s14.203 6.371 14.203 14.202c0 3.612-1.369 6.901-3.598 9.412-2.603 2.931-6.386 4.789-10.605 4.789v0z"></path>
<path d="M21.621 16.003c-0.174-0.178-0.414-0.278-0.663-0.273h-7.189v-3.125c0-0.69 0.244-1.279 0.733-1.768 0.464-0.478 1.103-0.741 1.768-0.731 0.69 0 1.28 0.243 1.767 0.731 0.489 0.488 0.733 1.078 0.733 1.768 0 0.17 0.062 0.315 0.186 0.438 0.113 0.12 0.273 0.188 0.438 0.187h0.626c0.168 0 0.315-0.062 0.439-0.187 0.119-0.114 0.187-0.272 0.186-0.438 0-1.204-0.429-2.234-1.284-3.091-0.856-0.855-1.887-1.284-3.091-1.284s-2.235 0.429-3.091 1.284c-0.856 0.856-1.285 1.887-1.285 3.091v3.125h-0.312c-0.249-0.004-0.49 0.096-0.664 0.273-0.179 0.174-0.277 0.415-0.273 0.664v5.625c0 0.26 0.091 0.481 0.273 0.664 0.182 0.182 0.403 0.273 0.664 0.273h9.375c0.249 0.004 0.489-0.096 0.663-0.273 0.179-0.174 0.277-0.415 0.274-0.664v-5.625c0.004-0.249-0.094-0.49-0.273-0.664z"></path>
</svg>
