<!-- Generated by IcoMoon.io -->
<svg version="1.1" xmlns="http://www.w3.org/2000/svg" width="32" height="32" viewBox="0 0 32 32">
<title>tables-lamp</title>
<path d="M16 0c-8.821 0-16 7.177-16 16 0 4.578 1.942 8.7 5.033 11.62 1.922 1.813 4.288 3.151 6.918 3.84 1.297 0.341 2.649 0.54 4.049 0.54s2.752-0.199 4.047-0.54c2.471-0.647 4.705-1.865 6.559-3.515 3.3-2.931 5.394-7.194 5.394-11.945 0-8.823-7.178-16-16-16zM16 30.2c-4.412 0-8.359-2.021-10.967-5.188-2.021-2.453-3.236-5.595-3.236-9.014 0-7.831 6.371-14.201 14.203-14.201s14.203 6.371 14.203 14.202c0 3.612-1.369 6.901-3.598 9.412-2.603 2.931-6.386 4.789-10.605 4.789v0z"></path>
<path d="M16.271 11.483c-1.967 0-3.566 1.693-3.566 3.773 0 0.852 0.265 1.656 0.763 2.326 0.099 0.133 0.202 0.261 0.313 0.395l0.006 0.008c0.335 0.412 0.682 0.836 0.811 1.338 0.029 0.115 0.033 0.337 0.032 0.507v0.287c0 0.264 0.201 0.477 0.45 0.477h2.363c0.25 0 0.451-0.213 0.451-0.477v-0.292c0-0.223 0.010-0.383 0.031-0.467 0.131-0.5 0.516-0.977 0.856-1.401l0.014-0.019c0.101-0.121 0.192-0.238 0.278-0.353 0.499-0.674 0.768-1.49 0.763-2.328 0-2.080-1.6-3.773-3.565-3.774v0 0zM18.363 16.994c-0.075 0.101-0.162 0.208-0.256 0.322l-0.019 0.023c-0.399 0.497-0.853 1.063-1.036 1.764-0.025 0.1-0.054 0.248-0.062 0.533h-1.463c-0.006-0.303-0.036-0.459-0.063-0.563-0.184-0.712-0.635-1.267-0.998-1.712l-0.007-0.008c-0.102-0.125-0.199-0.244-0.285-0.36-0.373-0.502-0.572-1.111-0.568-1.737 0-1.553 1.193-2.818 2.662-2.818 1.467 0 2.663 1.265 2.663 2.818 0.007 0.627-0.195 1.236-0.568 1.738v0zM17.441 21.275h-2.344c-0.248 0-0.448 0.146-0.448 0.326s0.201 0.323 0.447 0.323h2.345c0.248 0 0.449-0.145 0.449-0.323s-0.201-0.326-0.449-0.326zM16.82 22.578h-1.103c-0.232 0-0.421 0.146-0.421 0.324 0 0.18 0.188 0.326 0.421 0.326h1.103c0.232 0 0.423-0.146 0.423-0.326 0-0.177-0.188-0.324-0.423-0.324zM22.602 14.737h-1.642c-0.263 0-0.478 0.146-0.478 0.325s0.215 0.326 0.478 0.326h1.642c0.264 0 0.477-0.146 0.477-0.326s-0.216-0.325-0.477-0.325zM12.057 15.063c0-0.18-0.213-0.325-0.476-0.325h-1.643c-0.263 0-0.475 0.146-0.475 0.325s0.212 0.325 0.475 0.325h1.643c0.263 0 0.476-0.146 0.476-0.325zM16.271 10.833c0.179 0 0.323-0.214 0.323-0.478v-1.648c0-0.264-0.144-0.478-0.323-0.478s-0.324 0.214-0.324 0.478v1.648c-0.001 0.264 0.144 0.478 0.324 0.478zM19.936 18.119c-0.17-0.171-0.447-0.172-0.617-0.002 0 0-0.002 0.001-0.002 0.002-0.172 0.172-0.172 0.449 0 0.621l1.068 1.074c0.17 0.17 0.445 0.172 0.615 0.002 0-0.002 0.003-0.002 0.004-0.002 0.172-0.174 0.172-0.45 0-0.623l-1.068-1.072zM12.605 12.006c0.169 0.171 0.445 0.172 0.616 0.003 0.001-0.001 0.002-0.002 0.003-0.003 0.171-0.172 0.171-0.451 0-0.623l-1.068-1.072c-0.171-0.172-0.447-0.172-0.618-0.002-0.001 0.001-0.002 0.001-0.002 0.002-0.171 0.172-0.171 0.45 0 0.622l1.069 1.073zM12.605 18.119l-1.069 1.072c-0.171 0.174-0.169 0.453 0.004 0.623 0.082 0.082 0.191 0.127 0.306 0.127 0.113 0 0.226-0.043 0.312-0.129l1.067-1.072c0.172-0.172 0.172-0.449 0-0.621-0.171-0.171-0.448-0.171-0.62 0 0-0.001 0 0 0 0zM19.627 12.135c0.109 0 0.225-0.043 0.309-0.13l1.068-1.073c0.172-0.172 0.172-0.449 0-0.621-0.17-0.172-0.445-0.173-0.615-0.002-0.002 0-0.004 0.001-0.004 0.002l-1.068 1.072c-0.172 0.174-0.17 0.453 0.004 0.625 0.079 0.080 0.191 0.126 0.306 0.127z"></path>
</svg>
