<!-- Generated by IcoMoon.io -->
<svg version="1.1" xmlns="http://www.w3.org/2000/svg" width="32" height="32" viewBox="0 0 32 32">
<title>tables-lock</title>
<path d="M16 0c-8.82 0-16 7.177-16 16 0 4.578 1.941 8.7 5.033 11.62 1.922 1.813 4.287 3.151 6.918 3.84 1.297 0.341 2.649 0.54 4.049 0.54s2.752-0.199 4.047-0.54c2.471-0.647 4.705-1.865 6.559-3.515 3.3-2.931 5.394-7.194 5.394-11.945 0-8.823-7.178-16-16-16zM16 30.2c-4.412 0-8.359-2.021-10.967-5.188-2.021-2.453-3.236-5.595-3.236-9.014 0-7.831 6.371-14.201 14.203-14.201s14.203 6.371 14.203 14.202c0 3.612-1.369 6.901-3.598 9.412-2.603 2.931-6.386 4.789-10.605 4.789v0z"></path>
<path d="M21.895 14.858c0.004-0.249-0.094-0.489-0.273-0.664-0.175-0.179-0.415-0.278-0.664-0.273h-0.313v-1.276c0-1.204-0.429-2.234-1.284-3.091-0.856-0.855-1.885-1.283-3.090-1.283s-2.234 0.428-3.091 1.283c-0.855 0.856-1.285 1.887-1.285 3.091v1.276h-0.312c-0.249-0.005-0.49 0.095-0.664 0.273-0.179 0.175-0.278 0.415-0.273 0.664v7.394c0 0.26 0.091 0.48 0.273 0.664 0.182 0.182 0.402 0.273 0.664 0.273h9.374c0.249 0.004 0.489-0.096 0.664-0.273 0.18-0.174 0.277-0.414 0.273-0.664v-7.394zM17.461 20.789h-2.134l0.46-2.055c-0.48-0.227-0.815-0.715-0.815-1.281 0-0.787 0.638-1.422 1.423-1.422s1.422 0.635 1.422 1.422c0 0.566-0.335 1.055-0.815 1.281l0.459 2.055zM18.768 13.92h-4.998v-1.276c0-0.69 0.243-1.279 0.734-1.767 0.461-0.479 1.102-0.742 1.767-0.732 0.689 0 1.28 0.244 1.768 0.732 0.487 0.487 0.732 1.078 0.732 1.767v1.276h-0.003z"></path>
</svg>
