<?xml version="1.0" encoding="utf-8"?>
<!-- Generator: Adobe Illustrator 16.0.0, SVG Export Plug-In . SVG Version: 6.00 Build 0)  -->
<!DOCTYPE svg PUBLIC "-//W3C//DTD SVG 1.1//EN" "http://www.w3.org/Graphics/SVG/1.1/DTD/svg11.dtd">
<svg version="1.1" id="Layer_1" xmlns="http://www.w3.org/2000/svg" xmlns:xlink="http://www.w3.org/1999/xlink" x="0px" y="0px"
	 width="32px" height="32px" viewBox="0 0 32 32" enable-background="new 0 0 32 32" xml:space="preserve">
<title>tab1</title>
<path d="M30.48,14.287H28.84v-2.973c0-0.871-0.736-1.58-1.637-1.58h-1.522V8.627L17.35,0.633H4.214v5.563H1.637
	C0.734,6.196,0,6.903,0,7.776v22.086l0.002,0.199h0.011c0.035,0.261,0.14,0.514,0.307,0.724c0.296,0.369,0.743,0.582,1.227,0.582
	h23.577c0.687,0,1.312-0.447,1.478-1.045l5.386-14.179l0.013-0.161c-0.001-0.98-0.641-1.695-1.521-1.695L30.48,14.287z M17.78,8.216
	V3.022l5.41,5.196h-5.41V8.216z M25.682,14.287v-3.144h1.521c0.104,0,0.19,0.078,0.19,0.172v2.972H25.682z M1.449,7.772
	c0-0.092,0.083-0.173,0.188-0.173h2.577v10.906l-2.766,7.24V7.772z M24.229,9.625v4.662H6.904c-0.085,0-0.167,0.007-0.252,0.02
	c-0.4,0.066-0.753,0.279-0.988,0.572V2.041h10.669v7.584l7.898-0.001L24.229,9.625z M30.54,15.885l-5.316,14.003
	c-0.012,0.044-0.05,0.073-0.099,0.073H1.541c-0.027,0-0.055-0.013-0.071-0.029c-0.01-0.017-0.019-0.027-0.027-0.027
	c-0.002,0-0.005,0.002-0.007,0.006l5.369-14.14c0.012-0.042,0.052-0.071,0.098-0.071l23.571-0.001
	C30.491,15.7,30.523,15.761,30.54,15.885L30.54,15.885z"/>
<path d="M7.783,11.577c0,0.349,0.218,0.631,0.487,0.631h11.667c0.271,0,0.485-0.284,0.485-0.631c0-0.35-0.215-0.633-0.485-0.633
	H8.27C8,10.944,7.783,11.226,7.783,11.577z"/>
<path d="M8.204,8.417h4.211c0.236,0,0.422-0.284,0.422-0.631c0-0.35-0.188-0.632-0.422-0.632H8.204
	c-0.235,0-0.421,0.284-0.421,0.632C7.783,8.132,7.969,8.417,8.204,8.417z"/>
<path d="M8.204,5.887h4.211c0.236,0,0.422-0.283,0.422-0.632c0-0.349-0.188-0.631-0.422-0.631H8.204
	c-0.235,0-0.421,0.283-0.421,0.631C7.783,5.604,7.969,5.887,8.204,5.887z"/>
</svg>
