<?xml version="1.0" encoding="utf-8"?>
<!-- Generator: Adobe Illustrator 16.0.0, SVG Export Plug-In . SVG Version: 6.00 Build 0)  -->
<!DOCTYPE svg PUBLIC "-//W3C//DTD SVG 1.1//EN" "http://www.w3.org/Graphics/SVG/1.1/DTD/svg11.dtd">
<svg version="1.1" id="Layer_1" xmlns="http://www.w3.org/2000/svg" xmlns:xlink="http://www.w3.org/1999/xlink" x="0px" y="0px"
	 width="32px" height="32px" viewBox="0 0 32 32" enable-background="new 0 0 32 32" xml:space="preserve">
<title>tab2</title>
<path d="M6.483,19.912h12.594c0.362,0,0.658-0.297,0.658-0.658s-0.296-0.658-0.658-0.658H6.483c-0.362,0-0.658,0.297-0.658,0.658
	S6.121,19.912,6.483,19.912z"/>
<path d="M15.625,22.176H6.481c-0.361,0-0.658,0.297-0.658,0.658c0,0.363,0.296,0.658,0.658,0.658h9.142
	c0.363,0,0.658-0.295,0.658-0.658C16.283,22.473,15.988,22.176,15.625,22.176L15.625,22.176z"/>
<path d="M24.193,20.028V4.608C24.193,2.068,22.126,0,19.585,0H7.272C4.729,0,2.664,2.067,2.664,4.608v18.543
	c0,2.543,2.065,4.609,4.608,4.609h10.287C18.327,30.207,20.595,32,23.294,32c3.328,0,6.041-2.706,6.041-6.029
	c0-3.021-2.239-5.506-5.142-5.944V20.028z M7.272,26.444c-1.814,0-3.292-1.476-3.292-3.29V4.609c0-1.814,1.478-3.292,3.292-3.292
	h12.313c1.814,0,3.291,1.478,3.291,3.292V19.98c-3.132,0.22-5.621,2.807-5.621,5.99c0,0.162,0.034,0.315,0.046,0.474H7.272z
	 M23.296,30.684c-2.606,0-4.724-2.113-4.724-4.713c0-2.602,2.117-4.717,4.724-4.717c2.605,0,4.724,2.115,4.724,4.717
	C28.02,28.569,25.901,30.684,23.296,30.684z"/>
<path d="M25.793,25.45h-1.979v-1.975c0-0.289-0.235-0.521-0.521-0.521c-0.29,0-0.521,0.235-0.521,0.521v1.974h-1.979
	c-0.24,0-0.44,0.164-0.499,0.383l0.008,0.304c0.025,0.075,0.068,0.142,0.126,0.198c0.096,0.097,0.223,0.152,0.363,0.154l0.811,0.009
	l-0.011-0.011h1.181v1.975c0,0.287,0.234,0.521,0.521,0.521s0.52-0.234,0.52-0.521v-1.973h1.979c0.29,0,0.524-0.238,0.524-0.522
	C26.315,25.683,26.082,25.451,25.793,25.45L25.793,25.45z"/>
<path d="M17.785,7.733h-0.611v0.814h1.363c0.149,0,0.273-0.182,0.273-0.407V6.106h-0.546v1.172
	C15.31,3.331,10.791,3.587,8.045,7.858l0.394,0.563C10.942,4.531,15.041,4.229,17.785,7.733z"/>
<path d="M8.591,12.016c2.954,3.947,7.474,3.691,10.219-0.581l-0.395-0.564c-2.5,3.89-6.602,4.192-9.347,0.689h0.614l-0.001-0.814
	H8.319c-0.149,0-0.273,0.182-0.273,0.406v2.035h0.546L8.591,12.016L8.591,12.016z"/>
</svg>
