<!-- Generated by IcoMoon.io -->
<svg version="1.1" xmlns="http://www.w3.org/2000/svg" width="32" height="32" viewBox="0 0 32 32">
<title>assignment-return</title>
<path d="M22.005 32h-11.901c-3.684 0-6.68-2.997-6.68-6.681v-18.638c0-3.684 2.996-6.68 6.68-6.68h11.901c3.684 0 6.681 2.996 6.681 6.68v18.638c0 3.684-2.997 6.681-6.681 6.681zM10.103 1.572c-2.817 0-5.109 2.292-5.109 5.109v18.638c0 2.817 2.292 5.108 5.109 5.108h11.901c2.817 0 5.108-2.291 5.108-5.108v-18.638c0-2.817-2.291-5.109-5.108-5.109l-11.901 0z"></path>
<path d="M23.407 18.749l-0.363-0.34c-0.188-0.177-0.484-0.177-0.672 0l-0.842 0.791v-4.498c-0.004-2.957-2.412-5.366-5.371-5.369-2.957 0.003-5.366 2.412-5.369 5.37v5.855c0 0.405 0.33 0.735 0.735 0.735s0.735-0.33 0.735-0.735v-5.855c0.002-2.148 1.751-3.898 3.899-3.9 2.149 0.003 3.897 1.751 3.899 3.898v4.421l-0.76-0.713c-0.188-0.177-0.48-0.177-0.672 0l-0.365 0.34c-0.098 0.092-0.155 0.223-0.155 0.359 0 0.134 0.056 0.265 0.155 0.359l2.237 2.099c0.094 0.088 0.215 0.132 0.336 0.132s0.242-0.044 0.336-0.132l2.235-2.099c0.1-0.094 0.155-0.223 0.155-0.359s-0.056-0.267-0.155-0.359z"></path>
</svg>
