<?xml version="1.0" encoding="utf-8"?>
<!-- Generator: Adobe Illustrator 16.0.0, SVG Export Plug-In . SVG Version: 6.00 Build 0)  -->
<!DOCTYPE svg PUBLIC "-//W3C//DTD SVG 1.1//EN" "http://www.w3.org/Graphics/SVG/1.1/DTD/svg11.dtd">
<svg version="1.1" id="Layer_1" xmlns="http://www.w3.org/2000/svg" xmlns:xlink="http://www.w3.org/1999/xlink" x="0px" y="0px"
	 width="32px" height="32px" viewBox="0 0 32 32" enable-background="new 0 0 32 32" xml:space="preserve">
<title>tab10</title>
<g>
	<path d="M25.313,24.716h-9.725c-0.271,0-0.49-0.219-0.49-0.489c0-0.273,0.219-0.492,0.49-0.492h9.725c0.27,0,0.49,0.218,0.49,0.492
		C25.803,24.496,25.584,24.716,25.313,24.716z M25.313,16.317h-9.725c-0.271,0-0.49-0.22-0.49-0.49c0-0.271,0.219-0.49,0.49-0.49
		h9.725c0.27,0,0.49,0.219,0.49,0.49C25.803,16.096,25.584,16.317,25.313,16.317z M25.313,7.919h-9.725
		c-0.271,0-0.49-0.219-0.49-0.49c0-0.271,0.219-0.49,0.49-0.49h9.725c0.27,0,0.49,0.22,0.49,0.49
		C25.803,7.697,25.584,7.919,25.313,7.919z"/>
	<path d="M25.799,31.999H6.2c-2.702,0-4.9-2.198-4.9-4.9V4.899C1.3,2.198,3.498,0,6.2,0h19.599c2.701,0,4.899,2.197,4.899,4.9
		v22.197c0,2.701-2.196,4.9-4.899,4.9V31.999z M6.201,1.4c-1.929,0-3.5,1.571-3.5,3.5v22.197c0,1.931,1.571,3.5,3.5,3.5H25.8
		c1.93,0,3.5-1.569,3.5-3.5V4.9c0-1.929-1.57-3.5-3.5-3.5H6.201z"/>
	<path d="M11.542,26.036h-2.8c-0.58,0-1.05-0.473-1.05-1.05v-2.471c0-0.578,0.471-1.051,1.05-1.051h2.8
		c0.58,0,1.05,0.473,1.05,1.051v2.471C12.591,25.563,12.12,26.036,11.542,26.036z M8.741,22.165c-0.193,0-0.35,0.157-0.35,0.351
		v2.471c0,0.193,0.157,0.35,0.35,0.35h2.8c0.193,0,0.351-0.156,0.351-0.35v-2.471c0-0.193-0.157-0.351-0.351-0.351H8.741z"/>
	<path d="M11.542,17.688h-2.8c-0.58,0-1.05-0.474-1.05-1.051v-2.47c0-0.581,0.471-1.05,1.05-1.05h2.8c0.58,0,1.05,0.471,1.05,1.05
		v2.47C12.591,17.215,12.12,17.688,11.542,17.688z M8.741,13.817c-0.193,0-0.35,0.157-0.35,0.351v2.47
		c0,0.193,0.157,0.351,0.35,0.351h2.8c0.193,0,0.351-0.157,0.351-0.351v-2.47c0-0.194-0.157-0.351-0.351-0.351H8.741z"/>
	<path d="M11.542,9.341h-2.8c-0.58,0-1.05-0.471-1.05-1.05v-2.47c0-0.58,0.471-1.05,1.05-1.05h2.8c0.58,0,1.05,0.471,1.05,1.05
		v2.471C12.591,8.869,12.12,9.341,11.542,9.341z M8.741,5.471c-0.193,0-0.35,0.157-0.35,0.35v2.471c0,0.193,0.157,0.351,0.35,0.351
		h2.8c0.193,0,0.351-0.157,0.351-0.351V5.821c0-0.193-0.157-0.35-0.351-0.35H8.741z"/>
	<path d="M14.488,3.663c-0.106-0.109-0.28-0.111-0.389-0.007c-0.002,0.002-0.004,0.004-0.007,0.007l-3.355,3.424L9.447,5.77
		C9.341,5.661,9.168,5.659,9.059,5.765C9.056,5.766,9.054,5.769,9.052,5.77c-0.11,0.112-0.11,0.292,0,0.405l1.487,1.519
		c0.109,0.111,0.287,0.111,0.396,0l3.554-3.629C14.599,3.955,14.599,3.773,14.488,3.663z"/>
</g>
</svg>
