<?xml version="1.0" encoding="utf-8"?>
<!-- Generator: Adobe Illustrator 16.0.0, SVG Export Plug-In . SVG Version: 6.00 Build 0)  -->
<!DOCTYPE svg PUBLIC "-//W3C//DTD SVG 1.1//EN" "http://www.w3.org/Graphics/SVG/1.1/DTD/svg11.dtd">
<svg version="1.1" id="Layer_1" xmlns="http://www.w3.org/2000/svg" xmlns:xlink="http://www.w3.org/1999/xlink" x="0px" y="0px"
	 width="32px" height="32px" viewBox="0 0 32 32" enable-background="new 0 0 32 32" xml:space="preserve">
<title>tab3</title>
<path d="M22.433,0H9.565C6.672,0,4.321,2.352,4.321,5.244v21.511C4.321,29.644,6.672,32,9.565,32h12.868
	c2.893,0,5.249-2.356,5.249-5.245V5.244C27.679,2.352,25.325,0,22.433,0z M26.055,26.755c0,1.996-1.627,3.616-3.622,3.616H9.565
	c-1.997,0-3.619-1.625-3.619-3.616V5.244c0-1.996,1.624-3.619,3.619-3.619h12.868c2,0,3.622,1.624,3.622,3.619V26.755z"/>
<path d="M19.207,9.689c-0.976,0-1.902,0.371-2.609,1.044c-0.045,0.043-0.089,0.088-0.128,0.128l-5.917,6.048
	c-1.19,1.251-1.19,3.207,0.001,4.459c0.577,0.596,1.347,0.927,2.166,0.927s1.589-0.33,2.165-0.927l5.917-6.047
	c0.877-0.917,0.877-2.355,0-3.271c-0.417-0.441-0.984-0.683-1.594-0.683c-0.567,0-1.106,0.215-1.519,0.608l-4.52,4.674
	c-0.243,0.251-0.243,0.647,0,0.901c0.236,0.245,0.653,0.247,0.892,0.001l4.448-4.602c0.359-0.374,0.954-0.427,1.402,0
	c0.393,0.414,0.393,1.061,0,1.473l-5.919,6.048c-0.647,0.678-1.808,0.708-2.485,0.063l-0.063-0.063
	c-0.711-0.745-0.711-1.914-0.001-2.658l5.859-5.998c0.485-0.512,1.14-0.792,1.847-0.792c0.655,0,1.28,0.25,1.754,0.699l0.094,0.094
	c1.027,1.078,1.027,2.767,0.002,3.845l-4.393,4.544c-0.244,0.251-0.244,0.647,0.001,0.898c0.238,0.244,0.653,0.245,0.892,0
	l4.452-4.602c1.509-1.583,1.509-4.061,0-5.645c-0.724-0.753-1.698-1.17-2.745-1.17L19.207,9.689z"/>
</svg>
