<?xml version="1.0" encoding="utf-8"?>
<!-- Generator: Adobe Illustrator 16.0.0, SVG Export Plug-In . SVG Version: 6.00 Build 0)  -->
<!DOCTYPE svg PUBLIC "-//W3C//DTD SVG 1.1//EN" "http://www.w3.org/Graphics/SVG/1.1/DTD/svg11.dtd">
<svg version="1.1" id="Layer_1" xmlns="http://www.w3.org/2000/svg" xmlns:xlink="http://www.w3.org/1999/xlink" x="0px" y="0px"
	 width="32px" height="32px" viewBox="0 0 32 32" enable-background="new 0 0 32 32" xml:space="preserve">
<title>tab5</title>
<g>
	<path d="M24.784,23.709v2.959H7.615V1.333h11.78L24.783,6.8v5.451c0.453,0.078,0.894,0.172,1.324,0.294V6.251L19.938,0H6.295v4
		H2.331v28h19.813v-4.001h3.963V17.641c-0.429,0.115-0.871,0.256-1.323,0.434v5.633V23.709z M20.823,30.666L20.823,30.666
		L3.652,30.668V5.332h2.642v22.669h14.529V30.666z"/>
	<path d="M26.107,14.161c-0.429-0.141-0.866-0.267-1.323-0.357c-0.62-0.125-1.267-0.195-1.925-0.195
		c-1.604,0-3.161,0.424-4.627,1.259l-0.638,0.362l-1.789-2.825l-2.093,8.138l8.342,1.726l-2.17-3.423l0.699-0.4
		c1.553-0.881,2.905-1.561,4.198-2.019c0.447-0.159,0.887-0.289,1.322-0.388c1.174-0.269,2.33-0.333,3.563-0.133
		C28.643,15.233,27.433,14.597,26.107,14.161L26.107,14.161z"/>
</g>
</svg>
