<?xml version="1.0" encoding="utf-8"?>
<!-- Generator: Adobe Illustrator 16.0.0, SVG Export Plug-In . SVG Version: 6.00 Build 0)  -->
<!DOCTYPE svg PUBLIC "-//W3C//DTD SVG 1.1//EN" "http://www.w3.org/Graphics/SVG/1.1/DTD/svg11.dtd">
<svg version="1.1" id="Layer_1" xmlns="http://www.w3.org/2000/svg" xmlns:xlink="http://www.w3.org/1999/xlink" x="0px" y="0px"
	 width="32px" height="32px" viewBox="0 0 32 32" enable-background="new 0 0 32 32" xml:space="preserve">
<title>tab6</title>
<g>
	<path d="M21.361,19.206v6.941H5.028v-24.1h11.206l5.127,5.201v5.797c0.398-0.159,0.818-0.293,1.257-0.399V6.725l-5.869-5.946H3.77
		v3.805h-3.771V31.22h18.85v-3.805h3.77v-8.228c-0.144-0.002-0.29-0.013-0.431-0.013C21.9,19.176,21.63,19.192,21.361,19.206
		L21.361,19.206z M17.594,29.953L17.594,29.953L1.259,29.954V5.852h2.514v21.566h13.821V29.953z"/>
	<path d="M31.999,17.067l-4.967-6.267l-0.461,3.147l-0.696-0.07c-1.209-0.122-2.287-0.008-3.255,0.273
		c-0.445,0.13-0.862,0.298-1.259,0.493c-2.172,1.066-3.64,3.007-4.589,4.756c1.339-1.036,2.801-1.521,4.589-1.635
		c0.274-0.02,0.533-0.051,0.824-0.051c0.141,0,0.29,0.013,0.435,0.019c0.875,0.021,1.789,0.09,2.593,0.169l0.762,0.076l-0.563,3.815
		L31.999,17.067L31.999,17.067z"/>
</g>
</svg>
