<?xml version="1.0" encoding="utf-8"?>
<!-- Generator: Adobe Illustrator 16.0.0, SVG Export Plug-In . SVG Version: 6.00 Build 0)  -->
<!DOCTYPE svg PUBLIC "-//W3C//DTD SVG 1.1//EN" "http://www.w3.org/Graphics/SVG/1.1/DTD/svg11.dtd">
<svg version="1.1" id="Layer_1" xmlns="http://www.w3.org/2000/svg" xmlns:xlink="http://www.w3.org/1999/xlink" x="0px" y="0px"
	 width="32px" height="32px" viewBox="0 0 32 32" enable-background="new 0 0 32 32" xml:space="preserve">
<title>tab7</title>
<path d="M12.381,18.417H5.609c-0.03-0.787-0.662-1.419-1.435-1.419H1.438C0.646,16.998,0,17.661,0,18.478v9.358
	c0,0.815,0.645,1.478,1.438,1.478h10.943c0.792,0,1.436-0.662,1.436-1.478v-7.94C13.817,19.079,13.173,18.418,12.381,18.417
	L12.381,18.417z M1.234,21.372h11.351v6.469c0.001,0.118-0.092,0.218-0.203,0.22H1.444c-0.118-0.002-0.213-0.102-0.21-0.225V21.372z
	 M12.381,19.671c0.113,0,0.203,0.101,0.203,0.225v0.222H1.234v-1.641c0-0.123,0.092-0.223,0.205-0.223h2.736
	c0.112,0,0.203,0.1,0.203,0.223v1.194H12.381z"/>
<path d="M30.563,4.105h-6.771c-0.028-0.788-0.66-1.418-1.438-1.418h-2.734c-0.791,0-1.438,0.663-1.438,1.478v9.36
	c0,0.814,0.647,1.477,1.438,1.477h10.943c0.791,0,1.438-0.662,1.438-1.477v-7.94C31.999,4.771,31.353,4.108,30.563,4.105
	L30.563,4.105z M19.415,7.06h11.353v6.47c0.002,0.058-0.02,0.111-0.059,0.152c-0.042,0.042-0.094,0.065-0.146,0.066H19.628
	c-0.119-0.001-0.215-0.1-0.213-0.224V7.06L19.415,7.06z M30.563,5.358c0.109,0,0.203,0.103,0.203,0.225v0.225H19.413V4.166
	c0-0.121,0.094-0.225,0.204-0.225h2.731c0.113,0,0.204,0.101,0.204,0.225V5.36h8.009L30.563,5.358z"/>
<path d="M2.362,16.477c0.38,0,0.687-0.308,0.687-0.686V5.505h13.634c0.378,0,0.687-0.308,0.687-0.686
	c0-0.378-0.309-0.686-0.687-0.686H2.362c-0.379,0-0.686,0.308-0.686,0.686v10.972c0,0.38,0.308,0.688,0.686,0.688V16.477z"/>
<path d="M29.817,15.761c-0.38,0-0.687,0.308-0.687,0.686v10.286H15.497c-0.379,0-0.686,0.31-0.686,0.687
	c0,0.379,0.308,0.687,0.686,0.687h14.321c0.377,0,0.687-0.309,0.687-0.687V16.446C30.504,16.067,30.194,15.76,29.817,15.761
	L29.817,15.761z"/>
</svg>
