<?xml version="1.0" encoding="utf-8"?>
<!-- Generator: Adobe Illustrator 16.0.0, SVG Export Plug-In . SVG Version: 6.00 Build 0)  -->
<!DOCTYPE svg PUBLIC "-//W3C//DTD SVG 1.1//EN" "http://www.w3.org/Graphics/SVG/1.1/DTD/svg11.dtd">
<svg version="1.1" id="Layer_1" xmlns="http://www.w3.org/2000/svg" xmlns:xlink="http://www.w3.org/1999/xlink" x="0px" y="0px"
	 width="32px" height="32px" viewBox="0 0 32 32" enable-background="new 0 0 32 32" xml:space="preserve">
<title>tab9</title>
<g>
	<path d="M27.198,31.999H4.801c-2.701,0-4.899-2.198-4.899-4.9V4.899c0-2.702,2.197-4.9,4.899-4.9h22.397c2.701,0,4.9,2.197,4.9,4.9
		v22.197c0,2.701-2.196,4.9-4.9,4.9V31.999z M4.801,1.4c-1.929,0-3.5,1.571-3.5,3.5v22.197c0,1.931,1.571,3.5,3.5,3.5h22.397
		c1.931,0,3.5-1.569,3.5-3.5V4.9c0-1.929-1.569-3.5-3.5-3.5H4.801z"/>
	<path d="M22.6,25.366c-0.182,0-0.364-0.072-0.499-0.213c0,0-0.003-0.001-0.003-0.002l-2.013-2.073
		c-0.267-0.275-0.262-0.722,0.019-0.989c0.277-0.267,0.722-0.262,0.988,0.019l1.523,1.57l3.441-3.354
		c0.275-0.267,0.72-0.263,0.989,0.014c0.27,0.275,0.264,0.722-0.013,0.99l-3.942,3.841c0,0,0,0.002-0.002,0.002
		c-0.129,0.128-0.298,0.193-0.469,0.198l0,0l0,0h-0.002c-0.005-0.005-0.012-0.005-0.016-0.005L22.6,25.366z M16.134,24.152H6.073
		c-0.387,0-0.699-0.314-0.699-0.7c0-0.385,0.314-0.698,0.699-0.698h10.062c0.386,0,0.699,0.313,0.699,0.698
		C16.833,23.838,16.522,24.152,16.134,24.152z M22.6,17.682c-0.182,0-0.364-0.072-0.499-0.211c-0.003-0.002-0.003-0.002-0.003-0.002
		l-2.013-2.073c-0.267-0.277-0.262-0.721,0.019-0.989c0.279-0.269,0.722-0.26,0.988,0.016l1.523,1.572l3.441-3.354
		c0.275-0.267,0.72-0.265,0.989,0.014c0.27,0.277,0.264,0.72-0.013,0.989l-3.942,3.841c-0.084,0.081-0.181,0.135-0.284,0.169l0,0
		l0,0l0,0c-0.002,0-0.002,0-0.002,0l0,0h-0.003c-0.002,0-0.002,0-0.002,0v0.002c-0.002,0-0.002,0-0.002,0l0,0c0,0,0,0-0.002,0l0,0
		l0,0c0,0,0,0-0.003,0l0,0l0,0c0,0.002-0.002,0.002-0.002,0.002l0,0c0,0,0,0-0.003,0l0,0c0,0,0,0,0,0.001c0,0,0,0-0.003,0
		c0,0,0,0-0.001,0l0,0h-0.001c0,0-0.001,0-0.001,0.001c-0.001,0-0.001,0-0.001,0H22.78c0,0,0,0-0.001,0l0,0
		c-0.002,0-0.002,0.002-0.002,0.002h-0.001c0,0,0,0-0.001,0l0,0c-0.001,0-0.001,0-0.001,0s-0.001,0-0.001,0.001c0,0,0,0-0.001,0l0,0
		c-0.001,0-0.001,0-0.001,0H22.77c0,0,0,0-0.001,0v0.001h-0.001c0,0,0,0-0.001,0c0,0,0,0-0.001,0l0,0h-0.001
		c0,0.001,0,0.001-0.003,0.001l0,0l0,0H22.76c0,0,0,0-0.002,0l0,0v0.001h-0.002c0,0,0,0-0.003,0l0,0l0,0l0,0
		c-0.002,0.001-0.002,0.001-0.002,0.001l0,0h-0.002c0,0,0,0-0.002,0l0,0v0.001c-0.003,0-0.003,0-0.003,0l0,0h-0.002c0,0,0,0-0.002,0
		c0,0,0,0,0,0.001l0,0l0,0c-0.003,0-0.003,0-0.005,0l0,0l0,0l0,0c-0.001,0-0.001,0-0.002,0.002l0,0h-0.001c-0.001,0-0.001,0-0.003,0
		l0,0h-0.001c-0.001,0-0.001,0-0.002,0.001l0,0c-0.002,0-0.006,0-0.008,0l0,0c-0.003,0.001-0.006,0.001-0.008,0.001l0,0
		c-0.002,0.001-0.004,0.001-0.007,0.001l0,0h-0.002c-0.002,0-0.002,0.002-0.007,0.002l0,0c0,0,0,0-0.002,0l0,0l0,0l0,0
		c-0.002,0-0.002,0-0.002,0l0,0h-0.003c0,0,0,0-0.002,0l0,0l0,0c-0.002,0-0.002,0-0.002,0l0,0c-0.002,0-0.005,0-0.006,0l0,0h-0.001
		c-0.001,0-0.001,0-0.002,0l0,0h-0.001c-0.002,0-0.002,0-0.002,0c-0.001,0-0.001,0-0.001,0.003c0,0,0,0-0.001,0l0,0
		c-0.002,0-0.002,0-0.002,0l0,0c0,0,0,0-0.002,0l0,0l0,0h-0.003l0,0h-0.002c-0.002,0-0.002,0-0.002,0l0,0c0,0,0,0-0.002,0l0,0
		c-0.003,0-0.003,0-0.003,0l0,0c0,0,0,0-0.002,0l0,0c-0.005-0.003-0.016-0.003-0.025-0.003L22.6,17.682z M16.134,16.453H6.073
		c-0.387,0-0.699-0.313-0.699-0.699s0.314-0.7,0.699-0.7h10.062c0.386,0,0.699,0.314,0.699,0.7S16.522,16.453,16.134,16.453z
		 M22.6,10.305c-0.182,0-0.364-0.071-0.499-0.212l-2.013-2.074c-0.27-0.277-0.263-0.721,0.016-0.99
		c0.277-0.269,0.723-0.263,0.99,0.016l1.521,1.57l3.442-3.353c0.275-0.267,0.721-0.263,0.99,0.014
		c0.269,0.277,0.262,0.72-0.014,0.989l-3.938,3.837c0,0.001-0.003,0.002-0.003,0.005c-0.14,0.132-0.315,0.198-0.49,0.198
		L22.6,10.305z M16.134,8.719H6.073c-0.387,0-0.699-0.314-0.699-0.7S5.688,7.32,6.073,7.32h10.062c0.386,0,0.699,0.313,0.699,0.699
		S16.522,8.719,16.134,8.719z"/>
</g>
</svg>
