<?xml version="1.0" encoding="utf-8"?>
<!-- Generator: Adobe Illustrator 16.0.0, SVG Export Plug-In . SVG Version: 6.00 Build 0)  -->
<!DOCTYPE svg PUBLIC "-//W3C//DTD SVG 1.1//EN" "http://www.w3.org/Graphics/SVG/1.1/DTD/svg11.dtd">
<svg version="1.1" id="Layer_1" xmlns="http://www.w3.org/2000/svg" xmlns:xlink="http://www.w3.org/1999/xlink" x="0px" y="0px"
	 width="32px" height="32px" viewBox="0 0 32 32" enable-background="new 0 0 32 32" xml:space="preserve">
<title>toolbar3</title>
<g>
	<path d="M7.911,28.172h2.211v1.084H7.911V28.172z"/>
	<path d="M3.487,19.504h1.105v2.166H3.487V19.504z"/>
	<path d="M3.487,22.754h1.105v2.168H3.487V22.754z"/>
	<path d="M4.594,27.095v-1.089H3.486v1.074c0,1.201,0.987,2.175,2.208,2.175h1.109v-1.083H5.698
		C5.095,28.172,4.594,27.69,4.594,27.095z"/>
	<path d="M4.594,2.162c0-0.584,0.493-1.078,1.1-1.078h11.063v5.412c0,1.213,0.989,2.174,2.209,2.174h4.424v7.586l1.104-0.001V7.585
		L17.861,0H5.701C4.479,0,3.486,0.974,3.486,2.176v14.08h1.106V2.164L4.594,2.162z M17.86,1.626L17.86,1.626L17.86,1.626
		L17.86,1.626z"/>
	<path d="M14.543,28.172h2.213v1.084h-2.213V28.172z"/>
	<path d="M23.388,19.504h1.105v2.166h-1.105V19.504z"/>
	<path d="M25.599,15.168v2.168H2.383v-2.168H1.275v5.418h1.107v-2.168h23.216v2.167h1.104v-5.418L25.599,15.168z"/>
	<path d="M11.227,28.172h2.213v1.084h-2.213V28.172z"/>
	<path d="M23.388,22.754h1.105v2.168h-1.105V22.754z"/>
	<path d="M23.388,27.098c0,0.595-0.495,1.076-1.105,1.076h-1.104v1.082h1.107c1.219,0,2.209-0.973,2.209-2.156v-1.094H23.39
		L23.388,27.098z"/>
	<path d="M17.86,28.172h2.211v1.084H17.86V28.172z"/>
	<path fill="#5C9CED" d="M24.898,20.352v5.824l4.087-4.136C27.899,20.957,26.43,20.35,24.898,20.352z"/>
	<path fill="#25B6D2" d="M28.998,22.017l-4.097,4.161h5.823C30.729,24.614,30.107,23.116,28.998,22.017z"/>
	<path fill="#FB6E51" d="M24.898,32v-5.824l4.087,4.138C27.899,31.396,26.43,32.002,24.898,32z"/>
	<path fill="#E04F5F" d="M28.998,30.336l-4.097-4.16h5.823C30.729,27.738,30.107,29.234,28.998,30.336z"/>
	<path fill="#25B6D2" d="M24.898,20.352v5.824l-4.084-4.136C21.899,20.957,23.369,20.35,24.898,20.352z"/>
	<path fill="#47CEAC" d="M20.801,22.017l4.098,4.161h-5.824C19.075,24.549,19.735,23.076,20.801,22.017z"/>
	<path fill="#FECD54" d="M24.898,32v-5.824l-4.084,4.138C21.899,31.396,23.369,32.003,24.898,32z"/>
	<path fill="#32BEA6" d="M20.801,30.336l4.098-4.16h-5.824C19.075,27.805,19.735,29.276,20.801,30.336z"/>
</g>
</svg>
