<?xml version="1.0" encoding="utf-8"?>
<!-- Generator: Adobe Illustrator 16.0.0, SVG Export Plug-In . SVG Version: 6.00 Build 0)  -->
<!DOCTYPE svg PUBLIC "-//W3C//DTD SVG 1.1//EN" "http://www.w3.org/Graphics/SVG/1.1/DTD/svg11.dtd">
<svg version="1.1" id="Layer_1" xmlns="http://www.w3.org/2000/svg" xmlns:xlink="http://www.w3.org/1999/xlink" x="0px" y="0px"
	 width="32px" height="32px" viewBox="0 0 32 32" enable-background="new 0 0 32 32" xml:space="preserve">
<title>toolbar14</title>
<path d="M27.023,6.822h-0.864V5.043c0-2.534-2.232-4.596-4.976-4.596H10.74C7.998,0.446,5.765,2.509,5.765,5.043v1.779H4.977
	c-2.741,0-4.975,2.063-4.975,4.597v7.414c0,2.533,2.233,4.597,4.975,4.597h0.781v5.826c0,1.263,1.117,2.296,2.483,2.296h15.43
	c1.367,0,2.483-1.033,2.483-2.296v-5.828h0.87c2.742,0,4.977-2.063,4.977-4.596v-7.414c0-2.533-2.234-4.596-4.977-4.596H27.023z
	 M7.641,5.043c0-1.572,1.389-2.855,3.09-2.855H21.17c1.702,0,3.09,1.284,3.09,2.855v1.779H7.64L7.641,5.043L7.641,5.043z
	 M24.268,29.271c0,0.302-0.271,0.553-0.598,0.553H8.24c-0.328,0-0.6-0.251-0.6-0.553v-9.612h16.628V29.271z M30.114,18.837
	L30.114,18.837c0,1.574-1.389,2.856-3.093,2.856h-0.863v-2.037h1.243c0.524,0,0.94-0.388,0.94-0.87c0-0.486-0.419-0.87-0.94-0.87
	H4.375c-0.523,0-0.941,0.384-0.941,0.87c0,0.483,0.419,0.87,0.941,0.87h1.388v2.037H4.975c-1.703,0-3.091-1.284-3.091-2.856v-7.413
	c0-1.572,1.388-2.855,3.091-2.855h22.049c1.703,0,3.09,1.284,3.09,2.855V18.837z"/>
<path d="M26.404,10.816h-1.609c-0.444,0-0.795,0.328-0.795,0.741c0,0.412,0.351,0.741,0.795,0.741h1.609
	c0.442,0,0.796-0.331,0.796-0.741C27.2,11.146,26.847,10.816,26.404,10.816z"/>
<path d="M8.977,24.146H21.42c0.543,0,0.979-0.331,0.979-0.74s-0.436-0.74-0.979-0.74H8.977c-0.543,0-0.978,0.331-0.978,0.74
	C7.999,23.816,8.439,24.146,8.977,24.146z"/>
<path d="M8.977,27.108H21.42c0.543,0,0.979-0.331,0.979-0.74c0-0.414-0.436-0.741-0.971-0.741H8.977
	c-0.543,0-0.978,0.329-0.978,0.741C7.999,26.778,8.434,27.108,8.977,27.108z"/>
</svg>
