<?xml version="1.0" encoding="utf-8"?>
<!-- Generator: Adobe Illustrator 16.0.0, SVG Export Plug-In . SVG Version: 6.00 Build 0)  -->
<!DOCTYPE svg PUBLIC "-//W3C//DTD SVG 1.1//EN" "http://www.w3.org/Graphics/SVG/1.1/DTD/svg11.dtd">
<svg version="1.1" id="Layer_1" xmlns="http://www.w3.org/2000/svg" xmlns:xlink="http://www.w3.org/1999/xlink" x="0px" y="0px"
	 width="32px" height="32px" viewBox="0 0 32 32" enable-background="new 0 0 32 32" xml:space="preserve">
<title>toolbar2</title>
<path d="M4.513,21.333h1.208v2.369H4.513V21.333z"/>
<path d="M9.35,30.813h2.418v1.188H9.35V30.813z"/>
<path d="M12.975,30.813h2.419v1.188h-2.419V30.813z"/>
<path d="M5.723,29.636v-1.192H4.514v1.176c0,1.314,1.077,2.379,2.416,2.379h1.212v-1.186h-1.21
	C6.273,30.813,5.724,30.286,5.723,29.636L5.723,29.636z"/>
<path d="M4.513,24.887h1.208v2.372H4.513V24.887z"/>
<path d="M5.723,2.365c0-0.64,0.539-1.18,1.203-1.18h12.099v5.918c0,1.327,1.081,2.379,2.418,2.379h4.838v8.297l1.208-0.002V8.297
	l-7.254-8.296h-13.3c-1.336,0-2.421,1.064-2.421,2.378v15.399h1.208L5.723,2.365z M20.233,1.778v0.002l-0.002-0.002H20.233
	L20.233,1.778z"/>
<path d="M26.278,21.333h1.208v2.369h-1.208V21.333z"/>
<path d="M28.698,16.592v2.37H3.303v-2.37H2.095v5.925h1.208v-2.37h25.395v2.37h1.207V16.59L28.698,16.592z"/>
<path d="M26.278,24.887h1.208v2.372h-1.208V24.887z"/>
<path d="M26.278,29.638c0,0.651-0.542,1.177-1.208,1.177h-1.21v1.187h1.212c1.334,0,2.415-1.067,2.415-2.36v-1.196H26.28v1.193
	H26.278z"/>
<path d="M20.233,30.813h2.418v1.188h-2.418V30.813z"/>
<path d="M16.605,30.813h2.417v1.188h-2.417V30.813z"/>
</svg>
