<?xml version="1.0" encoding="utf-8"?>
<!-- Generator: Adobe Illustrator 16.0.0, SVG Export Plug-In . SVG Version: 6.00 Build 0)  -->
<!DOCTYPE svg PUBLIC "-//W3C//DTD SVG 1.1//EN" "http://www.w3.org/Graphics/SVG/1.1/DTD/svg11.dtd">
<svg version="1.1" id="Layer_1" xmlns="http://www.w3.org/2000/svg" xmlns:xlink="http://www.w3.org/1999/xlink" x="0px" y="0px"
	 width="32px" height="32px" viewBox="0 0 32 32" enable-background="new 0 0 32 32" xml:space="preserve">
<title>user-settings-4</title>
<path d="M28.8,0H3.2C1.434,0,0,1.436,0,3.2v25.6C0,30.566,1.434,32,3.2,32h25.599C30.564,32,32,30.566,32,28.8V3.2
	C32,1.436,30.566,0,28.8,0z M30.72,28.8c0,1.06-0.861,1.92-1.92,1.92H3.2c-1.059,0-1.92-0.86-1.92-1.92V3.2
	c0-1.06,0.861-1.92,1.92-1.92h25.599c1.06,0,1.921,0.861,1.921,1.92V28.8L30.72,28.8z"/>
<path d="M25.944,7.635c-1.965-1.859-5.162-1.859-7.127,0L8.312,17.452c-1.329,1.228-1.414,3.3-0.186,4.629
	c0.059,0.065,0.121,0.128,0.186,0.188c1.406,1.329,3.687,1.329,5.091,0l7.896-7.47c0.267-0.247,0.282-0.661,0.038-0.927
	c-0.013-0.011-0.024-0.023-0.038-0.035c-0.288-0.267-0.731-0.267-1.018,0l-7.899,7.469c-0.862,0.795-2.19,0.795-3.053,0
	c-0.799-0.736-0.846-1.981-0.11-2.778c0.036-0.04,0.072-0.075,0.11-0.11l10.504-9.819c1.405-1.332,3.685-1.332,5.09,0
	c1.329,1.226,1.414,3.296,0.188,4.627c-0.061,0.064-0.122,0.128-0.188,0.187l-10.401,9.723c-1.967,1.861-5.16,1.861-7.127,0
	c-1.971-1.861-1.971-4.88,0-6.741L15.19,9.02c0.265-0.243,0.284-0.657,0.041-0.921c-0.012-0.015-0.026-0.028-0.041-0.041
	c-0.288-0.267-0.731-0.267-1.02,0l-7.896,7.47c-2.531,2.393-2.531,6.273,0,8.666c2.529,2.396,6.633,2.396,9.163,0l10.507-9.816
	c1.86-1.724,1.974-4.628,0.251-6.491C26.115,7.8,26.03,7.715,25.944,7.635L25.944,7.635z"/>
</svg>
