<?xml version="1.0" encoding="utf-8"?>
<!-- Generator: Adobe Illustrator 16.0.0, SVG Export Plug-In . SVG Version: 6.00 Build 0)  -->
<!DOCTYPE svg PUBLIC "-//W3C//DTD SVG 1.1//EN" "http://www.w3.org/Graphics/SVG/1.1/DTD/svg11.dtd">
<svg version="1.1" id="Layer_1" xmlns="http://www.w3.org/2000/svg" xmlns:xlink="http://www.w3.org/1999/xlink" x="0px" y="0px"
	 width="32px" height="32px" viewBox="0 0 32 32" enable-background="new 0 0 32 32" xml:space="preserve">
<title>user-settings-2</title>
<path d="M30.274,1.723C29.176,0.616,27.68-0.004,26.119,0c-1.558-0.006-3.056,0.615-4.154,1.72L4.292,19.294
	c-0.104,0.101-0.183,0.228-0.232,0.366l-4,11c-0.186,0.521,0.087,1.095,0.608,1.282c0.203,0.07,0.421,0.077,0.627,0.018l9.949-3.052
	c0.156-0.05,0.296-0.136,0.413-0.25l18.618-18.623c1.108-1.099,1.729-2.596,1.725-4.157c0-1.57-0.61-3.046-1.725-4.158V1.723z
	 M10.092,27.166L6.367,28.31c-0.206-0.623-0.554-1.193-1.015-1.661c-0.402-0.39-0.859-0.713-1.357-0.961l1.704-4.687h2.299v2
	c0,0.554,0.449,1,1.001,1h1.762L10.092,27.166L10.092,27.166z M24.812,12.672L12.628,24.855l0.349-1.646
	c0.115-0.541-0.232-1.072-0.773-1.187c-0.067-0.014-0.135-0.021-0.205-0.021h-2V20c0-0.551-0.448-0.999-0.999-0.999H7.421
	L19.315,7.173l0.013,0.011c0.725-0.728,1.713-1.137,2.741-1.134c1.034,0,2.011,0.401,2.742,1.134
	c0.73,0.732,1.137,1.708,1.137,2.745c0,1.034-0.403,2.008-1.137,2.741l0,0V12.672z M28.862,8.622L27.93,9.553
	c-0.085-1.427-0.691-2.771-1.702-3.781c-1.009-1.015-2.36-1.62-3.787-1.703l0.938-0.93V3.138c0.727-0.731,1.712-1.141,2.741-1.136
	c1.038,0,2.011,0.402,2.741,1.136c0.735,0.733,1.138,1.708,1.138,2.743c0.004,1.028-0.407,2.017-1.138,2.741H28.862z M22.293,8.293
	l-10,10c-0.391,0.391-0.391,1.024,0,1.413c0.389,0.393,1.023,0.393,1.414,0.002l10.001-10c0.392-0.391,0.392-1.023,0-1.414
	S22.684,7.903,22.293,8.293L22.293,8.293z"/>
</svg>
