<?xml version="1.0" encoding="utf-8"?>
<!-- Generator: Adobe Illustrator 16.0.0, SVG Export Plug-In . SVG Version: 6.00 Build 0)  -->
<!DOCTYPE svg PUBLIC "-//W3C//DTD SVG 1.1//EN" "http://www.w3.org/Graphics/SVG/1.1/DTD/svg11.dtd">
<svg version="1.1" id="Layer_1" xmlns="http://www.w3.org/2000/svg" xmlns:xlink="http://www.w3.org/1999/xlink" x="0px" y="0px"
	 width="32px" height="32px" viewBox="0 0 32 32" enable-background="new 0 0 32 32" xml:space="preserve">
<title>user-settings-1</title>
<path d="M6.912,29.521c-0.271-0.272-0.713-0.272-0.984,0l-1.272,1.271c-0.281,0.263-0.298,0.704-0.035,0.985
	c0.264,0.28,0.705,0.297,0.985,0.034c0.012-0.011,0.023-0.021,0.033-0.034l1.273-1.273c0.273-0.271,0.273-0.712,0.002-0.983
	C6.914,29.521,6.912,29.521,6.912,29.521L6.912,29.521z"/>
<path d="M3.674,25.766H1.672c-0.429,0-0.775,0.396-0.775,0.886c0,0.49,0.348,0.889,0.775,0.889h2.002
	c0.428,0,0.776-0.397,0.776-0.889S4.104,25.766,3.674,25.766z"/>
<path d="M30.316,26.834H16.455L30.644,12.52c0.614-0.625,0.614-1.63,0-2.256l-9.713-9.798c-0.609-0.616-1.606-0.622-2.226-0.01
	c-0.002,0.003-0.007,0.006-0.009,0.01L3.174,16.125c-0.895,0.898-1.393,2.118-1.389,3.383c0,1.28,0.495,2.482,1.389,3.387
	l4.677,4.718c0.515,0.525,1.221,0.818,1.956,0.818h20.507c0.438-0.003,0.792-0.359,0.79-0.799c0-0.44-0.353-0.796-0.79-0.798
	L30.316,26.834z M9.808,26.833L9.808,26.833c-0.314,0.001-0.618-0.124-0.838-0.35l-4.676-4.718c-1.233-1.252-1.233-3.263,0-4.513
	l2.539-2.561l8.345,8.42c0.306,0.309,0.802,0.313,1.112,0.007c0.002-0.002,0.005-0.006,0.007-0.007c0.309-0.313,0.309-0.815,0-1.13
	L7.95,13.563l11.865-11.97l9.709,9.797L14.217,26.833H9.808z"/>
</svg>
