<?xml version="1.0" encoding="utf-8"?>
<!-- Generator: Adobe Illustrator 16.0.0, SVG Export Plug-In . SVG Version: 6.00 Build 0)  -->
<!DOCTYPE svg PUBLIC "-//W3C//DTD SVG 1.1//EN" "http://www.w3.org/Graphics/SVG/1.1/DTD/svg11.dtd">
<svg version="1.1" id="Layer_1" xmlns="http://www.w3.org/2000/svg" xmlns:xlink="http://www.w3.org/1999/xlink" x="0px" y="0px"
	 width="32px" height="32px" viewBox="0 0 32 32" enable-background="new 0 0 32 32" xml:space="preserve">
<g>
	<path fill="#262B56" d="M22.865,32H9.134c-2.729,0-4.948-2.22-4.948-4.947V4.948C4.186,2.219,6.404,0,9.134,0h13.731
		c2.729,0,4.949,2.219,4.949,4.948v22.104C27.814,29.78,25.594,32,22.865,32z M9.134,1.533c-1.883,0-3.415,1.532-3.415,3.415v22.104
		c0,1.883,1.532,3.415,3.415,3.415h13.731c1.883,0,3.416-1.532,3.416-3.415V4.948c0-1.883-1.533-3.415-3.416-3.415H9.134z"/>
	<path fill="#4A90E2" d="M21.854,11.015c-1.396-1.441-3.694-1.479-5.137-0.083c-0.029,0.027-0.056,0.055-0.083,0.083l-5.981,6.047
		c-1.119,1.156-1.119,2.994,0,4.15c1.089,1.122,2.88,1.146,4.001,0.061c0.021-0.021,0.039-0.039,0.06-0.061l5.982-6.046
		c0.802-0.826,0.802-2.14,0-2.966c-0.776-0.8-2.057-0.82-2.854-0.043c-0.014,0.014-0.029,0.029-0.045,0.043l-4.498,4.601
		c-0.161,0.165-0.161,0.429,0,0.595c0.155,0.158,0.411,0.162,0.572,0.008c0.002-0.004,0.005-0.006,0.008-0.008l4.498-4.601
		c0.467-0.481,1.233-0.493,1.715-0.027c0.008,0.009,0.018,0.018,0.027,0.027c0.479,0.495,0.479,1.282,0,1.778l-5.985,6.046
		c-0.775,0.801-2.053,0.821-2.854,0.047c-0.016-0.017-0.03-0.032-0.046-0.047c-0.801-0.826-0.801-2.14,0-2.965l5.926-5.989
		c1.086-1.122,2.875-1.149,3.995-0.063c0.021,0.021,0.044,0.042,0.064,0.063c1.121,1.156,1.121,2.995,0,4.151l-4.441,4.541
		c-0.161,0.166-0.161,0.431,0,0.596c0.154,0.158,0.41,0.164,0.57,0.009c0.004-0.002,0.006-0.005,0.01-0.009l4.498-4.6
		C23.299,14.865,23.299,12.5,21.854,11.015L21.854,11.015z"/>
</g>
</svg>
