<?xml version="1.0" encoding="utf-8"?>
<!-- Generator: Adobe Illustrator 16.0.0, SVG Export Plug-In . SVG Version: 6.00 Build 0)  -->
<!DOCTYPE svg PUBLIC "-//W3C//DTD SVG 1.1//EN" "http://www.w3.org/Graphics/SVG/1.1/DTD/svg11.dtd">
<svg version="1.1" id="Layer_1" xmlns="http://www.w3.org/2000/svg" xmlns:xlink="http://www.w3.org/1999/xlink" x="0px" y="0px"
	 width="32px" height="32px" viewBox="0 0 32 32" enable-background="new 0 0 32 32" xml:space="preserve">
<g>
	<path fill="#262B56" d="M4.56,10.879c1.425,0,2.695-0.654,3.531-1.678h5.184l3.303-2.88l-3.304-2.878H8.089
		C6.5,1.493,3.63,1.2,1.68,2.789C-0.271,4.377-0.565,7.248,1.024,9.2c0.866,1.063,2.164,1.679,3.535,1.678V10.879z M4.521,3.913
		h0.715v4.82H4.337V4.888L3.592,5.291L3.396,4.515L4.521,3.913z"/>
	<path fill="#262B56" d="M4.56,20.571c1.431,0,2.707-0.658,3.543-1.689h12.884l3.303-2.879l-3.303-2.879H8.081
		c-1.599-1.943-4.469-2.222-6.411-0.623c-1.943,1.599-2.221,4.469-0.622,6.414c0.865,1.05,2.153,1.657,3.514,1.659H4.56V20.571z
		 M3.002,17.887l0.514-0.502c1.155-1.1,1.637-1.656,1.646-2.278c0-0.347-0.136-0.764-0.78-0.764
		c-0.327,0.014-0.639,0.139-0.885,0.354L3.38,14.794l-0.292-0.647l0.065-0.057c0.372-0.314,0.852-0.485,1.353-0.485
		c1.035,0,1.498,0.715,1.498,1.426c0,0.904-0.659,1.61-1.59,2.505l-0.161,0.149h1.862v0.735H3.002V17.887z"/>
	<path fill="#262B56" d="M32,25.68l-3.301-2.88H8.089C6.5,20.852,3.63,20.561,1.682,22.15c-1.95,1.591-2.24,4.459-0.65,6.408
		c1.591,1.95,4.46,2.24,6.409,0.65c0.237-0.195,0.455-0.412,0.649-0.65h20.612L32,25.68z M4.334,28.125
		c-0.547,0-1.008-0.172-1.236-0.32l-0.075-0.053l0.244-0.693l0.123,0.081c0.145,0.092,0.527,0.265,0.937,0.265
		c0.311,0,0.548-0.08,0.708-0.244c0.131-0.139,0.203-0.322,0.197-0.514c-0.007-0.581-0.546-0.788-1.049-0.788H3.728V25.17h0.456
		c0.357,0,0.89-0.174,0.89-0.647c0-0.359-0.245-0.563-0.675-0.563c-0.3,0.01-0.59,0.104-0.835,0.277l-0.125,0.089L3.2,23.653
		l0.067-0.05c0.25-0.186,0.734-0.369,1.25-0.369c0.972,0,1.406,0.599,1.406,1.191c0,0.44-0.247,0.845-0.64,1.046
		c0.495,0.187,0.819,0.661,0.813,1.187C6.095,27.391,5.551,28.125,4.334,28.125z"/>
</g>
</svg>
