<?xml version="1.0" encoding="utf-8"?>
<!-- Generator: Adobe Illustrator 16.0.0, SVG Export Plug-In . SVG Version: 6.00 Build 0)  -->
<!DOCTYPE svg PUBLIC "-//W3C//DTD SVG 1.1//EN" "http://www.w3.org/Graphics/SVG/1.1/DTD/svg11.dtd">
<svg version="1.1" id="Layer_1" xmlns="http://www.w3.org/2000/svg" xmlns:xlink="http://www.w3.org/1999/xlink" x="0px" y="0px"
	 width="40px" height="40px" viewBox="0 0 40 40" enable-background="new 0 0 40 40" xml:space="preserve">
<g>
	<path d="M20,2.2C10.186,2.2,2.2,10.185,2.2,20c0,5.093,2.161,9.679,5.6,12.927c2.138,2.019,4.771,3.506,7.697,4.273
		c1.44,0.378,2.944,0.6,4.503,0.6s3.063-0.222,4.503-0.6c2.748-0.721,5.233-2.076,7.297-3.91c3.671-3.264,6-8.004,6-13.29
		C37.8,10.185,29.814,2.2,20,2.2z M30.027,32.2c-2.729,2.248-6.225,3.6-10.027,3.6s-7.298-1.352-10.027-3.6
		c-0.791-0.652-1.521-1.38-2.173-2.173C5.553,27.298,4.2,23.804,4.2,20s1.353-7.298,3.6-10.028C8.326,9.334,8.911,8.749,9.529,8.2
		c2.791-2.479,6.451-4,10.471-4s7.68,1.521,10.471,4c0.469,0.417,0.912,0.86,1.329,1.329c2.479,2.791,4,6.453,4,10.471
		c0,4.019-1.521,7.681-4,10.472C31.251,31.089,30.666,31.675,30.027,32.2z"/>
	<polygon points="22.3,11.2 17.3,11.2 16.3,12.2 12.8,12.2 12.8,13.2 12.8,14.2 26.8,14.2 26.8,13.2 26.8,12.2 23.3,12.2 	"/>
	<path d="M13.8,27.2c0,1.1,0.9,2,2,2h8c1.101,0,2-0.9,2-2v-12h-12V27.2z M15.8,17.2h8v10h-8V17.2z"/>
</g>
</svg>
