<?xml version="1.0" encoding="utf-8"?>
<!-- Generator: Adobe Illustrator 16.0.0, SVG Export Plug-In . SVG Version: 6.00 Build 0)  -->
<!DOCTYPE svg PUBLIC "-//W3C//DTD SVG 1.1//EN" "http://www.w3.org/Graphics/SVG/1.1/DTD/svg11.dtd">
<svg version="1.1" id="Layer_1" xmlns="http://www.w3.org/2000/svg" xmlns:xlink="http://www.w3.org/1999/xlink" x="0px" y="0px"
	 width="40px" height="40px" viewBox="51.25 2.5 40 40" enable-background="new 51.25 2.5 40 40" xml:space="preserve">
<g>
	<path d="M86.418,7.33c-1.167-1.176-2.758-1.835-4.415-1.83c-1.656-0.006-3.247,0.654-4.415,1.828L58.811,26
		c-0.11,0.108-0.195,0.241-0.248,0.39l-4.25,11.687c-0.198,0.554,0.092,1.164,0.646,1.363c0.215,0.075,0.447,0.081,0.666,0.017
		l10.571-3.242c0.166-0.052,0.315-0.142,0.439-0.265l19.783-19.787c1.177-1.168,1.838-2.759,1.832-4.416
		C88.25,10.078,87.601,8.51,86.418,7.33z M64.973,34.364l-3.957,1.216c-0.219-0.663-0.589-1.269-1.079-1.765
		c-0.426-0.414-0.912-0.758-1.441-1.021l1.81-4.98h2.443v2.125c0,0.589,0.477,1.063,1.064,1.063h1.873L64.973,34.364L64.973,34.364z
		 M80.612,18.964L67.667,31.91l0.37-1.75c0.122-0.575-0.246-1.139-0.821-1.261c-0.071-0.015-0.144-0.022-0.218-0.022h-2.125v-2.125
		c0-0.586-0.476-1.063-1.061-1.063h-1.678l12.637-12.567l0.014,0.013c0.771-0.774,1.82-1.209,2.913-1.205
		c1.099,0,2.136,0.426,2.914,1.205c0.776,0.778,1.208,1.815,1.208,2.916C81.82,17.15,81.392,18.185,80.612,18.964L80.612,18.964z
		 M84.916,14.66l-0.99,0.99c-0.091-1.516-0.735-2.944-1.809-4.018c-1.073-1.077-2.507-1.721-4.025-1.809l0.998-0.988V8.833
		c0.77-0.777,1.818-1.212,2.913-1.208c1.102,0,2.136,0.427,2.913,1.208c0.78,0.779,1.209,1.814,1.209,2.914
		C86.129,12.84,85.693,13.891,84.916,14.66z M77.937,14.311L67.311,24.936c-0.415,0.415-0.415,1.089,0,1.502
		c0.414,0.417,1.087,0.417,1.502,0.002l10.626-10.626c0.416-0.415,0.416-1.088,0-1.503C79.024,13.895,78.352,13.895,77.937,14.311z"
		/>
</g>
</svg>
