<?xml version="1.0" encoding="utf-8"?>
<!-- Generator: Adobe Illustrator 16.0.0, SVG Export Plug-In . SVG Version: 6.00 Build 0)  -->
<!DOCTYPE svg PUBLIC "-//W3C//DTD SVG 1.1//EN" "http://www.w3.org/Graphics/SVG/1.1/DTD/svg11.dtd">
<svg version="1.1" id="Layer_1" xmlns="http://www.w3.org/2000/svg" xmlns:xlink="http://www.w3.org/1999/xlink" x="0px" y="0px"
	 width="40px" height="40px" viewBox="33.084 -3.416 40 40" enable-background="new 33.084 -3.416 40 40" xml:space="preserve">
<g>
	<path d="M66.684-0.416H39.484c-1.876,0-3.4,1.525-3.4,3.4v27.2c0,1.876,1.524,3.4,3.4,3.4h27.199c1.876,0,3.4-1.524,3.4-3.4v-27.2
		C70.084,1.109,68.56-0.416,66.684-0.416z M68.724,30.184c0,1.125-0.915,2.04-2.04,2.04H39.484c-1.125,0-2.04-0.915-2.04-2.04v-27.2
		c0-1.125,0.915-2.04,2.04-2.04h27.199c1.125,0,2.04,0.915,2.04,2.04V30.184z"/>
	<path d="M63.649,7.696c-2.088-1.975-5.485-1.975-7.573,0L44.915,18.127c-1.413,1.303-1.503,3.505-0.198,4.918
		c0.063,0.069,0.129,0.136,0.198,0.199c1.494,1.413,3.916,1.413,5.409,0l8.39-7.936c0.283-0.262,0.3-0.702,0.04-0.985
		c-0.014-0.013-0.026-0.025-0.04-0.037c-0.306-0.284-0.777-0.284-1.081,0l-8.393,7.936c-0.916,0.845-2.328,0.845-3.244,0
		c-0.849-0.783-0.899-2.106-0.116-2.953c0.037-0.042,0.076-0.08,0.116-0.117L57.157,8.72c1.493-1.415,3.914-1.415,5.408,0
		c1.413,1.303,1.502,3.503,0.199,4.916c-0.063,0.069-0.13,0.136-0.199,0.199L51.514,24.166c-2.09,1.977-5.482,1.977-7.572,0
		c-2.094-1.979-2.094-5.185,0-7.162l8.282-7.835c0.281-0.258,0.301-0.697,0.042-0.979c-0.013-0.015-0.027-0.029-0.042-0.043
		c-0.306-0.284-0.778-0.284-1.084,0l-8.389,7.936c-2.69,2.543-2.69,6.666,0,9.208c2.688,2.545,7.047,2.545,9.735,0l11.163-10.43
		c1.978-1.831,2.097-4.918,0.267-6.896C63.83,7.872,63.741,7.782,63.649,7.696z"/>
</g>
</svg>
