<?xml version="1.0" encoding="utf-8"?>
<!-- Generator: Adobe Illustrator 16.0.0, SVG Export Plug-In . SVG Version: 6.00 Build 0)  -->
<!DOCTYPE svg PUBLIC "-//W3C//DTD SVG 1.1//EN" "http://www.w3.org/Graphics/SVG/1.1/DTD/svg11.dtd">
<svg version="1.1" id="Layer_1" xmlns="http://www.w3.org/2000/svg" xmlns:xlink="http://www.w3.org/1999/xlink" x="0px" y="0px"
	 width="40px" height="40px" viewBox="0 0 40 40" enable-background="new 0 0 40 40" xml:space="preserve">
<g>
	<path d="M9.771,35.219c-0.305-0.307-0.802-0.307-1.106,0L7.23,36.65c-0.316,0.295-0.335,0.791-0.039,1.108
		c0.295,0.317,0.793,0.335,1.109,0.039c0.014-0.013,0.025-0.024,0.038-0.039l1.432-1.433c0.308-0.305,0.308-0.801,0.003-1.106
		C9.773,35.219,9.771,35.219,9.771,35.219z"/>
	<path d="M6.127,30.99H3.873C3.391,30.99,3,31.437,3,31.988c0,0.554,0.391,1,0.873,1h2.254c0.48,0,0.871-0.447,0.871-1
		C6.998,31.437,6.609,30.99,6.127,30.99z"/>
	<path d="M36.111,32.193H20.511l15.97-16.11c0.693-0.704,0.693-1.835,0-2.539L25.55,2.515c-0.688-0.694-1.81-0.7-2.505-0.011
		c-0.002,0.004-0.008,0.007-0.012,0.011L5.564,20.141C4.557,21.152,3.996,22.522,4,23.949c0,1.44,0.557,2.795,1.564,3.812
		l5.264,5.31c0.58,0.59,1.373,0.922,2.201,0.92h23.082c0.492-0.002,0.891-0.403,0.889-0.897C37,32.597,36.604,32.197,36.111,32.193z
		 M13.031,32.193L13.031,32.193c-0.354,0-0.696-0.141-0.944-0.395L6.822,26.49c-1.388-1.41-1.388-3.672,0-5.08l2.858-2.883
		l9.394,9.478c0.344,0.348,0.901,0.351,1.25,0.008c0.002-0.003,0.006-0.006,0.008-0.008c0.348-0.353,0.348-0.918,0-1.271
		l-9.393-9.476L24.294,3.786l10.927,11.026L17.992,32.193H13.031z"/>
</g>
</svg>
