<?xml version="1.0" encoding="utf-8"?>
<!-- Generator: Adobe Illustrator 16.0.0, SVG Export Plug-In . SVG Version: 6.00 Build 0)  -->
<!DOCTYPE svg PUBLIC "-//W3C//DTD SVG 1.1//EN" "http://www.w3.org/Graphics/SVG/1.1/DTD/svg11.dtd">
<svg version="1.1" id="Layer_1" xmlns="http://www.w3.org/2000/svg" xmlns:xlink="http://www.w3.org/1999/xlink" x="0px" y="0px"
	 width="40px" height="40px" viewBox="0 0 40 40" enable-background="new 0 0 40 40" xml:space="preserve">
<g>
	<path d="M33.6,3H6.401C4.524,3,3,4.525,3,6.4v27.2c0,1.877,1.523,3.4,3.4,3.4H33.6c1.875,0,3.4-1.523,3.4-3.4V6.4
		C37,4.525,35.477,3,33.6,3z M35.641,33.6c0,1.125-0.916,2.041-2.041,2.041H6.401c-1.125,0-2.041-0.916-2.041-2.041V6.4
		c0-1.125,0.916-2.04,2.041-2.04H33.6c1.125,0,2.039,0.915,2.039,2.04v27.2H35.641z"/>
	<path d="M30.564,11.112c-2.088-1.975-5.484-1.975-7.572,0L11.832,21.543c-1.413,1.303-1.503,3.505-0.198,4.918
		c0.063,0.069,0.129,0.137,0.198,0.199c1.494,1.413,3.916,1.413,5.409,0l8.39-7.936c0.283-0.262,0.299-0.702,0.039-0.985
		c-0.014-0.013-0.025-0.025-0.039-0.037c-0.307-0.284-0.777-0.284-1.082,0l-8.392,7.937c-0.916,0.844-2.328,0.844-3.244,0
		c-0.85-0.783-0.898-2.106-0.116-2.953c0.037-0.043,0.076-0.08,0.116-0.117l11.162-10.433c1.492-1.415,3.912-1.415,5.406,0
		c1.414,1.303,1.502,3.503,0.199,4.916c-0.063,0.069-0.129,0.136-0.199,0.199L18.43,27.582c-2.09,1.977-5.481,1.977-7.572,0
		c-2.094-1.979-2.094-5.186,0-7.162l8.283-7.835c0.28-0.258,0.301-0.697,0.041-0.979c-0.013-0.015-0.027-0.029-0.041-0.043
		c-0.307-0.284-0.779-0.284-1.084,0l-8.39,7.936c-2.69,2.543-2.69,6.666,0,9.208c2.688,2.545,7.047,2.545,9.735,0l11.162-10.43
		c1.979-1.831,2.098-4.918,0.268-6.896C30.746,11.288,30.658,11.198,30.564,11.112z"/>
</g>
</svg>
