<?xml version="1.0" encoding="utf-8"?>
<!-- Generator: Adobe Illustrator 16.0.0, SVG Export Plug-In . SVG Version: 6.00 Build 0)  -->
<!DOCTYPE svg PUBLIC "-//W3C//DTD SVG 1.1//EN" "http://www.w3.org/Graphics/SVG/1.1/DTD/svg11.dtd">
<svg version="1.1" id="Layer_1" xmlns="http://www.w3.org/2000/svg" xmlns:xlink="http://www.w3.org/1999/xlink" x="0px" y="0px"
	 width="40px" height="40px" viewBox="44.139 -12.967 40 40" enable-background="new 44.139 -12.967 40 40" xml:space="preserve">
<g>
	<path d="M78.305-9.967H49.973c-1.565,0-2.834,1.269-2.834,2.833v28.333c0,1.565,1.269,2.834,2.834,2.834h28.332
		c1.565,0,2.834-1.269,2.834-2.834V-7.134C81.139-8.698,79.87-9.967,78.305-9.967z M73.788,7.914h-8.77v8.769
		c-0.002,0.487-0.395,0.881-0.88,0.881c0,0-0.001,0-0.003,0c-0.483-0.003-0.877-0.396-0.877-0.881V7.914H54.49
		c-0.487,0-0.882-0.395-0.882-0.881s0.395-0.881,0.882-0.881h8.769v-8.769c0.002-0.486,0.396-0.879,0.881-0.879
		c0.484,0,0.879,0.395,0.879,0.88v8.77h8.77c0.484,0,0.879,0.393,0.881,0.878C74.669,7.518,74.272,7.914,73.788,7.914z"/>
</g>
</svg>
