<?xml version="1.0" encoding="utf-8"?>
<!-- Generator: Adobe Illustrator 16.0.0, SVG Export Plug-In . SVG Version: 6.00 Build 0)  -->
<!DOCTYPE svg PUBLIC "-//W3C//DTD SVG 1.1//EN" "http://www.w3.org/Graphics/SVG/1.1/DTD/svg11.dtd">
<svg version="1.1" id="Layer_1" xmlns="http://www.w3.org/2000/svg" xmlns:xlink="http://www.w3.org/1999/xlink" x="0px" y="0px"
	 width="40px" height="40px" viewBox="60.5 -2.2 40 40" enable-background="new 60.5 -2.2 40 40" xml:space="preserve">
<g>
	<path d="M80.5,0c-9.814,0-17.8,7.985-17.8,17.8c0,5.092,2.161,9.679,5.6,12.927c2.138,2.018,4.77,3.506,7.697,4.273
		c1.441,0.378,2.945,0.6,4.503,0.6c1.559,0,3.062-0.222,4.503-0.6c2.748-0.721,5.234-2.076,7.297-3.91c3.671-3.264,6-8.004,6-13.29
		C98.3,7.985,90.314,0,80.5,0z M90.527,30c-2.729,2.248-6.224,3.6-10.027,3.6s-7.298-1.352-10.027-3.6
		c-0.792-0.652-1.521-1.38-2.173-2.173c-2.248-2.729-3.6-6.224-3.6-10.027c0-3.804,1.352-7.298,3.6-10.028
		C68.826,7.134,69.411,6.549,70.029,6C72.82,3.521,76.481,2,80.5,2s7.68,1.521,10.471,4c0.469,0.417,0.912,0.86,1.329,1.329
		c2.479,2.791,4,6.453,4,10.471c0,4.019-1.521,7.68-4,10.471C91.751,28.889,91.166,29.475,90.527,30z"/>
	<polygon points="82.8,9 77.8,9 76.8,10 73.3,10 73.3,11 73.3,12 87.3,12 87.3,11 87.3,10 83.8,10 	"/>
	<path d="M74.3,25c0,1.1,0.9,2,2,2h8c1.1,0,2-0.9,2-2V13h-12V25z M76.3,15h8v10h-8V15z"/>
</g>
</svg>
