<?xml version="1.0" encoding="utf-8"?>
<!-- Generator: Adobe Illustrator 16.0.0, SVG Export Plug-In . SVG Version: 6.00 Build 0)  -->
<!DOCTYPE svg PUBLIC "-//W3C//DTD SVG 1.1//EN" "http://www.w3.org/Graphics/SVG/1.1/DTD/svg11.dtd">
<svg version="1.1" id="Layer_1" xmlns="http://www.w3.org/2000/svg" xmlns:xlink="http://www.w3.org/1999/xlink" x="0px" y="0px"
	 width="40px" height="40px" viewBox="0 0 40 40" enable-background="new 0 0 40 40" xml:space="preserve">
<g>
	<path d="M35.168,4.83C34.001,3.653,32.41,2.995,30.753,3c-1.655-0.006-3.247,0.654-4.415,1.828L7.56,23.499
		c-0.109,0.107-0.194,0.241-0.248,0.391l-4.25,11.687c-0.197,0.554,0.092,1.164,0.646,1.362c0.215,0.076,0.447,0.082,0.666,0.018
		l10.57-3.242c0.166-0.052,0.316-0.142,0.439-0.265l19.784-19.787c1.178-1.168,1.838-2.759,1.832-4.416
		C37,7.578,36.352,6.009,35.168,4.83z M13.722,31.863l-3.957,1.216c-0.219-0.663-0.589-1.27-1.078-1.766
		c-0.426-0.414-0.912-0.758-1.441-1.021l1.811-4.979h2.442v2.125c0,0.588,0.478,1.063,1.063,1.063h1.873L13.722,31.863
		L13.722,31.863z M29.361,16.463L16.417,29.409l0.37-1.75c0.122-0.575-0.246-1.139-0.821-1.262
		c-0.071-0.015-0.144-0.021-0.218-0.021h-2.125v-2.125c0-0.586-0.477-1.063-1.061-1.063h-1.679l12.638-12.567l0.014,0.013
		c0.771-0.774,1.82-1.209,2.912-1.205c1.1,0,2.137,0.426,2.914,1.205c0.777,0.778,1.209,1.815,1.209,2.916
		C30.57,14.649,30.143,15.685,29.361,16.463L29.361,16.463z M33.666,12.16l-0.99,0.99c-0.091-1.516-0.734-2.944-1.809-4.018
		c-1.073-1.077-2.508-1.721-4.025-1.809l0.998-0.988V6.333c0.77-0.777,1.818-1.212,2.913-1.208c1.103,0,2.136,0.427,2.913,1.208
		c0.779,0.779,1.209,1.814,1.209,2.914C34.879,10.339,34.443,11.391,33.666,12.16z M26.688,11.811L16.06,22.435
		c-0.414,0.416-0.414,1.09,0,1.502c0.414,0.418,1.088,0.418,1.502,0.002l10.627-10.625c0.416-0.415,0.416-1.088,0-1.503
		C27.773,11.395,27.102,11.395,26.688,11.811z"/>
</g>
</svg>
