<?xml version="1.0" encoding="utf-8"?>
<!-- Generator: Adobe Illustrator 16.0.0, SVG Export Plug-In . SVG Version: 6.00 Build 0)  -->
<!DOCTYPE svg PUBLIC "-//W3C//DTD SVG 1.1//EN" "http://www.w3.org/Graphics/SVG/1.1/DTD/svg11.dtd">
<svg version="1.1" id="Layer_1" xmlns="http://www.w3.org/2000/svg" xmlns:xlink="http://www.w3.org/1999/xlink" x="0px" y="0px"
	 width="40px" height="40px" viewBox="56.814 38.808 40 40" enable-background="new 56.814 38.808 40 40" xml:space="preserve">
<g>
	<path d="M76.814,41.008c-9.814,0-17.8,7.984-17.8,17.8c0,5.092,2.161,9.679,5.6,12.927c2.138,2.018,4.77,3.506,7.697,4.273
		c1.441,0.378,2.945,0.6,4.503,0.6c1.559,0,3.062-0.222,4.503-0.6c2.748-0.721,5.234-2.076,7.297-3.91c3.671-3.264,6-8.004,6-13.29
		C94.614,48.992,86.629,41.008,76.814,41.008z M76.814,74.607c-4.908,0-9.3-2.25-12.2-5.772c-2.248-2.729-3.6-6.224-3.6-10.027
		c0-8.712,7.088-15.8,15.8-15.8s15.8,7.088,15.8,15.8c0,4.019-1.521,7.68-4,10.471C85.718,72.539,81.508,74.607,76.814,74.607z"/>
	<path d="M85.324,52.638l-0.63-0.63l-1.71-1.71c-0.389-0.39-1.02-0.39-1.409-0.001c0,0,0,0-0.001,0.001l-1.71,1.71l-0.25,0.25
		l3.75,3.75l1.96-1.96C85.714,53.659,85.714,53.029,85.324,52.638C85.325,52.639,85.325,52.639,85.324,52.638z"/>
	<path d="M68.614,63.258v3.75h3.75l10-10l-3.75-3.75L68.614,63.258z M71.534,65.008h-0.92v-0.92l8-8l0.92,0.92L71.534,65.008z"/>
</g>
</svg>
