<?xml version="1.0" encoding="utf-8"?>
<!-- Generator: Adobe Illustrator 16.0.0, SVG Export Plug-In . SVG Version: 6.00 Build 0)  -->
<!DOCTYPE svg PUBLIC "-//W3C//DTD SVG 1.1//EN" "http://www.w3.org/Graphics/SVG/1.1/DTD/svg11.dtd">
<svg version="1.1" id="Layer_1" xmlns="http://www.w3.org/2000/svg" xmlns:xlink="http://www.w3.org/1999/xlink" x="0px" y="0px"
	 width="40px" height="40px" viewBox="54.697 0.863 40 40" enable-background="new 54.697 0.863 40 40" xml:space="preserve">
<g>
	<path d="M64.468,36.082c-0.305-0.306-0.802-0.306-1.107,0l-1.433,1.432c-0.316,0.295-0.335,0.791-0.039,1.108
		c0.295,0.318,0.792,0.335,1.109,0.039c0.014-0.012,0.026-0.024,0.038-0.039l1.432-1.432c0.308-0.305,0.308-0.801,0.002-1.107
		C64.47,36.082,64.468,36.082,64.468,36.082z"/>
	<path d="M60.824,31.854H58.57c-0.482,0-0.873,0.446-0.873,0.998c0,0.553,0.391,1,0.873,1h2.254c0.481,0,0.872-0.448,0.872-1
		S61.306,31.854,60.824,31.854z"/>
	<path d="M90.809,33.057H75.208l15.97-16.111c0.693-0.704,0.693-1.835,0-2.539L80.247,3.378c-0.688-0.694-1.809-0.7-2.505-0.011
		c-0.002,0.004-0.008,0.007-0.011,0.011L60.261,21.004c-1.007,1.011-1.568,2.382-1.564,3.808c0,1.441,0.557,2.795,1.564,3.812
		l5.264,5.31c0.58,0.59,1.374,0.921,2.201,0.92h23.083c0.492-0.003,0.89-0.404,0.888-0.898C91.698,33.46,91.301,33.06,90.809,33.057
		z M67.728,33.056L67.728,33.056c-0.354,0.001-0.696-0.14-0.944-0.394l-5.264-5.309c-1.388-1.409-1.388-3.672,0-5.08l2.858-2.883
		l9.393,9.478c0.344,0.348,0.902,0.351,1.251,0.008c0.002-0.003,0.005-0.006,0.008-0.008c0.347-0.353,0.347-0.918,0-1.271
		l-9.393-9.476L78.991,4.649l10.927,11.026L72.69,33.056H67.728z"/>
</g>
</svg>
