<?xml version="1.0" encoding="utf-8"?>
<!-- Generator: Adobe Illustrator 16.0.0, SVG Export Plug-In . SVG Version: 6.00 Build 0)  -->
<!DOCTYPE svg PUBLIC "-//W3C//DTD SVG 1.1//EN" "http://www.w3.org/Graphics/SVG/1.1/DTD/svg11.dtd">
<svg version="1.1" id="Layer_1" xmlns="http://www.w3.org/2000/svg" xmlns:xlink="http://www.w3.org/1999/xlink" x="0px" y="0px"
	 width="40px" height="40px" viewBox="0 0 40 40" enable-background="new 0 0 40 40" xml:space="preserve">
<g>
	<path d="M20.001,2.2C10.187,2.2,2.2,10.185,2.2,20.001c0,5.092,2.161,9.678,5.6,12.926c2.139,2.019,4.771,3.507,7.697,4.273
		c1.441,0.378,2.945,0.6,4.504,0.6s3.062-0.222,4.502-0.6c2.748-0.721,5.234-2.076,7.297-3.91c3.672-3.264,6-8.004,6-13.289
		C37.8,10.185,29.815,2.2,20.001,2.2z M20.001,35.8c-4.908,0-9.301-2.25-12.201-5.772c-2.247-2.729-3.6-6.224-3.6-10.026
		C4.2,11.288,11.288,4.2,20.001,4.2c8.711,0,15.799,7.088,15.799,15.801c0,4.019-1.521,7.68-4,10.471
		C28.904,33.731,24.694,35.8,20.001,35.8z"/>
	<path d="M28.511,13.831L27.88,13.2l-1.709-1.71c-0.389-0.39-1.021-0.39-1.409-0.001c0,0,0,0-0.001,0.001L23.05,13.2l-0.25,0.25
		l3.75,3.75l1.961-1.96C28.9,14.852,28.9,14.222,28.511,13.831C28.512,13.831,28.512,13.831,28.511,13.831z"/>
	<path d="M11.8,24.45v3.75h3.75l10-10l-3.75-3.75L11.8,24.45z M14.721,26.2H13.8v-0.92l8-8l0.921,0.92L14.721,26.2z"/>
</g>
</svg>
