<?xml version="1.0" encoding="utf-8"?>
<!-- Generator: Adobe Illustrator 16.0.0, SVG Export Plug-In . SVG Version: 6.00 Build 0)  -->
<!DOCTYPE svg PUBLIC "-//W3C//DTD SVG 1.1//EN" "http://www.w3.org/Graphics/SVG/1.1/DTD/svg11.dtd">
<svg version="1.1" id="Layer_1" xmlns="http://www.w3.org/2000/svg" xmlns:xlink="http://www.w3.org/1999/xlink" x="0px" y="0px"
	 width="32px" height="32px" viewBox="0 0 32 32" enable-background="new 0 0 32 32" xml:space="preserve">
<g>
	<path d="M25.215,30.533C29.315,27.637,32,22.869,32,17.467c0-8.836-7.163-16-16-16c-8.837,0-16,7.164-16,16
		c0,5.402,2.685,10.17,6.786,13.066c2.667-1.694,5.822-2.69,9.214-2.69S22.548,28.839,25.215,30.533z M7.181,17.467
		c0-4.871,3.949-8.819,8.819-8.819c4.871,0,8.819,3.948,8.819,8.819c0,4.87-3.948,8.818-8.819,8.818
		C11.129,26.285,7.181,22.337,7.181,17.467z"/>
</g>
</svg>
