<?xml version="1.0" encoding="utf-8"?>
<!-- Generator: Adobe Illustrator 17.0.0, SVG Export Plug-In . SVG Version: 6.00 Build 0)  -->
<!DOCTYPE svg PUBLIC "-//W3C//DTD SVG 1.1//EN" "http://www.w3.org/Graphics/SVG/1.1/DTD/svg11.dtd">
<svg version="1.1" id="Layer_1" xmlns="http://www.w3.org/2000/svg" xmlns:xlink="http://www.w3.org/1999/xlink" x="0px" y="0px"
	 width="500px" height="500px" viewBox="0 0 500 500" enable-background="new 0 0 500 500" xml:space="preserve">
<g>
	<g>
		<path d="M343.823,500h-185.96c-57.564,0-104.38-46.831-104.38-104.395V104.38C53.483,46.816,100.299,0,157.863,0h185.96
			c57.564,0,104.395,46.816,104.395,104.38v291.224C448.218,453.169,401.387,500,343.823,500z M157.863,24.555
			c-44.013,0-79.826,35.813-79.826,79.826v291.224c0,44.013,35.813,79.811,79.826,79.811h185.96
			c44.013,0,79.811-35.798,79.811-79.811V104.38c0-44.013-35.798-79.826-79.811-79.826L157.863,24.555L157.863,24.555z"/>
	</g>
	<path d="M365.739,292.948l-5.667-5.307c-2.938-2.758-7.555-2.758-10.493,0l-13.162,12.357v-70.28
		c-0.06-46.201-37.687-83.843-83.918-83.888c-46.201,0.045-83.842,37.686-83.887,83.903v91.488c0,6.326,5.157,11.483,11.483,11.483
		s11.483-5.157,11.483-11.483v-91.488c0.03-33.564,27.358-60.907,60.922-60.937c33.579,0.044,60.892,27.357,60.922,60.907v69.085
		l-11.873-11.146c-2.938-2.758-7.495-2.758-10.493,0l-5.697,5.307c-1.529,1.439-2.428,3.478-2.428,5.607
		c0,2.099,0.869,4.137,2.428,5.607l34.958,32.8c1.469,1.379,3.358,2.069,5.247,2.069c1.889,0,3.778-0.69,5.247-2.069l34.928-32.8
		c1.559-1.469,2.428-3.478,2.428-5.607C368.168,296.426,367.299,294.387,365.739,292.948z"/>
</g>
</svg>
