<?xml version="1.0" encoding="utf-8"?>
<!-- Generator: Adobe Illustrator 17.0.0, SVG Export Plug-In . SVG Version: 6.00 Build 0)  -->
<!DOCTYPE svg PUBLIC "-//W3C//DTD SVG 1.1//EN" "http://www.w3.org/Graphics/SVG/1.1/DTD/svg11.dtd">
<svg version="1.1" id="Layer_1" xmlns="http://www.w3.org/2000/svg" xmlns:xlink="http://www.w3.org/1999/xlink" x="0px" y="0px"
	 width="500px" height="500px" viewBox="0 0 500 500" enable-background="new 0 0 500 500" xml:space="preserve">
<g>
	<g>
		<path d="M345.098,500h-185.96c-57.564,0-104.38-46.831-104.38-104.395V104.38C54.758,46.816,101.574,0,159.138,0h185.96
			c57.564,0,104.395,46.816,104.395,104.38v291.224C449.493,453.169,402.662,500,345.098,500z M159.138,24.555
			c-44.013,0-79.826,35.813-79.826,79.826v291.224c0,44.013,35.813,79.811,79.826,79.811h185.96
			c44.013,0,79.811-35.798,79.811-79.811V104.38c0-44.013-35.798-79.826-79.811-79.826L159.138,24.555L159.138,24.555z"/>
	</g>
	<g>
		<path d="M324.921,380.704h-113.78c-6.776,0-12.277-5.517-12.277-12.292c0-6.776,5.502-12.292,12.277-12.292h113.78
			c6.776,0,12.292,5.517,12.292,12.292C337.213,375.187,331.696,380.704,324.921,380.704z M355.382,257.885H211.276
			c-6.776,0-12.277-5.502-12.277-12.277c0-6.775,5.502-12.277,12.277-12.277h144.106c6.776,0,12.292,5.502,12.292,12.277
			C367.674,252.383,362.157,257.885,355.382,257.885z M392.289,135.081H211.141c-6.776,0-12.277-5.502-12.277-12.277
			c0-6.776,5.502-12.277,12.277-12.277h181.148c6.776,0,12.292,5.502,12.292,12.277C404.581,129.58,399.065,135.081,392.289,135.081
			z"/>
	</g>
	<g>
		<path d="M134.853,386.31c-1.919,0-3.823-0.72-5.307-2.129l-18.693-17.899c-3.058-2.938-3.163-7.795-0.24-10.853
			c2.938-3.058,7.81-3.118,10.853-0.24l13.387,12.832l37.402-35.858c3.058-2.908,7.915-2.848,10.853,0.24
			c2.923,3.058,2.818,7.915-0.24,10.853l-42.709,40.925C138.676,385.591,136.772,386.31,134.853,386.31z M134.853,263.507
			c-1.919,0-3.823-0.705-5.307-2.129l-18.693-17.899c-3.058-2.938-3.163-7.795-0.24-10.853c2.938-3.043,7.81-3.148,10.853-0.24
			l13.387,12.817l37.402-35.843c3.058-2.938,7.915-2.818,10.853,0.24c2.923,3.058,2.818,7.915-0.24,10.853l-42.709,40.925
			C138.676,262.802,136.772,263.507,134.853,263.507z M134.853,140.703c-1.919,0-3.823-0.705-5.307-2.129l-18.693-17.899
			c-3.058-2.938-3.163-7.795-0.24-10.853c2.938-3.043,7.81-3.163,10.853-0.24l13.387,12.817l37.402-35.843
			c3.058-2.953,7.915-2.818,10.853,0.24c2.923,3.058,2.818,7.915-0.24,10.853l-42.709,40.925
			C138.676,139.998,136.772,140.703,134.853,140.703z"/>
	</g>
</g>
</svg>
