<?xml version="1.0" encoding="utf-8"?>
<!-- Generator: Adobe Illustrator 17.0.0, SVG Export Plug-In . SVG Version: 6.00 Build 0)  -->
<!DOCTYPE svg PUBLIC "-//W3C//DTD SVG 1.1//EN" "http://www.w3.org/Graphics/SVG/1.1/DTD/svg11.dtd">
<svg version="1.1" id="Layer_1" xmlns="http://www.w3.org/2000/svg" xmlns:xlink="http://www.w3.org/1999/xlink" x="0px" y="0px"
	 width="500px" height="500px" viewBox="0 0 500 500" enable-background="new 0 0 500 500" xml:space="preserve">
<g>
	<path d="M339.774,260.917c-0.435,0-0.872,0-1.307,0.016l-2.195-61.7L225.855,313.86l118.044,99.395l-2.49-69.848
		c63.918-1.962,106.711,4.592,141.363,64.728l7.363-2.787C489.84,403.915,459.671,260.917,339.774,260.917z"/>
	<g>
		<path d="M308.962,500h-185.96c-57.564,0-104.38-46.831-104.38-104.395V104.38C18.623,46.816,65.439,0,123.003,0h185.96
			c57.564,0,104.395,46.816,104.395,104.38v291.224C413.358,453.169,366.526,500,308.962,500z M123.003,24.555
			c-44.013,0-79.826,35.813-79.826,79.826v291.224c0,44.013,35.813,79.811,79.826,79.811h185.96
			c44.013,0,79.811-35.798,79.811-79.811V104.38c0-44.013-35.798-79.826-79.811-79.826L123.003,24.555L123.003,24.555z"/>
	</g>
	<g>
		<path d="M199.304,377.624H94.373c-6.249,0-11.322-5.517-11.322-12.292c0-6.776,5.074-12.292,11.322-12.292h104.931
			c6.249,0,11.336,5.517,11.336,12.292C210.64,372.107,205.552,377.624,199.304,377.624z M227.396,254.805H94.498
			c-6.249,0-11.322-5.502-11.322-12.277c0-6.775,5.074-12.277,11.322-12.277h132.898c6.249,0,11.336,5.502,11.336,12.277
			C238.732,249.303,233.644,254.805,227.396,254.805z M261.432,132.001H94.373c-6.249,0-11.322-5.502-11.322-12.277
			c0-6.776,5.074-12.277,11.322-12.277h167.059c6.249,0,11.336,5.502,11.336,12.277C272.768,126.5,267.681,132.001,261.432,132.001z
			"/>
	</g>
</g>
</svg>
