<?xml version="1.0" encoding="utf-8"?>
<!-- Generator: Adobe Illustrator 16.0.0, SVG Export Plug-In . SVG Version: 6.00 Build 0)  -->
<!DOCTYPE svg PUBLIC "-//W3C//DTD SVG 1.1//EN" "http://www.w3.org/Graphics/SVG/1.1/DTD/svg11.dtd">
<svg version="1.1" id="Layer_1" xmlns="http://www.w3.org/2000/svg" xmlns:xlink="http://www.w3.org/1999/xlink" x="0px" y="0px"
	 width="32px" height="32px" viewBox="0 0 32 32" enable-background="new 0 0 32 32" xml:space="preserve">
<g>
	<g>
		<path fill="#262B56" d="M15.995,18.77c0,0,0.001,0,0.004,0c2.891,0.005,5.242-2.334,5.251-5.226c0,0,0-0.003,0-0.004
			c-0.007-2.891-2.358-5.233-5.251-5.227c-0.001,0-0.001,0-0.001,0c-1.575-0.006-2.976,0.701-3.935,1.801
			c-0.805,0.919-1.312,2.106-1.313,3.423c0,0,0,0,0,0.001c0.001,1.32,0.508,2.505,1.313,3.43
			C13.024,18.062,14.42,18.771,15.995,18.77z M13.243,13.539c0-1.516,1.235-2.745,2.756-2.745c1.519,0,2.757,1.229,2.757,2.745
			c0,1.518-1.236,2.745-2.757,2.745C14.48,16.286,13.247,15.06,13.243,13.539C13.243,13.541,13.243,13.541,13.243,13.539z"/>
		<path fill="#262B56" d="M15.999,20.073c-1.08,0-2.498,0.169-3.935,0.505c-3.219,0.744-6.56,2.321-6.56,4.727V33h6.56h14.433
			v-7.695C26.495,21.828,19.506,20.073,15.999,20.073z M24,30.516H12.064H7.998v-5.211c0-0.55,1.765-1.545,4.066-2.176
			c1.219-0.334,2.584-0.572,3.935-0.572c3.899,0,8.001,1.909,8.001,2.746V30.516z"/>
	</g>
</g>
</svg>
