<?xml version="1.0" encoding="utf-8"?>
<!-- Generator: Adobe Illustrator 16.0.0, SVG Export Plug-In . SVG Version: 6.00 Build 0)  -->
<!DOCTYPE svg PUBLIC "-//W3C//DTD SVG 1.1//EN" "http://www.w3.org/Graphics/SVG/1.1/DTD/svg11.dtd">
<svg version="1.1" id="Layer_1" xmlns="http://www.w3.org/2000/svg" xmlns:xlink="http://www.w3.org/1999/xlink" x="0px" y="0px"
	 width="590.061px" height="165.199px" viewBox="2.609 338.346 590.061 165.199"
	 enable-background="new 2.609 338.346 590.061 165.199" xml:space="preserve">
<title>1E11FB30-AC51-49F8-AD7B-C8DDD6456213</title>
<desc>Created with sketchtool.</desc>
<g id="Clip-446">
</g>
<g>
	<g>
		<path fill="#FFFFFF" d="M561.08,486.764c-0.083,0-0.172-0.031-0.235-0.09l-26.498-24.055c-0.129-0.121-0.152-0.314-0.05-0.459
			c0.101-0.146,0.294-0.189,0.451-0.104L549.299,470l5.083-27.746c0.029-0.162,0.173-0.283,0.341-0.283h0.008
			c0.171,0.002,0.311,0.131,0.338,0.297l6.355,44.1c0.021,0.145-0.054,0.285-0.183,0.355
			C561.191,486.75,561.136,486.764,561.08,486.764 M536.975,464.063l23.621,21.445l-5.916-41.037l-4.782,26.127
			c-0.022,0.107-0.093,0.203-0.194,0.252c-0.101,0.045-0.221,0.045-0.317-0.01L536.975,464.063z"/>
		<path fill="#FFFFFF" d="M478.074,470.881c-0.16,0-0.311-0.115-0.339-0.283l-5.104-27.459l-7.7,14.109
			c-0.061,0.115-0.156,0.176-0.313,0.184c-0.127-0.004-0.245-0.076-0.303-0.193l-8.636-16.949c-0.068-0.135-0.041-0.303,0.071-0.408
			l12.403-11.652c0.139-0.131,0.358-0.125,0.49,0.016c0.133,0.141,0.128,0.361-0.014,0.49l-12.214,11.473l8.219,16.133l7.853-14.391
			c0.072-0.131,0.218-0.197,0.361-0.178c0.144,0.023,0.258,0.135,0.285,0.281l5.283,28.418c0.035,0.189-0.09,0.369-0.276,0.406
			C478.118,470.881,478.097,470.881,478.074,470.881"/>
		<path fill="#FFFFFF" d="M495.026,479.518c-0.051,0-0.106-0.01-0.157-0.035l-16.949-8.637c-0.136-0.072-0.215-0.223-0.184-0.375
			l3.144-16.762c0.036-0.189,0.219-0.311,0.405-0.277c0.188,0.037,0.311,0.217,0.278,0.406l-3.097,16.506l16.716,8.518
			c0.172,0.088,0.24,0.297,0.154,0.467C495.274,479.449,495.151,479.518,495.026,479.518"/>
		<path fill="#FFFFFF" d="M563.006,457.432c-0.054,0-0.106-0.012-0.158-0.039c-0.172-0.086-0.239-0.295-0.15-0.467l8.559-16.799
			l-12.334-25.705c-0.059-0.132-0.035-0.29,0.068-0.396c0.104-0.101,0.26-0.133,0.394-0.071l14.79,6.794l-2.875-18.139
			c-0.028-0.189,0.102-0.368,0.291-0.396c0.186-0.032,0.365,0.097,0.396,0.286l2.975,18.781c0.02,0.127-0.031,0.254-0.132,0.333
			c-0.104,0.08-0.24,0.092-0.357,0.037l-14.506-6.66l11.989,24.992c0.049,0.096,0.044,0.211-0.004,0.307l-8.634,16.953
			C563.252,457.363,563.132,457.432,563.006,457.432"/>
		<path fill="#FFFFFF" d="M466.552,486.746c-0.056,0-0.11-0.014-0.163-0.041c-0.128-0.068-0.203-0.211-0.183-0.357l6.217-44.115
			l-19.662-20.656c-0.114-0.123-0.128-0.309-0.031-0.444c0.097-0.134,0.278-0.185,0.43-0.112l14.886,6.916l0.022-13.896
			l-3.788-28.387c-0.027-0.189,0.109-0.367,0.299-0.393c0.186-0.037,0.366,0.11,0.389,0.3l3.794,28.433l-0.024,14.488
			c0,0.121-0.06,0.23-0.158,0.297c-0.1,0.061-0.225,0.07-0.335,0.021l-13.717-6.379l18.518,19.455
			c0.074,0.076,0.106,0.186,0.093,0.289l-6.104,43.322L492.601,462c0.141-0.127,0.36-0.119,0.491,0.021
			c0.13,0.143,0.121,0.361-0.021,0.494l-26.286,24.137C466.719,486.715,466.636,486.746,466.552,486.746"/>
		<path fill="#FFFFFF" d="M481.38,389.1c-0.018,0-0.038,0-0.051,0c-0.146-0.021-0.265-0.132-0.29-0.277l-3.304-16.604
			c-0.038-0.187,0.083-0.369,0.272-0.407c0.183-0.039,0.369,0.085,0.409,0.274l3.114,15.653l13.189-24.388
			c0.051-0.097,0.144-0.161,0.25-0.182l18.485-2.929l0.022-19.312c0-0.192,0.157-0.347,0.348-0.347h0.004
			c0.189,0,0.344,0.157,0.344,0.35l-0.026,19.608c0,0.172-0.124,0.315-0.296,0.344l-18.604,2.948l-13.563,25.086
			C481.624,389.034,481.505,389.1,481.38,389.1"/>
		<path fill="#FFFFFF" d="M493.039,380.674c-0.093,0-0.186-0.035-0.254-0.104c-0.13-0.14-0.126-0.361,0.014-0.494l20.763-19.79
			c0.139-0.127,0.356-0.123,0.489,0.017c0.134,0.138,0.13,0.358-0.01,0.49l-20.763,19.789
			C493.21,380.643,493.124,380.674,493.039,380.674"/>
		<path fill="#FFFFFF" d="M546.398,389.263c-0.12,0-0.24-0.065-0.303-0.185l-3.755-6.908l-7.619-1.396
			c-0.147-0.028-0.264-0.147-0.283-0.297l-2.181-16.918c-0.018-0.164,0.079-0.322,0.243-0.375c0.16-0.049,0.332,0.02,0.408,0.168
			l9.884,18.192l19.179,3.518l-12.661-12.664c-0.14-0.136-0.14-0.354,0-0.493c0.134-0.134,0.354-0.134,0.491,0l13.451,13.452
			c0.105,0.11,0.133,0.277,0.062,0.41c-0.071,0.136-0.216,0.202-0.369,0.18l-19.724-3.616l3.483,6.417
			c0.093,0.168,0.031,0.382-0.14,0.472C546.511,389.248,546.457,389.263,546.398,389.263 M535.096,380.134l6.815,1.249
			l-8.725-16.063L535.096,380.134z"/>
		<path fill="#FFFFFF" d="M513.801,482.496c-0.133,0-0.258-0.076-0.314-0.199l-7.296-15.412c-0.064-0.131-0.033-0.289,0.068-0.393
			c0.106-0.104,0.265-0.131,0.396-0.068l26.1,12.434c0.136,0.066,0.215,0.211,0.193,0.365c-0.022,0.148-0.14,0.268-0.291,0.291
			l-18.8,2.977C513.835,482.492,513.818,482.496,513.801,482.496 M507.237,467.471l6.766,14.293l17.439-2.762L507.237,467.471z"/>
		<path fill="#FFFFFF" d="M464.623,385.951c-0.089,0-0.178-0.029-0.245-0.101c-0.134-0.135-0.134-0.354,0-0.489l13.451-13.456
			c0.135-0.134,0.357-0.134,0.491,0c0.136,0.137,0.136,0.358,0,0.493l-13.45,13.452
			C464.803,385.921,464.716,385.951,464.623,385.951"/>
		<path fill="#FFFFFF" d="M468.391,415.207c-0.088,0-0.179-0.031-0.244-0.101l-12.382-12.278c-0.075-0.077-0.11-0.188-0.097-0.297
			c0.014-0.106,0.084-0.203,0.176-0.257l23.507-12.813l-42.047,7.375c-0.183,0.039-0.368-0.09-0.401-0.282
			c-0.034-0.188,0.095-0.366,0.284-0.401l44.133-7.739c0.168-0.035,0.332,0.065,0.389,0.227c0.058,0.16-0.014,0.336-0.163,0.421
			l-24.957,13.602l12.048,11.949c0.136,0.137,0.136,0.356,0,0.494C468.569,415.175,468.482,415.207,468.391,415.207"/>
		<path fill="#FFFFFF" d="M453.012,421.682c-0.086,0-0.172-0.031-0.237-0.094c-0.142-0.131-0.147-0.352-0.014-0.493l19.741-20.939
			c0.136-0.141,0.353-0.147,0.494-0.018c0.138,0.132,0.145,0.353,0.015,0.493l-19.748,20.945
			C453.198,421.646,453.105,421.682,453.012,421.682"/>
		<path fill="#FFFFFF" d="M464.623,457.432c-0.164,0-0.307-0.115-0.34-0.279c-0.035-0.189,0.083-0.371,0.272-0.41l16.598-3.309
			c0.185-0.039,0.369,0.084,0.405,0.273c0.039,0.189-0.082,0.369-0.269,0.406l-16.599,3.311
			C464.669,457.428,464.645,457.432,464.623,457.432"/>
		<path fill="#FFFFFF" d="M513.8,482.496c-0.089,0-0.172-0.035-0.238-0.098l-11.219-10.641l-7.064,7.65
			c-0.088,0.1-0.229,0.135-0.356,0.094c-0.129-0.041-0.226-0.152-0.243-0.285l-2.187-16.914c-0.02-0.148,0.056-0.289,0.188-0.354
			c0.13-0.068,0.288-0.045,0.395,0.057l9.238,8.762l3.938-4.266c0.133-0.141,0.351-0.15,0.494-0.021
			c0.138,0.133,0.147,0.352,0.018,0.494l-3.947,4.271l10.875,10.316l6.869-14.936c0.083-0.174,0.29-0.248,0.462-0.168
			c0.176,0.078,0.251,0.285,0.172,0.459l-7.076,15.375c-0.048,0.1-0.141,0.176-0.251,0.197
			C513.844,482.49,513.824,482.496,513.8,482.496 M493.305,463.184l1.969,15.203l6.567-7.109L493.305,463.184z"/>
		<path fill="#FFFFFF" d="M532.605,479.518c-0.008,0-0.018,0-0.026,0c-0.193-0.016-0.336-0.186-0.321-0.375l1.398-16.811
			c0.012-0.16,0.127-0.283,0.281-0.314l13.087-2.381l-1.125-5.635c-0.022-0.115,0.011-0.229,0.093-0.313
			c0.08-0.084,0.193-0.121,0.312-0.098l16.768,3.15c0.164,0.031,0.285,0.176,0.283,0.342c0,0.168-0.119,0.313-0.284,0.34
			l-15.225,2.771l2.048,10.27c0.04,0.191-0.084,0.373-0.272,0.412c-0.184,0.035-0.368-0.086-0.406-0.275l-2.056-10.281
			l-12.833,2.334l-1.373,16.545C532.935,479.381,532.786,479.518,532.605,479.518 M546.682,454.371l1.025,5.141l13.387-2.436
			L546.682,454.371z"/>
		<path fill="#FFFFFF" d="M590.292,446.539c-0.035,0-0.071-0.004-0.103-0.014l-19.512-6.037l-15.909,2.174
			c-0.146,0.016-0.286-0.055-0.357-0.186c-0.065-0.129-0.043-0.291,0.058-0.398l18.614-19.631l-13.733,6.516
			c-0.172,0.078-0.382,0.008-0.463-0.168c-0.079-0.172-0.009-0.379,0.166-0.463l15.415-7.312c0.153-0.072,0.333-0.025,0.43,0.11
			c0.101,0.137,0.089,0.323-0.026,0.446l-19.215,20.264l15.004-2.051c0.046-0.006,0.102-0.006,0.148,0.014l19.584,6.061
			c0.186,0.057,0.287,0.25,0.229,0.43C590.578,446.449,590.44,446.539,590.292,446.539"/>
		<path fill="#FFFFFF" d="M571.643,402.903c-0.057,0-0.113-0.017-0.165-0.042l-13.516-7.303l-2.832,5.181
			c-0.093,0.171-0.304,0.232-0.472,0.14s-0.229-0.305-0.137-0.477l2.831-5.174l-11.12-6.009c-0.133-0.071-0.202-0.22-0.176-0.369
			l3.157-16.763c0.036-0.187,0.217-0.314,0.406-0.276c0.188,0.036,0.313,0.218,0.277,0.407l-3.11,16.51l10.896,5.887l5.018-9.177
			c0.062-0.113,0.203-0.152,0.309-0.181c0.132,0.003,0.249,0.075,0.308,0.189l8.634,16.951c0.07,0.134,0.043,0.299-0.067,0.405
			C571.819,402.869,571.731,402.903,571.643,402.903 M558.297,394.947l12.53,6.772l-7.833-15.371L558.297,394.947z"/>
		<path fill="#FFFFFF" d="M559.24,414.619c-0.015,0-0.031,0-0.049-0.003c-0.189-0.024-0.321-0.2-0.295-0.39l3.767-28.666
			c0.021-0.192,0.197-0.322,0.387-0.3c0.193,0.024,0.326,0.2,0.3,0.39l-3.766,28.666
			C559.562,414.491,559.411,414.619,559.24,414.619"/>
		<path fill="#FFFFFF" d="M506.752,376.332c-0.094,0-0.187-0.038-0.251-0.11l-11.729-12.465c-0.132-0.14-0.123-0.361,0.015-0.493
			c0.14-0.13,0.36-0.125,0.492,0.014l11.553,12.283l11.16-5.382l-4.505-9.489c-0.058-0.117-0.04-0.254,0.035-0.358
			c0.078-0.103,0.207-0.15,0.33-0.133l18.809,2.977c0.147,0.023,0.266,0.143,0.288,0.292c0.021,0.154-0.058,0.295-0.191,0.365
			l-13.846,6.673l2.519,5.299c0.08,0.172,0.006,0.382-0.166,0.465c-0.176,0.082-0.384,0.007-0.463-0.165l-2.513-5.295l-11.386,5.491
			C506.854,376.323,506.801,376.332,506.752,376.332 M514.399,360.986l4.217,8.892l12.836-6.191L514.399,360.986z"/>
		<path fill="#FFFFFF" d="M534.783,380.778c-0.086,0-0.172-0.031-0.24-0.094l-20.981-19.892c-0.141-0.132-0.145-0.353-0.016-0.489
			c0.134-0.141,0.354-0.145,0.494-0.015l20.983,19.891c0.139,0.13,0.143,0.35,0.012,0.491
			C534.968,380.743,534.876,380.778,534.783,380.778"/>
		<path fill="#FFFFFF" d="M513.801,502.105L513.801,502.105c-0.104,0-0.204-0.047-0.269-0.127L494.9,479.561l-28.262,7.174
			c-0.104,0.025-0.21,0.004-0.291-0.055c-0.084-0.063-0.134-0.154-0.144-0.26l-1.911-29.096l-27.177-10.807
			c-0.097-0.039-0.169-0.117-0.202-0.215c-0.031-0.102-0.018-0.207,0.037-0.295l15.652-24.672l-15.652-24.654
			c-0.055-0.089-0.068-0.194-0.037-0.292c0.033-0.101,0.105-0.18,0.202-0.218l27.177-10.808l1.91-29.1
			c0.007-0.101,0.059-0.198,0.143-0.26c0.083-0.059,0.189-0.081,0.291-0.054l28.264,7.176l18.66-22.416
			c0.068-0.08,0.165-0.127,0.267-0.127c0.104,0,0.203,0.047,0.269,0.127l18.638,22.416l28.262-7.176
			c0.101-0.025,0.21-0.005,0.289,0.054c0.083,0.062,0.137,0.159,0.141,0.26l1.914,29.1l27.081,10.82
			c0.097,0.039,0.17,0.118,0.203,0.215c0.03,0.102,0.018,0.207-0.035,0.295l-15.558,24.642l15.558,24.672
			c0.053,0.088,0.065,0.193,0.035,0.295c-0.033,0.098-0.106,0.176-0.203,0.215l-27.081,10.807l-1.914,29.115
			c-0.004,0.102-0.058,0.195-0.141,0.258c-0.084,0.059-0.192,0.08-0.289,0.055l-28.262-7.191l-18.664,22.418
			C514.002,502.059,513.905,502.105,513.801,502.105 M495.026,478.82c0.101,0,0.2,0.047,0.269,0.129l18.507,22.262l18.535-22.262
			c0.086-0.104,0.225-0.15,0.354-0.115l28.068,7.141l1.9-28.914c0.01-0.135,0.093-0.248,0.217-0.301l26.9-10.734l-15.452-24.504
			c-0.072-0.114-0.072-0.258,0-0.372l15.452-24.474l-26.899-10.75c-0.122-0.05-0.208-0.165-0.218-0.299l-1.9-28.9l-28.068,7.127
			c-0.13,0.035-0.269-0.012-0.354-0.115l-18.51-22.262l-18.532,22.262c-0.086,0.104-0.223,0.15-0.354,0.115l-28.071-7.127
			l-1.897,28.9c-0.01,0.134-0.096,0.249-0.219,0.302l-26.989,10.734l15.542,24.485c0.072,0.114,0.072,0.259,0,0.373l-15.542,24.504
			l26.989,10.734c0.126,0.049,0.209,0.166,0.219,0.301l1.897,28.896l28.071-7.123C494.971,478.826,494.996,478.82,495.026,478.82"/>
		<path fill="#FFFFFF" d="M464.623,385.951c-0.166,0-0.309-0.114-0.34-0.282c-0.038-0.188,0.089-0.373,0.277-0.404l27.454-5.099
			l-14.104-7.707c-0.046-0.024-0.089-0.061-0.117-0.103l-11.528-15.865c-0.11-0.155-0.075-0.372,0.079-0.483
			c0.154-0.113,0.372-0.079,0.484,0.076l11.482,15.802l14.892,8.138c0.133,0.07,0.201,0.215,0.179,0.361
			c-0.024,0.145-0.139,0.259-0.282,0.286l-28.415,5.276C464.667,385.951,464.645,385.951,464.623,385.951"/>
		<path fill="#FFFFFF" d="M549.898,428.313c-0.838-0.482-2.381-1.275-4.503-1.949c-3.058-0.977-7.32-1.705-12.373-0.908
			c-1.698,0.273-3.496,0.719-5.356,1.385c-0.179,0.064-0.356,0.127-0.535,0.193c-0.947,0.355-1.894,0.785-2.838,1.264
			c-0.809,0.41-1.614,0.855-2.421,1.34c-1.825,1.1-3.635,2.365-5.391,3.711c-1.999-12.095-1.025-23.321-0.561-28.837
			c0.003-0.028,0.04-0.046,0.066-0.028c4.276,2.695,3.079,10.227,2.182,12.381c-0.019,0.04,0.047,0.068,0.078,0.034
			c5.324-6.307,2.722-13.266,1.629-15.032c-0.025-0.035,0.031-0.074,0.067-0.043c0.771,0.623,1.4,1.287,1.929,1.963
			c1.654,2.111,2.256,4.388,2.421,6.396c0.087,1.061,0.059,2.048,0,2.893c-0.019,0.226-0.034,0.44-0.051,0.646
			c0,0.029,0.025,0.037,0.051,0.033c0.011-0.004,0.021-0.004,0.028-0.016c1.436-2.826,2.13-7.107-0.028-11.261
			c-0.584-1.123-1.378-2.237-2.421-3.317c-0.3-0.308-0.617-0.616-0.962-0.92c-0.033-0.025-0.006-0.083,0.036-0.071
			c0.322,0.075,0.626,0.168,0.926,0.274c0.911,0.316,1.713,0.753,2.421,1.274c1.615,1.196,2.714,2.837,3.373,4.548
			c0.54,1.414,0.795,2.872,0.782,4.162c0,0.051,0.068,0.056,0.08,0.01c0.998-3.69,0.404-6.475-0.862-8.511
			c-0.9-1.448-2.141-2.519-3.373-3.263c-0.845-0.507-1.686-0.864-2.421-1.084c-0.428-0.128-0.823-0.215-1.154-0.255
			c-0.048-0.007-0.04-0.075,0.007-0.085c0.397-0.036,0.781-0.057,1.147-0.061c0.9-0.019,1.695,0.061,2.421,0.197
			c1.425,0.265,2.534,0.77,3.373,1.338c1.354,0.917,2.032,1.987,2.262,2.424c0.021,0.04,0.083,0.014,0.083-0.03
			c-0.193-1.946-1.094-3.471-2.345-4.563c-0.967-0.844-2.146-1.436-3.373-1.774c-0.801-0.226-1.619-0.34-2.421-0.348
			c-1.084-0.014-2.128,0.165-3.02,0.538c-0.037,0.018-0.068-0.028-0.047-0.059c0.783-1.128,1.895-1.821,3.066-2.18
			c0.811-0.247,1.642-0.332,2.421-0.285c0.744,0.042,1.432,0.206,1.98,0.465c0.042,0.018,0.078-0.03,0.047-0.065
			c-0.605-0.697-1.294-1.242-2.027-1.65c-0.773-0.429-1.593-0.697-2.421-0.786c-2.161-0.248-4.355,0.669-5.823,2.889
			c-0.018,0.027-0.053,0.027-0.07,0c-0.282-0.501-0.551-1.058-0.804-1.642c-0.586-1.356-1.07-2.892-1.322-4.407
			c-0.006-0.041-0.065-0.041-0.072,0c-0.254,1.523-0.741,3.063-1.328,4.424c-0.251,0.582-0.52,1.133-0.798,1.625
			c-0.012,0.027-0.05,0.027-0.069,0c-2.559-3.875-7.355-3.8-10.272-0.452c-0.029,0.035,0.006,0.083,0.047,0.065
			c1.945-0.925,5.63-0.654,7.469,2c0.022,0.03-0.01,0.076-0.049,0.059c-2.846-1.195-7.241-0.416-9.587,2.381
			c-0.84,0.996-1.42,2.251-1.567,3.767c-0.007,0.044,0.057,0.07,0.076,0.03c0.188-0.344,0.644-1.078,1.491-1.827
			c1.368-1.208,3.764-2.44,7.718-2.071c0.046,0.01,0.055,0.078,0.004,0.085c-2.024,0.251-6.187,2.059-7.722,6.19
			c-0.684,1.829-0.852,4.112-0.09,6.922c0.011,0.046,0.083,0.041,0.083-0.01c0-0.062,0.007-0.122,0.007-0.189
			c0.037-3.756,2.188-8.786,7.495-10.069c0.041-0.012,0.069,0.046,0.037,0.071c-5.938,5.233-5.349,11.687-3.411,15.498
			c0.021,0.041,0.083,0.023,0.079-0.018c-0.258-2.885-0.467-8.023,4.299-11.898c0.035-0.031,0.09,0.008,0.068,0.043
			c-1.1,1.767-3.698,8.726,1.628,15.032c0.025,0.034,0.097,0.006,0.076-0.034c-0.896-2.154-2.095-9.686,2.183-12.381
			c0.021-0.018,0.062,0,0.062,0.028c0.468,5.517,1.441,16.742-0.553,28.837c-3.438-2.633-7.063-4.957-10.652-6.314
			c-0.444-0.168-0.881-0.318-1.311-0.459c-3.705-1.219-7.102-1.563-10.062-1.436c-4.758,0.207-8.391,1.635-10.389,2.633
			c-0.403,0.203-0.741,0.389-1.01,0.541c-0.106,0.061-0.03,0.217,0.087,0.182c0.309-0.098,0.619-0.186,0.923-0.268
			c3.655-1.035,7.117-1.313,10.389-1.027c3.573,0.314,6.923,1.299,10.062,2.713c4.398,1.986,8.385,4.814,11.975,7.811
			c-5.069,4.436-9.369,8.748-11.975,10.262c-0.129,0.076-0.264,0.148-0.383,0.213c-0.623-0.855-1.707-1.348-2.895-1.094
			c-1.028,0.23-1.866,1.053-2.103,2.08c-0.207,0.918,0.033,1.906,0.551,2.422c1.383,1.389,2.989,1.48,4.829,0.705
			c3.512-1.479,7.887-6.137,13.26-11.063c0.446-0.408,0.898-0.818,1.366-1.234c0.458,0.408,0.907,0.822,1.356,1.23
			c2.432,2.23,4.658,4.402,6.697,6.258c0.839,0.766,1.642,1.467,2.421,2.102c1.199,0.979,2.323,1.789,3.373,2.342
			c2.055,1.088,3.83,1.219,5.356-0.115c0.081-0.074,0.165-0.141,0.248-0.225c0.348-0.348,0.753-1.504,0.547-2.422
			c-0.121-0.529-0.406-1.004-0.795-1.375c-0.364-0.342-0.811-0.59-1.306-0.705c-1.186-0.254-2.271,0.238-2.893,1.094
			c-0.35-0.18-0.743-0.42-1.158-0.709c-0.963-0.664-2.099-1.604-3.373-2.723c-0.759-0.67-1.567-1.4-2.421-2.174
			c-1.656-1.508-3.475-3.178-5.408-4.869c1.712-1.426,3.514-2.814,5.408-4.096c0.793-0.533,1.599-1.049,2.421-1.539
			c1.095-0.654,2.217-1.26,3.373-1.811c1.718-0.826,3.504-1.525,5.356-2.051c3.834-1.102,7.952-1.48,12.373-0.773
			c1.441,0.229,2.913,0.566,4.414,1.041C549.926,428.529,550.002,428.373,549.898,428.313"/>
		<path fill="#FFFFFF" d="M496.018,380.43c0,1.645-1.333,2.982-2.981,2.982c-1.645,0-2.979-1.338-2.979-2.982
			c0-1.646,1.335-2.98,2.979-2.98C494.685,377.45,496.018,378.785,496.018,380.43"/>
		<path fill="#FFFFFF" d="M482.655,388.752c0,0.705-0.569,1.278-1.271,1.278c-0.705,0-1.278-0.573-1.278-1.278
			c0-0.7,0.573-1.273,1.278-1.273C482.085,387.479,482.655,388.052,482.655,388.752"/>
		<path fill="#FFFFFF" d="M517.105,482.146c0,1.811-1.467,3.277-3.278,3.277c-1.806,0-3.277-1.467-3.277-3.277
			c0-1.809,1.472-3.277,3.277-3.277C515.638,478.869,517.105,480.338,517.105,482.146"/>
		<path fill="#FFFFFF" d="M515.555,501.756c0,0.986-0.799,1.789-1.786,1.789c-0.988,0-1.788-0.803-1.788-1.789
			c0-0.988,0.8-1.787,1.788-1.787C514.756,499.969,515.555,500.768,515.555,501.756"/>
		<path fill="#FFFFFF" d="M456.289,421.335c0,1.807-1.467,3.278-3.277,3.278s-3.276-1.471-3.276-3.278
			c0-1.811,1.466-3.275,3.276-3.275S456.289,419.525,456.289,421.335"/>
		<path fill="#FFFFFF" d="M474.74,442.113c0,1.098-0.89,1.984-1.982,1.984c-1.096,0-1.98-0.887-1.98-1.984
			c0-1.092,0.885-1.982,1.98-1.982C473.85,440.131,474.74,441.021,474.74,442.113"/>
		<path fill="#FFFFFF" d="M557.328,400.57c0,1.383-1.119,2.506-2.502,2.506s-2.502-1.123-2.502-2.506
			c0-1.381,1.119-2.499,2.502-2.499S557.328,399.189,557.328,400.57"/>
		<path fill="#FFFFFF" d="M536.921,363.517c0,2.385-1.933,4.317-4.317,4.317c-2.387,0-4.317-1.933-4.317-4.317
			c0-2.384,1.931-4.319,4.317-4.319C534.989,359.198,536.921,361.133,536.921,363.517"/>
		<path fill="#FFFFFF" d="M508.073,466.771c0,0.674-0.545,1.219-1.22,1.219c-0.67,0-1.215-0.545-1.215-1.219
			c0-0.67,0.545-1.217,1.215-1.217C507.529,465.555,508.073,466.102,508.073,466.771"/>
		<path fill="#FFFFFF" d="M561.291,428.709c0,1.135-0.92,2.055-2.055,2.055c-1.134,0-2.052-0.92-2.052-2.055
			s0.918-2.055,2.052-2.055C560.371,426.654,561.291,427.574,561.291,428.709"/>
		<path fill="#FFFFFF" d="M534.741,479.17c0,1.18-0.956,2.135-2.137,2.135s-2.137-0.955-2.137-2.135s0.956-2.135,2.137-2.135
			S534.741,477.99,534.741,479.17"/>
		<path fill="#FFFFFF" d="M469.635,414.163c0,0.765-0.616,1.384-1.383,1.384c-0.762,0-1.384-0.619-1.384-1.384
			c0-0.763,0.622-1.383,1.384-1.383C469.019,412.78,469.635,413.4,469.635,414.163"/>
		<path fill="#FFFFFF" d="M439.821,446.088c0,1.418-1.153,2.574-2.577,2.574c-1.422,0-2.574-1.156-2.574-2.574
			c0-1.424,1.152-2.578,2.574-2.578C438.667,443.51,439.821,444.664,439.821,446.088"/>
		<path fill="#FFFFFF" d="M482.809,453.773c0,0.877-0.709,1.59-1.59,1.59c-0.877,0-1.588-0.713-1.588-1.59s0.711-1.586,1.588-1.586
			C482.1,452.188,482.809,452.896,482.809,453.773"/>
		<path fill="#FFFFFF" d="M497.357,479.17c0,1.289-1.043,2.334-2.329,2.334c-1.288,0-2.335-1.045-2.335-2.334
			c0-1.287,1.047-2.33,2.335-2.33C496.314,476.84,497.357,477.883,497.357,479.17"/>
		<path fill="#FFFFFF" d="M469.976,356.287c0,1.894-1.535,3.426-3.424,3.426c-1.894,0-3.429-1.532-3.429-3.426
			c0-1.89,1.535-3.427,3.429-3.427C468.441,352.86,469.976,354.397,469.976,356.287"/>
		<path fill="#FFFFFF" d="M457.891,440.131c0,0.887-0.716,1.604-1.602,1.604s-1.602-0.717-1.602-1.604
			c0-0.879,0.716-1.598,1.602-1.598S457.891,439.252,457.891,440.131"/>
		<path fill="#FFFFFF" d="M479.911,470.533c0,1.014-0.825,1.838-1.835,1.838c-1.016,0-1.834-0.824-1.834-1.838
			s0.818-1.834,1.834-1.834C479.086,468.699,479.911,469.52,479.911,470.533"/>
		<path fill="#FFFFFF" d="M547.768,388.752c0,0.757-0.609,1.369-1.367,1.369c-0.753,0-1.368-0.612-1.368-1.369
			c0-0.754,0.615-1.365,1.368-1.365C547.158,387.387,547.768,387.999,547.768,388.752"/>
		<path fill="#FFFFFF" d="M578.547,421.35c0,2.171-1.76,3.929-3.929,3.929c-2.17,0-3.927-1.758-3.927-3.929
			c0-2.169,1.757-3.928,3.927-3.928C576.787,417.422,578.547,419.181,578.547,421.35"/>
		<path fill="#FFFFFF" d="M523.615,375.953c0,1.383-1.121,2.502-2.502,2.502c-1.383,0-2.502-1.119-2.502-2.502
			c0-1.382,1.119-2.502,2.502-2.502C522.494,373.451,523.615,374.571,523.615,375.953"/>
		<path fill="#FFFFFF" d="M572.95,440.131c0,0.723-0.588,1.309-1.308,1.309c-0.723,0-1.309-0.586-1.309-1.309
			c0-0.719,0.586-1.305,1.309-1.305C572.363,438.826,572.95,439.412,572.95,440.131"/>
		<path fill="#FFFFFF" d="M498.451,363.517c0,1.891-1.535,3.424-3.424,3.424c-1.895,0-3.429-1.533-3.429-3.424
			c0-1.893,1.534-3.43,3.429-3.43C496.916,360.087,498.451,361.625,498.451,363.517"/>
		<path fill="#FFFFFF" d="M535.648,462.256c0,0.775-0.624,1.404-1.4,1.404c-0.774,0-1.404-0.629-1.404-1.404s0.63-1.4,1.404-1.4
			C535.024,460.855,535.648,461.48,535.648,462.256"/>
		<path fill="#FFFFFF" d="M564.653,385.603c0,0.912-0.74,1.646-1.646,1.646c-0.909,0-1.645-0.733-1.645-1.646
			c0-0.908,0.735-1.643,1.645-1.643C563.912,383.96,564.653,384.695,564.653,385.603"/>
		<path fill="#FFFFFF" d="M467.451,385.603c0,1.564-1.266,2.828-2.827,2.828c-1.563,0-2.827-1.264-2.827-2.828
			c0-1.56,1.264-2.823,2.827-2.823C466.186,382.78,467.451,384.043,467.451,385.603"/>
		<path fill="#FFFFFF" d="M549.065,453.936c0,1.561-1.265,2.824-2.822,2.824c-1.564,0-2.828-1.264-2.828-2.824
			c0-1.564,1.264-2.828,2.828-2.828C547.8,451.107,549.065,452.371,549.065,453.936"/>
		<path fill="#FFFFFF" d="M458.366,402.27c0,1.313-1.063,2.378-2.377,2.378c-1.316,0-2.378-1.064-2.378-2.378
			c0-1.313,1.062-2.378,2.378-2.378C457.303,399.892,458.366,400.958,458.366,402.27"/>
		<path fill="#FFFFFF" d="M592.67,396.507c0,1.313-1.066,2.38-2.381,2.38c-1.313,0-2.376-1.066-2.376-2.38
			c0-1.311,1.063-2.377,2.376-2.377C591.604,394.13,592.67,395.197,592.67,396.507"/>
		<path fill="#FFFFFF" d="M562.394,356.287c0,0.727-0.591,1.317-1.314,1.317c-0.726,0-1.313-0.591-1.313-1.317
			c0-0.725,0.588-1.313,1.313-1.313C561.803,354.973,562.394,355.562,562.394,356.287"/>
		<path fill="#FFFFFF" d="M550.611,470.533c0,0.584-0.471,1.057-1.057,1.057c-0.584,0-1.057-0.473-1.057-1.057
			c0-0.582,0.473-1.053,1.057-1.053C550.14,469.48,550.611,469.951,550.611,470.533"/>
		<path fill="#FFFFFF" d="M592.226,446.205c0,1.07-0.87,1.938-1.938,1.938c-1.07,0-1.938-0.867-1.938-1.938s0.867-1.936,1.938-1.936
			C591.356,444.27,592.226,445.135,592.226,446.205"/>
		<path fill="#FFFFFF" d="M565.63,486.416c0,2.355-1.911,4.268-4.271,4.268c-2.355,0-4.27-1.912-4.27-4.268
			c0-2.357,1.914-4.27,4.27-4.27C563.719,482.146,565.63,484.059,565.63,486.416"/>
		<path fill="#FFFFFF" d="M470.774,428.48c0,1.305-1.056,2.357-2.356,2.357c-1.302,0-2.357-1.053-2.357-2.357
			c0-1.301,1.056-2.355,2.357-2.355C469.718,426.125,470.774,427.18,470.774,428.48"/>
		<path fill="#FFFFFF" d="M495.388,462.256c0,1.494-1.206,2.701-2.695,2.701c-1.487,0-2.697-1.207-2.697-2.701
			c0-1.488,1.21-2.695,2.697-2.695C494.182,459.561,495.388,460.768,495.388,462.256"/>
		<path fill="#FFFFFF" d="M556.695,442.316c0,1.088-0.881,1.975-1.972,1.975s-1.972-0.887-1.972-1.975s0.881-1.973,1.972-1.973
			S556.695,441.229,556.695,442.316"/>
		<path fill="#FFFFFF" d="M470.075,485.939c0,2.094-1.7,3.791-3.792,3.791c-2.096,0-3.793-1.697-3.793-3.791
			c0-2.098,1.697-3.793,3.793-3.793C468.375,482.146,470.075,483.842,470.075,485.939"/>
		<path fill="#FFFFFF" d="M522.845,466.771c0,1.07-0.864,1.934-1.929,1.934c-1.07,0-1.936-0.863-1.936-1.934
			c0-1.064,0.865-1.93,1.936-1.93C521.981,464.842,522.845,465.707,522.845,466.771"/>
		<path fill="#FFFFFF" d="M474.483,400.394c0,0.952-0.773,1.722-1.726,1.722c-0.95,0-1.726-0.77-1.726-1.722
			c0-0.954,0.775-1.727,1.726-1.727C473.709,398.667,474.483,399.44,474.483,400.394"/>
		<path fill="#FFFFFF" d="M467.345,456.76c0,1.65-1.339,2.99-2.986,2.99c-1.652,0-2.988-1.34-2.988-2.99
			c0-1.648,1.336-2.986,2.988-2.986C466.006,453.773,467.345,455.111,467.345,456.76"/>
		<path fill="#FFFFFF" d="M508.193,375.953c0,0.798-0.646,1.44-1.44,1.44s-1.439-0.643-1.439-1.44s0.645-1.439,1.439-1.439
			S508.193,375.155,508.193,375.953"/>
		<path fill="#FFFFFF" d="M439.019,396.571c0,0.87-0.705,1.572-1.574,1.572c-0.867,0-1.575-0.702-1.575-1.572
			c0-0.868,0.708-1.574,1.575-1.574C438.314,394.997,439.019,395.703,439.019,396.571"/>
		<path fill="#FFFFFF" d="M573.642,402.554c0,1.104-0.896,1.997-1.999,1.997c-1.105,0-2-0.894-2-1.997s0.895-1.998,2-1.998
			C572.746,400.556,573.642,401.451,573.642,402.554"/>
		<path fill="#FFFFFF" d="M536.528,380.43c0,0.963-0.781,1.741-1.742,1.741c-0.965,0-1.744-0.778-1.744-1.741
			c0-0.962,0.779-1.742,1.744-1.742C535.746,378.688,536.528,379.468,536.528,380.43"/>
		<path fill="#FFFFFF" d="M560.847,414.273c0,0.888-0.718,1.607-1.607,1.607s-1.612-0.72-1.612-1.607
			c0-0.891,0.723-1.607,1.612-1.607S560.847,413.382,560.847,414.273"/>
		<path fill="#FFFFFF" d="M551.932,372.152c0,1.313-1.065,2.379-2.378,2.379c-1.313,0-2.374-1.066-2.374-2.379
			c0-1.313,1.061-2.374,2.374-2.374C550.866,369.778,551.932,370.838,551.932,372.152"/>
		<path fill="#FFFFFF" d="M516.205,360.542c0,1.312-1.066,2.375-2.379,2.375c-1.313,0-2.374-1.063-2.374-2.375
			c0-1.315,1.061-2.379,2.374-2.379C515.139,358.163,516.205,359.226,516.205,360.542"/>
		<path fill="#FFFFFF" d="M565.383,457.084c0,1.311-1.064,2.375-2.377,2.375c-1.313,0-2.374-1.064-2.374-2.375
			c0-1.316,1.061-2.377,2.374-2.377C564.319,454.707,565.383,455.768,565.383,457.084"/>
		<path fill="#FFFFFF" d="M479.743,372.152c0,0.92-0.747,1.669-1.669,1.669c-0.921,0-1.666-0.749-1.666-1.669
			c0-0.918,0.745-1.665,1.666-1.665C478.996,370.487,479.743,371.234,479.743,372.152"/>
		<path fill="#FFFFFF" d="M511.24,340.933c0-1.428,1.158-2.587,2.586-2.587c1.429,0,2.587,1.159,2.587,2.587
			c0,1.426-1.158,2.585-2.587,2.585C512.399,343.518,511.24,342.359,511.24,340.933"/>
	</g>
	<g>
		<g>
			<g>
				<path fill="#FFFFFF" d="M18.105,418.479c-3.892,0-6.921-0.984-9.088-2.954c-2.167-1.97-3.251-4.727-3.251-8.271
					c0-3.828,1.202-6.842,3.607-9.041c2.404-2.198,5.64-3.299,9.706-3.299h3.204v-3.061h4.153v22.828h5.529
					c0.158,0,0.237,0.063,0.237,0.189v3.37c0,0.158-0.079,0.237-0.237,0.237H18.105z M22.281,414.682v-15.994H19.22
					c-2.911,0-5.161,0.748-6.751,2.242c-1.59,1.495-2.385,3.588-2.385,6.277c0,2.42,0.688,4.271,2.064,5.553s3.33,1.922,5.861,1.922
					H22.281z M15.59,387.368c-0.759,0-1.404-0.229-1.934-0.688c-0.53-0.459-0.795-1.202-0.795-2.231c0-1.027,0.265-1.771,0.795-2.23
					c0.53-0.458,1.175-0.688,1.934-0.688c0.822,0,1.479,0.249,1.969,0.747s0.736,1.222,0.736,2.171c0,0.934-0.241,1.653-0.724,2.16
					C17.088,387.115,16.428,387.368,15.59,387.368z M23.99,387.368c-0.839,0-1.503-0.253-1.993-0.759
					c-0.491-0.507-0.736-1.227-0.736-2.16c0-0.933,0.241-1.652,0.724-2.159c0.482-0.506,1.151-0.759,2.005-0.759
					c0.87,0,1.542,0.265,2.017,0.795s0.712,1.237,0.712,2.123c0,0.887-0.237,1.595-0.712,2.124
					C25.532,387.104,24.86,387.368,23.99,387.368z"/>
				<path fill="#FFFFFF" d="M31.489,418.479c-0.158,0-0.237-0.079-0.237-0.237v-3.37c0-0.126,0.08-0.189,0.237-0.189h9.326v-19.768
					h4.319v23.564H31.489z M34.645,428.208c-0.759,0-1.404-0.229-1.934-0.688c-0.53-0.459-0.795-1.202-0.795-2.23
					s0.265-1.772,0.795-2.23c0.53-0.459,1.175-0.688,1.934-0.688c0.822,0,1.479,0.249,1.969,0.748
					c0.49,0.498,0.736,1.222,0.736,2.171c0,0.934-0.241,1.653-0.724,2.159C36.143,427.955,35.483,428.208,34.645,428.208z
					 M43.045,428.208c-0.839,0-1.503-0.253-1.994-0.76c-0.49-0.506-0.735-1.226-0.735-2.159s0.241-1.653,0.724-2.159
					c0.482-0.507,1.151-0.76,2.005-0.76c0.87,0,1.542,0.265,2.017,0.795s0.712,1.238,0.712,2.124s-0.237,1.594-0.712,2.124
					C44.588,427.942,43.915,428.208,43.045,428.208z"/>
				<path fill="#FFFFFF" d="M61.816,430.153c-3.307,0-6.226-0.83-8.756-2.491l1.946-3.251c1.044,0.554,2.12,1.017,3.227,1.388
					c1.107,0.372,2.333,0.558,3.678,0.558c2.199,0,3.923-0.589,5.173-1.768c1.25-1.179,1.875-2.749,1.875-4.71v-1.4h-4.77
					c-3.449,0-6.119-0.949-8.009-2.848s-2.835-4.643-2.835-8.234c0-3.813,1.21-6.846,3.631-9.101
					c2.42-2.254,5.655-3.382,9.706-3.382h6.359v24.728c0,3.306-0.977,5.885-2.931,7.735
					C68.155,429.229,65.391,430.153,61.816,430.153z M68.911,414.682v-15.994h-2.088c-2.879,0-5.122,0.76-6.728,2.278
					s-2.408,3.646-2.408,6.383c0,2.532,0.549,4.387,1.649,5.565s2.765,1.768,4.995,1.768H68.911z M58.256,388.412l2.302-0.332
					c-1.139-0.743-1.708-1.771-1.708-3.085c0-1.392,0.455-2.468,1.364-3.227c0.91-0.76,2.108-1.14,3.595-1.14
					c1.266,0,2.333,0.245,3.204,0.735l-0.736,2.184c-0.648-0.396-1.456-0.594-2.42-0.594c-0.712,0-1.313,0.202-1.803,0.605
					c-0.491,0.403-0.736,1.032-0.736,1.887c0,0.554,0.143,1.024,0.427,1.412s0.632,0.676,1.044,0.866
					c0.316-0.079,1.092-0.202,2.326-0.368s2.08-0.249,2.539-0.249v2.373c-0.253,0-0.827,0.044-1.72,0.131
					c-0.894,0.087-2.543,0.288-4.948,0.604l-2.729,0.428V388.412z"/>
				<path fill="#FFFFFF" d="M88.844,418.479v1.163c0,3.274-0.744,5.845-2.231,7.712c-1.487,1.866-3.63,2.8-6.431,2.8
					c-1.551,0-3.204-0.459-4.959-1.376l1.258-3.251c0.791,0.348,1.439,0.573,1.946,0.677c0.506,0.103,1.06,0.153,1.661,0.153
					c1.455,0,2.594-0.593,3.417-1.779c0.822-1.187,1.234-2.753,1.234-4.698v-24.965h4.105v19.768h6.003
					c0.174,0,0.261,0.063,0.261,0.189v3.37c0,0.158-0.087,0.237-0.261,0.237H88.844z"/>
				<path fill="#FFFFFF" d="M94.373,418.479c-0.158,0-0.237-0.079-0.237-0.237v-3.37c0-0.126,0.08-0.189,0.237-0.189h6.407v-33.127
					h4.319v36.924H94.373z"/>
				<path fill="#FFFFFF" d="M114.829,381.555h4.319v36.924h-4.319V381.555z"/>
				<path fill="#FFFFFF" d="M184.311,414.682c0.158,0,0.237,0.063,0.237,0.189v3.37c0,0.158-0.08,0.237-0.237,0.237h-5.339v0.285
					c0,7.593-4.098,11.39-12.292,11.39h-11.485c-3.56,0-6.368-1.052-8.424-3.155c-2.057-2.104-3.085-4.96-3.085-8.567
					c0-4.129,0.664-7.949,1.993-11.461h4.034c-1.107,3.101-1.661,6.826-1.661,11.177c0,2.626,0.7,4.651,2.1,6.075
					c1.4,1.423,3.374,2.135,5.92,2.135h9.825c3.164,0,5.446-0.613,6.846-1.839c1.4-1.226,2.1-3.129,2.1-5.707v-0.332h-4.485
					c-3.591,0-6.332-0.949-8.222-2.848c-1.891-1.898-2.836-4.643-2.836-8.234c0-3.844,1.21-6.886,3.631-9.124
					s5.647-3.358,9.682-3.358h6.36v19.768H184.311z M174.842,414.682v-15.994h-2.088c-2.879,0-5.122,0.76-6.728,2.278
					c-1.606,1.519-2.409,3.646-2.409,6.383c0,2.532,0.549,4.387,1.649,5.565c1.099,1.179,2.764,1.768,4.995,1.768H174.842z
					 M167.51,390.287c-0.759,0-1.404-0.229-1.934-0.688c-0.53-0.458-0.795-1.202-0.795-2.23s0.265-1.771,0.795-2.23
					c0.53-0.459,1.175-0.688,1.934-0.688c0.823,0,1.479,0.25,1.97,0.748c0.49,0.498,0.736,1.222,0.736,2.171
					c0,0.934-0.242,1.653-0.724,2.159C169.009,390.034,168.348,390.287,167.51,390.287z M175.91,390.287
					c-0.838,0-1.503-0.253-1.993-0.76c-0.491-0.506-0.736-1.226-0.736-2.159c0-0.933,0.241-1.652,0.724-2.159
					c0.482-0.506,1.151-0.76,2.005-0.76c0.87,0,1.542,0.266,2.017,0.795c0.475,0.53,0.712,1.238,0.712,2.124
					c0,0.887-0.237,1.594-0.712,2.124S176.78,390.287,175.91,390.287z"/>
				<path fill="#FFFFFF" d="M183.836,418.479c-0.158,0-0.237-0.079-0.237-0.237v-3.37c0-0.126,0.08-0.189,0.237-0.189h7.878v-19.768
					h4.319v19.768h7.285c0.158,0,0.237,0.063,0.237,0.189v3.37c0,0.158-0.08,0.237-0.237,0.237H183.836z M189.816,428.208
					c-0.759,0-1.404-0.229-1.934-0.688c-0.53-0.459-0.795-1.202-0.795-2.23s0.265-1.772,0.795-2.23
					c0.53-0.459,1.175-0.688,1.934-0.688c0.822,0,1.479,0.249,1.97,0.748c0.49,0.498,0.735,1.222,0.735,2.171
					c0,0.934-0.241,1.653-0.724,2.159C191.314,427.955,190.654,428.208,189.816,428.208z M198.216,428.208
					c-0.839,0-1.503-0.253-1.993-0.76c-0.491-0.506-0.736-1.226-0.736-2.159s0.241-1.653,0.724-2.159
					c0.482-0.507,1.151-0.76,2.005-0.76c0.87,0,1.542,0.265,2.017,0.795s0.712,1.238,0.712,2.124s-0.237,1.594-0.712,2.124
					C199.759,427.942,199.086,428.208,198.216,428.208z"/>
				<path fill="#FFFFFF" d="M202.844,418.479c-0.158,0-0.237-0.079-0.237-0.237v-3.37c0-0.126,0.08-0.189,0.237-0.189h7.38
					c-0.823-0.934-1.447-2.064-1.875-3.394s-0.641-2.642-0.641-3.939c0-3.859,1.198-6.896,3.595-9.112
					c2.396-2.214,5.636-3.322,9.717-3.322h6.36v19.768h5.149c0.095,0,0.166,0.04,0.213,0.119l0.024,0.118v3.37
					c0,0.126-0.08,0.189-0.237,0.189H202.844z M223.251,414.682v-15.994h-2.088c-2.896,0-5.142,0.764-6.74,2.29
					c-1.598,1.527-2.396,3.65-2.396,6.371c0,4.889,2.215,7.333,6.645,7.333H223.251z M215.183,390.287
					c-0.76,0-1.404-0.229-1.934-0.688c-0.53-0.458-0.795-1.202-0.795-2.23s0.265-1.771,0.795-2.23
					c0.53-0.459,1.174-0.688,1.934-0.688c0.822,0,1.479,0.25,1.969,0.748s0.736,1.222,0.736,2.171c0,0.934-0.241,1.653-0.724,2.159
					C216.682,390.034,216.022,390.287,215.183,390.287z M223.584,390.287c-0.839,0-1.503-0.253-1.994-0.76
					c-0.49-0.506-0.735-1.226-0.735-2.159c0-0.933,0.241-1.652,0.724-2.159c0.482-0.506,1.151-0.76,2.005-0.76
					c0.87,0,1.542,0.266,2.017,0.795c0.475,0.53,0.712,1.238,0.712,2.124c0,0.887-0.237,1.594-0.712,2.124
					S224.453,390.287,223.584,390.287z"/>
				<path fill="#FFFFFF" d="M232.055,418.479c-0.158,0-0.237-0.079-0.237-0.237v-3.37c0-0.126,0.08-0.189,0.237-0.189h20.835
					c-1.25-1.249-2.27-4.216-3.061-8.898c-0.459-2.753-1.147-4.702-2.064-5.85c-0.918-1.146-2.271-1.721-4.058-1.721
					c-2.247,0-4.596,0.649-7.048,1.946l-1.685-3.347c1.392-0.901,2.796-1.526,4.212-1.874c1.416-0.348,2.938-0.522,4.568-0.522
					c1.978,0,3.631,0.356,4.96,1.068c1.329,0.712,2.385,1.768,3.168,3.168c0.783,1.399,1.38,3.405,1.792,6.016
					c0.743,5.078,1.914,8.416,3.512,10.014h3.251c0.158,0,0.237,0.063,0.237,0.189v3.37c0,0.158-0.08,0.237-0.237,0.237H232.055z"/>
				<path fill="#FFFFFF" d="M259.962,418.479c-0.158,0-0.237-0.079-0.237-0.237v-3.37c0-0.126,0.08-0.189,0.237-0.189h9.326v-19.768
					h4.319v23.564H259.962z M266.963,390.287c-0.759,0-1.404-0.229-1.934-0.688c-0.53-0.458-0.795-1.202-0.795-2.23
					s0.265-1.771,0.795-2.23c0.53-0.459,1.175-0.688,1.934-0.688c0.822,0,1.479,0.25,1.97,0.748c0.49,0.498,0.735,1.222,0.735,2.171
					c0,0.934-0.241,1.653-0.724,2.159C268.461,390.034,267.801,390.287,266.963,390.287z M275.363,390.287
					c-0.839,0-1.503-0.253-1.993-0.76c-0.491-0.506-0.736-1.226-0.736-2.159c0-0.933,0.241-1.652,0.724-2.159
					c0.482-0.506,1.151-0.76,2.005-0.76c0.87,0,1.542,0.266,2.017,0.795c0.475,0.53,0.712,1.238,0.712,2.124
					c0,0.887-0.237,1.594-0.712,2.124S276.233,390.287,275.363,390.287z"/>
				<path fill="#FFFFFF" d="M307.138,418.479c-2.801,0-5.016-0.843-6.645-2.527c-1.63-1.685-2.444-3.982-2.444-6.894
					c0-1.075,0.114-2.317,0.344-3.726s0.519-2.603,0.866-3.583h3.892c-0.49,2.341-0.735,4.659-0.735,6.953
					c0,1.771,0.419,3.211,1.258,4.318c0.838,1.107,1.945,1.661,3.322,1.661h17.441v-19.768h4.129v19.768h6.479
					c0.158,0,0.237,0.063,0.237,0.189v3.37c0,0.158-0.079,0.237-0.237,0.237H307.138z M315.158,428.208
					c-0.839,0-1.503-0.253-1.993-0.76c-0.491-0.506-0.736-1.226-0.736-2.159s0.241-1.653,0.725-2.159
					c0.482-0.507,1.15-0.76,2.005-0.76c0.87,0,1.542,0.265,2.017,0.795s0.712,1.238,0.712,2.124s-0.237,1.594-0.712,2.124
					C316.7,427.942,316.029,428.208,315.158,428.208z"/>
				<path fill="#FFFFFF" d="M334.545,418.479c-0.158,0-0.237-0.079-0.237-0.237v-3.37c0-0.126,0.079-0.189,0.237-0.189h7.878
					v-19.768h4.319v19.768h7.285c0.158,0,0.237,0.063,0.237,0.189v3.37c0,0.158-0.079,0.237-0.237,0.237H334.545z M340.335,390.287
					c-0.759,0-1.404-0.229-1.934-0.688c-0.53-0.458-0.795-1.202-0.795-2.23s0.265-1.771,0.795-2.23
					c0.529-0.459,1.175-0.688,1.934-0.688c0.822,0,1.479,0.25,1.97,0.748s0.735,1.222,0.735,2.171c0,0.934-0.241,1.653-0.724,2.159
					C341.834,390.034,341.174,390.287,340.335,390.287z M348.736,390.287c-0.839,0-1.503-0.253-1.993-0.76
					c-0.49-0.506-0.735-1.226-0.735-2.159c0-0.933,0.241-1.652,0.724-2.159c0.482-0.506,1.15-0.76,2.005-0.76
					c0.87,0,1.543,0.266,2.018,0.795c0.475,0.53,0.712,1.238,0.712,2.124c0,0.887-0.237,1.594-0.712,2.124
					S349.606,390.287,348.736,390.287z"/>
				<path fill="#FFFFFF" d="M353.553,418.479c-0.158,0-0.237-0.079-0.237-0.237v-3.37c0-0.126,0.079-0.189,0.237-0.189h20.455
					v-8.946c0-2.42-0.728-4.2-2.183-5.339c-1.456-1.14-3.71-1.709-6.764-1.709h-8.258v-3.963c1.044-2.183,2.483-4.331,4.319-6.442
					c1.835-2.112,3.888-3.995,6.157-5.648c2.271-1.652,4.481-2.891,6.633-3.713l1.543,3.701c-2.975,1.171-5.886,2.947-8.733,5.328
					s-4.81,4.702-5.885,6.964h4.224c4.24,0,7.479,0.871,9.718,2.61c2.238,1.741,3.357,4.24,3.357,7.499v9.658h6.313
					c0.174,0,0.261,0.063,0.261,0.189v3.37c0,0.158-0.087,0.237-0.261,0.237H353.553z"/>
				<path fill="#FFFFFF" d="M383.975,418.479c-0.158,0-0.237-0.079-0.237-0.237v-3.37c0-0.126,0.079-0.189,0.237-0.189h6.027
					c-1.202-3.132-1.804-5.9-1.804-8.306c0-2.895,0.585-5.474,1.757-7.735c1.186-0.997,2.547-1.788,4.081-2.373
					c1.534-0.586,3.133-0.879,4.794-0.879c2.024,0,3.804,0.447,5.339,1.341c1.534,0.895,2.713,2.164,3.536,3.81
					c0.822,1.646,1.233,3.512,1.233,5.6c0,2.548-0.463,4.746-1.388,6.597c-0.926,1.852-2.231,3.271-3.916,4.26
					c-1.685,0.989-3.61,1.483-5.778,1.483H383.975z M392.565,405.546c0,1.503,0.135,2.978,0.404,4.426
					c0.269,1.447,0.751,3.018,1.447,4.71h3.44c2.168,0,3.828-0.735,4.983-2.207c1.155-1.471,1.732-3.599,1.732-6.383
					c0-2.041-0.558-3.71-1.673-5.008c-1.115-1.297-2.472-1.945-4.069-1.945c-1.029,0-2.037,0.182-3.026,0.546
					c-0.988,0.364-1.871,0.847-2.646,1.447c-0.27,0.681-0.436,1.373-0.498,2.076C392.597,403.912,392.565,404.691,392.565,405.546z"
					/>
			</g>
		</g>
		<g>
			<g>
				<path fill="#FFFFFF" d="M11.276,464.367c-1.498,0-2.683-0.45-3.554-1.352c-0.872-0.901-1.308-2.131-1.308-3.688
					c0-0.575,0.061-1.239,0.184-1.993c0.123-0.753,0.277-1.392,0.463-1.916h2.082c-0.262,1.252-0.394,2.492-0.394,3.719
					c0,0.948,0.225,1.719,0.673,2.311c0.449,0.593,1.041,0.889,1.777,0.889h9.331v-10.574h2.209v12.605H11.276z M12.317,451.749
					c-0.406,0-0.751-0.123-1.035-0.368s-0.425-0.644-0.425-1.193s0.142-0.948,0.425-1.193s0.628-0.368,1.035-0.368
					c0.44,0,0.791,0.134,1.054,0.4c0.262,0.266,0.394,0.653,0.394,1.161c0,0.499-0.129,0.885-0.387,1.155
					C13.119,451.613,12.765,451.749,12.317,451.749z M16.811,451.749c-0.448,0-0.804-0.136-1.066-0.406
					c-0.263-0.271-0.394-0.656-0.394-1.155s0.129-0.885,0.387-1.155c0.258-0.271,0.615-0.406,1.072-0.406
					c0.465,0,0.825,0.142,1.079,0.425c0.254,0.284,0.381,0.663,0.381,1.137s-0.127,0.853-0.381,1.136
					C17.636,451.607,17.276,451.749,16.811,451.749z"/>
				<path fill="#FFFFFF" d="M27.551,444.614h2.31v17.722h3.428c0.093,0,0.14,0.034,0.14,0.102v1.803c0,0.085-0.047,0.127-0.14,0.127
					h-5.738V444.614z"/>
				<path fill="#FFFFFF" d="M33.034,464.367c-0.084,0-0.127-0.042-0.127-0.127v-1.803c0-0.067,0.042-0.102,0.127-0.102h3.225
					c-0.644-1.676-0.965-3.156-0.965-4.443c0-1.548,0.313-2.928,0.939-4.138c0.635-0.533,1.362-0.957,2.183-1.27
					c0.821-0.313,1.676-0.47,2.564-0.47c1.083,0,2.035,0.239,2.856,0.717c0.821,0.479,1.451,1.157,1.891,2.038
					c0.44,0.88,0.66,1.879,0.66,2.995c0,1.363-0.248,2.539-0.743,3.529s-1.193,1.75-2.094,2.279
					c-0.901,0.528-1.932,0.793-3.091,0.793H33.034z M37.63,457.448c0,0.805,0.072,1.594,0.216,2.368s0.402,1.614,0.774,2.52h1.841
					c1.159,0,2.048-0.394,2.666-1.181c0.618-0.787,0.927-1.925,0.927-3.415c0-1.091-0.298-1.984-0.895-2.678
					c-0.597-0.694-1.323-1.041-2.177-1.041c-0.55,0-1.09,0.097-1.619,0.292c-0.529,0.194-1.001,0.452-1.416,0.774
					c-0.144,0.363-0.233,0.734-0.267,1.11C37.647,456.575,37.63,456.991,37.63,457.448z"/>
				<path fill="#FFFFFF" d="M60.467,464.989c0,1.769-0.522,3.148-1.567,4.139c-1.045,0.99-2.524,1.485-4.437,1.485
					c-1.769,0-3.33-0.444-4.684-1.333l1.041-1.739c0.559,0.296,1.134,0.544,1.726,0.742c0.592,0.199,1.249,0.299,1.968,0.299
					c1.176,0,2.099-0.315,2.768-0.946c0.668-0.63,1.003-1.471,1.003-2.52v-0.749h-2.552c-1.845,0-3.273-0.508-4.284-1.523
					c-1.012-1.016-1.517-2.483-1.517-4.405c0-2.039,0.647-3.662,1.942-4.868c1.294-1.206,3.025-1.809,5.192-1.809h3.402v10.574H62.6
					c0.084,0,0.127,0.034,0.127,0.102v1.803c0,0.085-0.042,0.127-0.127,0.127h-2.133V464.989z M58.259,462.336v-8.556h-1.117
					c-1.541,0-2.74,0.406-3.599,1.219s-1.289,1.95-1.289,3.414c0,1.354,0.294,2.347,0.882,2.978c0.588,0.63,1.479,0.945,2.672,0.945
					H58.259z"/>
				<path fill="#FFFFFF" d="M62.346,464.367c-0.084,0-0.127-0.042-0.127-0.127v-1.803c0-0.067,0.042-0.102,0.127-0.102h3.428
					v-17.722h2.31v17.722h3.39c0.084,0,0.127,0.034,0.127,0.102v1.803c0,0.085-0.042,0.127-0.127,0.127H62.346z"/>
				<path fill="#FFFFFF" d="M83.863,464.367c-0.728,0-1.51-0.107-2.348-0.323s-1.659-0.54-2.463-0.972
					c-1.523,0.863-3.136,1.295-4.836,1.295h-3.009c-0.084,0-0.127-0.042-0.127-0.127v-1.803c0-0.067,0.042-0.102,0.127-0.102h2.983
					c1.244,0,2.276-0.173,3.097-0.521c-0.668-0.482-1.352-1.179-2.05-2.088c-0.698-0.91-1.291-1.892-1.777-2.945
					c-0.487-1.054-0.806-2.055-0.958-3.002c0.948-0.889,2.016-1.587,3.205-2.095s2.401-0.762,3.637-0.762
					c1.092,0,2.192,0.174,3.301,0.521c1.108,0.347,2.077,0.809,2.907,1.384c0,1.794-0.415,3.486-1.244,5.077
					c-0.83,1.592-1.972,2.887-3.427,3.885c0.965,0.364,1.925,0.546,2.881,0.546h3.148c0.084,0,0.127,0.034,0.127,0.102v1.803
					c0,0.085-0.042,0.127-0.127,0.127H83.863z M79.077,460.647c1.337-0.905,2.332-1.899,2.983-2.983
					c0.651-1.083,1.02-2.331,1.104-3.744c-1.21-0.644-2.458-0.965-3.745-0.965c-1.473,0-2.945,0.503-4.417,1.511
					c0.262,1.185,0.753,2.318,1.472,3.401C77.194,458.951,78.062,459.878,79.077,460.647z"/>
				<path fill="#FFFFFF" d="M86.656,464.367c-0.084,0-0.127-0.042-0.127-0.127v-1.803c0-0.067,0.042-0.102,0.127-0.102h3.225
					c-0.644-1.676-0.965-3.156-0.965-4.443c0-1.548,0.313-2.928,0.939-4.138c0.635-0.533,1.362-0.957,2.183-1.27
					c0.821-0.313,1.676-0.47,2.564-0.47c1.083,0,2.035,0.239,2.856,0.717c0.821,0.479,1.451,1.157,1.891,2.038
					c0.44,0.88,0.66,1.879,0.66,2.995c0,1.109-0.182,2.129-0.546,3.06c0.373,0.567,0.789,0.961,1.25,1.181
					c0.461,0.221,1.068,0.33,1.822,0.33h0.127c0.093,0,0.14,0.034,0.14,0.102v1.803c0,0.085-0.047,0.127-0.14,0.127h-0.127
					c-0.922,0-1.709-0.127-2.361-0.381s-1.278-0.689-1.879-1.308c-0.55,0.576-1.191,1.001-1.923,1.276
					c-0.732,0.274-1.496,0.412-2.292,0.412H86.656z M91.251,457.448c0,0.805,0.072,1.594,0.216,2.368s0.402,1.614,0.774,2.52h1.841
					c1.159,0,2.048-0.394,2.666-1.181c0.618-0.787,0.927-1.925,0.927-3.415c0-1.091-0.298-1.984-0.895-2.678
					c-0.597-0.694-1.323-1.041-2.177-1.041c-0.55,0-1.09,0.097-1.619,0.292c-0.529,0.194-1.001,0.452-1.416,0.774
					c-0.144,0.363-0.233,0.734-0.267,1.11C91.268,456.575,91.251,456.991,91.251,457.448z"/>
				<path fill="#FFFFFF" d="M102.41,464.367c-0.084,0-0.127-0.042-0.127-0.127v-1.803c0-0.067,0.042-0.102,0.127-0.102h3.428
					v-17.722h2.31v19.753H102.41z"/>
				<path fill="#FFFFFF" d="M113.353,444.614h2.31v19.753h-2.31V444.614z"/>
				<path fill="#FFFFFF" d="M135.39,464.367c-2.082,0-3.703-0.526-4.862-1.58c-1.16-1.054-1.739-2.528-1.739-4.425
					c0-2.048,0.643-3.66,1.93-4.836c1.286-1.177,3.017-1.765,5.192-1.765h1.714v-1.638h2.221v12.212h2.958
					c0.084,0,0.127,0.034,0.127,0.102v1.803c0,0.085-0.042,0.127-0.127,0.127H135.39z M137.625,462.336v-8.556h-1.638
					c-1.557,0-2.761,0.399-3.612,1.199s-1.276,1.919-1.276,3.357c0,1.295,0.368,2.285,1.104,2.971s1.782,1.028,3.136,1.028H137.625z
					 M134.045,447.725c-0.406,0-0.751-0.122-1.035-0.368c-0.284-0.245-0.425-0.643-0.425-1.193c0-0.55,0.142-0.947,0.425-1.193
					c0.284-0.245,0.628-0.368,1.035-0.368c0.44,0,0.792,0.134,1.054,0.4s0.394,0.653,0.394,1.161c0,0.5-0.129,0.885-0.387,1.155
					C134.846,447.59,134.493,447.725,134.045,447.725z M138.539,447.725c-0.449,0-0.804-0.135-1.066-0.406
					c-0.263-0.271-0.394-0.655-0.394-1.155c0-0.499,0.129-0.884,0.387-1.155c0.258-0.271,0.616-0.406,1.073-0.406
					c0.465,0,0.825,0.143,1.079,0.426s0.381,0.662,0.381,1.136c0,0.475-0.127,0.853-0.381,1.137
					C139.364,447.583,139.004,447.725,138.539,447.725z"/>
				<path fill="#FFFFFF" d="M142.55,464.367c-0.084,0-0.127-0.042-0.127-0.127v-1.803c0-0.067,0.042-0.102,0.127-0.102h4.214
					v-10.574h2.311v10.574h3.897c0.084,0,0.127,0.034,0.127,0.102v1.803c0,0.085-0.042,0.127-0.127,0.127H142.55z M145.749,469.572
					c-0.406,0-0.751-0.123-1.035-0.368c-0.284-0.246-0.425-0.644-0.425-1.193c0-0.551,0.142-0.948,0.425-1.193
					c0.283-0.246,0.628-0.368,1.035-0.368c0.44,0,0.791,0.133,1.053,0.399s0.394,0.654,0.394,1.162c0,0.499-0.129,0.884-0.387,1.155
					C146.551,469.437,146.198,469.572,145.749,469.572z M150.243,469.572c-0.449,0-0.804-0.136-1.066-0.406
					c-0.262-0.271-0.394-0.656-0.394-1.155c0-0.5,0.129-0.885,0.387-1.155c0.258-0.271,0.616-0.406,1.073-0.406
					c0.465,0,0.825,0.142,1.079,0.425c0.254,0.284,0.381,0.662,0.381,1.137c0,0.474-0.127,0.853-0.381,1.136
					S150.708,469.572,150.243,469.572z"/>
				<path fill="#FFFFFF" d="M152.719,464.367c-0.084,0-0.127-0.042-0.127-0.127v-1.803c0-0.067,0.042-0.102,0.127-0.102h3.428
					v-10.574h2.31v10.574h3.39c0.084,0,0.127,0.034,0.127,0.102v1.803c0,0.085-0.042,0.127-0.127,0.127H152.719z M157.212,449.286
					c-0.448,0-0.804-0.136-1.066-0.406c-0.263-0.271-0.394-0.655-0.394-1.155c0-0.499,0.129-0.884,0.387-1.155
					c0.258-0.271,0.615-0.406,1.072-0.406c0.465,0,0.825,0.142,1.079,0.426c0.254,0.283,0.381,0.662,0.381,1.136
					c0,0.475-0.127,0.853-0.381,1.137C158.037,449.145,157.677,449.286,157.212,449.286z"/>
				<path fill="#FFFFFF" d="M161.579,464.367c-0.084,0-0.127-0.042-0.127-0.127v-1.803c0-0.067,0.042-0.102,0.127-0.102h3.948
					c-0.44-0.499-0.774-1.104-1.003-1.815s-0.343-1.413-0.343-2.107c0-2.064,0.641-3.689,1.923-4.874
					c1.282-1.185,3.015-1.777,5.199-1.777h3.402v10.574h2.755c0.051,0,0.089,0.021,0.114,0.063l0.013,0.063v1.803
					c0,0.067-0.042,0.102-0.127,0.102H161.579z M172.496,462.336v-8.556h-1.117c-1.549,0-2.75,0.408-3.605,1.225
					c-0.855,0.817-1.282,1.953-1.282,3.408c0,2.615,1.185,3.923,3.555,3.923H172.496z M168.18,449.286
					c-0.406,0-0.751-0.123-1.035-0.368s-0.425-0.643-0.425-1.193c0-0.55,0.142-0.947,0.425-1.193
					c0.284-0.245,0.628-0.368,1.035-0.368c0.44,0,0.792,0.134,1.054,0.4s0.394,0.653,0.394,1.161c0,0.5-0.129,0.885-0.387,1.155
					S168.629,449.286,168.18,449.286z M172.674,449.286c-0.449,0-0.804-0.136-1.066-0.406c-0.263-0.271-0.394-0.655-0.394-1.155
					c0-0.499,0.129-0.884,0.387-1.155c0.258-0.271,0.616-0.406,1.073-0.406c0.465,0,0.825,0.142,1.079,0.426
					c0.254,0.283,0.381,0.662,0.381,1.136c0,0.475-0.127,0.853-0.381,1.137C173.499,449.145,173.139,449.286,172.674,449.286z"/>
				<path fill="#FFFFFF" d="M177.206,464.367c-0.084,0-0.127-0.042-0.127-0.127v-1.803c0-0.067,0.042-0.102,0.127-0.102h4.989
					v-10.574h2.311v12.605H177.206z M180.951,449.286c-0.406,0-0.751-0.123-1.035-0.368c-0.284-0.245-0.425-0.643-0.425-1.193
					c0-0.55,0.142-0.947,0.425-1.193c0.283-0.245,0.628-0.368,1.035-0.368c0.44,0,0.791,0.134,1.053,0.4s0.394,0.653,0.394,1.161
					c0,0.5-0.129,0.885-0.387,1.155S181.399,449.286,180.951,449.286z M185.445,449.286c-0.449,0-0.804-0.136-1.066-0.406
					s-0.394-0.655-0.394-1.155c0-0.499,0.129-0.884,0.387-1.155c0.258-0.271,0.616-0.406,1.073-0.406
					c0.465,0,0.825,0.142,1.079,0.426c0.254,0.283,0.381,0.662,0.381,1.136c0,0.475-0.127,0.853-0.381,1.137
					C186.27,449.145,185.91,449.286,185.445,449.286z"/>
				<path fill="#FFFFFF" d="M193.429,470.613c-1.769,0-3.33-0.444-4.684-1.333l1.041-1.739c0.559,0.296,1.134,0.544,1.726,0.742
					c0.592,0.199,1.249,0.299,1.968,0.299c1.176,0,2.099-0.315,2.768-0.946c0.668-0.63,1.003-1.471,1.003-2.52v-0.749h-2.552
					c-1.845,0-3.273-0.508-4.284-1.523c-1.012-1.016-1.517-2.483-1.517-4.405c0-2.039,0.647-3.662,1.942-4.868
					c1.294-1.206,3.025-1.809,5.192-1.809h3.402v13.228c0,1.769-0.522,3.148-1.567,4.139
					C196.821,470.118,195.342,470.613,193.429,470.613z M197.225,462.336v-8.556h-1.117c-1.541,0-2.74,0.406-3.599,1.219
					s-1.289,1.95-1.289,3.414c0,1.354,0.294,2.347,0.882,2.978c0.588,0.63,1.479,0.945,2.672,0.945H197.225z"/>
				<path fill="#FFFFFF" d="M217.029,464.367c-1.498,0-2.683-0.45-3.554-1.352c-0.872-0.901-1.308-2.131-1.308-3.688
					c0-0.575,0.061-1.239,0.184-1.993c0.123-0.753,0.277-1.392,0.463-1.916h2.082c-0.262,1.252-0.394,2.492-0.394,3.719
					c0,0.948,0.225,1.719,0.673,2.311c0.449,0.593,1.041,0.889,1.777,0.889h9.331v-10.574h2.209v12.605H217.029z M218.07,451.749
					c-0.406,0-0.751-0.123-1.035-0.368s-0.425-0.644-0.425-1.193s0.142-0.948,0.425-1.193s0.628-0.368,1.035-0.368
					c0.44,0,0.791,0.134,1.054,0.4c0.262,0.266,0.394,0.653,0.394,1.161c0,0.499-0.129,0.885-0.387,1.155
					C218.871,451.613,218.518,451.749,218.07,451.749z M222.563,451.749c-0.448,0-0.804-0.136-1.066-0.406
					c-0.263-0.271-0.394-0.656-0.394-1.155s0.129-0.885,0.387-1.155c0.258-0.271,0.615-0.406,1.072-0.406
					c0.465,0,0.825,0.142,1.079,0.425c0.254,0.284,0.381,0.663,0.381,1.137s-0.127,0.853-0.381,1.136
					C223.388,451.607,223.029,451.749,222.563,451.749z"/>
				<path fill="#FFFFFF" d="M231.868,462.336h5.827l-3.351-14.218h2.412l3.352,14.218h0.711c1.836,0,2.754-1.003,2.754-3.009
					v-14.713h2.311v15.018c0,1.439-0.436,2.588-1.308,3.447c-0.872,0.858-2.04,1.288-3.503,1.288h-9.204V462.336z"/>
				<path fill="#FFFFFF" d="M250.822,444.614h2.31v17.722h3.428c0.093,0,0.14,0.034,0.14,0.102v1.803
					c0,0.085-0.047,0.127-0.14,0.127h-5.738V444.614z"/>
				<path fill="#FFFFFF" d="M256.305,464.367c-0.084,0-0.127-0.042-0.127-0.127v-1.803c0-0.067,0.042-0.102,0.127-0.102h3.174v-9.8
					h2.208v4.811c0.813-1.938,1.833-3.397,3.06-4.379s2.606-1.473,4.138-1.473c1.963,0,3.447,0.533,4.45,1.6
					s1.504,2.733,1.504,5.001v4.24h3.427c0.093,0,0.14,0.034,0.14,0.102v1.803c0,0.085-0.046,0.127-0.14,0.127H256.305z
					 M272.631,462.336v-4.126c0-1.599-0.349-2.775-1.047-3.528c-0.698-0.754-1.754-1.13-3.167-1.13
					c-2.666,0-4.908,2.217-6.728,6.651v2.133H272.631z"/>
				<path fill="#FFFFFF" d="M278.013,464.367c-0.084,0-0.127-0.042-0.127-0.127v-1.803c0-0.067,0.042-0.102,0.127-0.102h4.989
					v-10.574h2.311v12.605H278.013z M281.758,449.286c-0.406,0-0.751-0.123-1.035-0.368c-0.284-0.245-0.425-0.643-0.425-1.193
					c0-0.55,0.142-0.947,0.425-1.193c0.283-0.245,0.628-0.368,1.035-0.368c0.44,0,0.791,0.134,1.053,0.4s0.394,0.653,0.394,1.161
					c0,0.5-0.129,0.885-0.387,1.155S282.206,449.286,281.758,449.286z M286.252,449.286c-0.449,0-0.804-0.136-1.066-0.406
					s-0.394-0.655-0.394-1.155c0-0.499,0.129-0.884,0.387-1.155c0.258-0.271,0.616-0.406,1.073-0.406
					c0.465,0,0.825,0.142,1.079,0.426c0.254,0.283,0.381,0.662,0.381,1.136c0,0.475-0.127,0.853-0.381,1.137
					C287.077,449.145,286.717,449.286,286.252,449.286z"/>
				<path fill="#FFFFFF" d="M289.032,462.336h5.827l-3.351-14.218h2.412l3.351,14.218h0.711c1.838,0,2.756-1.003,2.756-3.009
					v-14.713h2.311v15.018c0,1.439-0.436,2.588-1.309,3.447c-0.871,0.858-2.039,1.288-3.504,1.288h-9.203V462.336z"/>
				<path fill="#FFFFFF" d="M307.985,444.614h2.311v19.753h-2.311V444.614z"/>
				<path fill="#FFFFFF" d="M330.022,464.367c-2.081,0-3.702-0.526-4.861-1.58c-1.16-1.054-1.739-2.528-1.739-4.425
					c0-2.048,0.643-3.66,1.93-4.836c1.286-1.177,3.017-1.765,5.191-1.765h1.714v-1.638h2.222v12.212h2.958
					c0.085,0,0.127,0.034,0.127,0.102v1.803c0,0.085-0.042,0.127-0.127,0.127H330.022z M332.256,462.336v-8.556h-1.638
					c-1.557,0-2.761,0.399-3.611,1.199s-1.275,1.919-1.275,3.357c0,1.295,0.368,2.285,1.104,2.971s1.781,1.028,3.135,1.028H332.256z
					 M328.677,447.725c-0.406,0-0.752-0.122-1.035-0.368c-0.283-0.245-0.425-0.643-0.425-1.193c0-0.55,0.142-0.947,0.425-1.193
					c0.283-0.245,0.629-0.368,1.035-0.368c0.439,0,0.791,0.134,1.053,0.4c0.263,0.267,0.394,0.653,0.394,1.161
					c0,0.5-0.129,0.885-0.387,1.155C329.479,447.59,329.125,447.725,328.677,447.725z M333.17,447.725
					c-0.448,0-0.804-0.135-1.066-0.406c-0.262-0.271-0.394-0.655-0.394-1.155c0-0.499,0.129-0.884,0.388-1.155
					c0.258-0.271,0.615-0.406,1.072-0.406c0.466,0,0.825,0.143,1.079,0.426s0.381,0.662,0.381,1.136
					c0,0.475-0.127,0.853-0.381,1.137C333.995,447.583,333.636,447.725,333.17,447.725z"/>
				<path fill="#FFFFFF" d="M337.182,464.367c-0.085,0-0.127-0.042-0.127-0.127v-1.803c0-0.067,0.042-0.102,0.127-0.102h3.225
					c-0.644-1.676-0.965-3.156-0.965-4.443c0-1.548,0.313-2.928,0.939-4.138c0.635-0.533,1.362-0.957,2.184-1.27
					c0.82-0.313,1.676-0.47,2.563-0.47c1.084,0,2.036,0.239,2.856,0.717c0.821,0.479,1.451,1.157,1.892,2.038
					c0.44,0.88,0.66,1.879,0.66,2.995c0,1.363-0.247,2.539-0.742,3.529s-1.193,1.75-2.095,2.279
					c-0.901,0.528-1.932,0.793-3.091,0.793H337.182z M341.778,457.448c0,0.805,0.071,1.594,0.216,2.368
					c0.144,0.774,0.401,1.614,0.774,2.52h1.841c1.159,0,2.048-0.394,2.665-1.181c0.618-0.787,0.927-1.925,0.927-3.415
					c0-1.091-0.298-1.984-0.895-2.678c-0.597-0.694-1.322-1.041-2.178-1.041c-0.55,0-1.089,0.097-1.618,0.292
					c-0.529,0.194-1.001,0.452-1.415,0.774c-0.145,0.363-0.233,0.734-0.267,1.11C341.794,456.575,341.778,456.991,341.778,457.448z"
					/>
				<path fill="#FFFFFF" d="M364.615,464.989c0,1.769-0.522,3.148-1.567,4.139c-1.046,0.99-2.524,1.485-4.437,1.485
					c-1.77,0-3.331-0.444-4.685-1.333l1.041-1.739c0.559,0.296,1.134,0.544,1.727,0.742c0.592,0.199,1.248,0.299,1.968,0.299
					c1.176,0,2.099-0.315,2.767-0.946c0.669-0.63,1.003-1.471,1.003-2.52v-0.749h-2.551c-1.846,0-3.273-0.508-4.285-1.523
					c-1.011-1.016-1.517-2.483-1.517-4.405c0-2.039,0.647-3.662,1.942-4.868s3.025-1.809,5.191-1.809h3.402v10.574h2.133
					c0.085,0,0.127,0.034,0.127,0.102v1.803c0,0.085-0.042,0.127-0.127,0.127h-2.133V464.989z M362.406,462.336v-8.556h-1.117
					c-1.54,0-2.739,0.406-3.599,1.219s-1.288,1.95-1.288,3.414c0,1.354,0.294,2.347,0.882,2.978c0.588,0.63,1.479,0.945,2.672,0.945
					H362.406z"/>
				<path fill="#FFFFFF" d="M366.493,464.367c-0.085,0-0.127-0.042-0.127-0.127v-1.803c0-0.067,0.042-0.102,0.127-0.102h3.174
					v-17.722h2.209v12.732c0.813-1.938,1.832-3.397,3.059-4.379c1.228-0.981,2.607-1.473,4.139-1.473c1.964,0,3.446,0.533,4.449,1.6
					s1.505,2.733,1.505,5.001v4.24h3.428c0.093,0,0.14,0.034,0.14,0.102v1.803c0,0.085-0.047,0.127-0.14,0.127H366.493z
					 M382.819,462.336v-4.126c0-1.599-0.35-2.775-1.047-3.528c-0.698-0.754-1.755-1.13-3.168-1.13c-2.666,0-4.908,2.217-6.728,6.651
					v2.133H382.819z M378.528,449.286c-0.448,0-0.804-0.136-1.066-0.406c-0.262-0.271-0.394-0.655-0.394-1.155
					c0-0.499,0.129-0.884,0.388-1.155c0.258-0.271,0.615-0.406,1.072-0.406c0.466,0,0.825,0.142,1.079,0.426
					c0.254,0.283,0.381,0.662,0.381,1.136c0,0.475-0.127,0.853-0.381,1.137C379.353,449.145,378.993,449.286,378.528,449.286z"/>
				<path fill="#FFFFFF" d="M388.201,464.367c-0.085,0-0.127-0.042-0.127-0.127v-1.803c0-0.067,0.042-0.102,0.127-0.102h3.428
					v-10.574h2.311v10.574h3.389c0.085,0,0.127,0.034,0.127,0.102v1.803c0,0.085-0.042,0.127-0.127,0.127H388.201z M392.696,449.286
					c-0.449,0-0.805-0.136-1.066-0.406c-0.263-0.271-0.394-0.655-0.394-1.155c0-0.499,0.129-0.884,0.387-1.155
					c0.259-0.271,0.616-0.406,1.073-0.406c0.465,0,0.825,0.142,1.079,0.426c0.254,0.283,0.381,0.662,0.381,1.136
					c0,0.475-0.127,0.853-0.381,1.137C393.521,449.145,393.16,449.286,392.696,449.286z"/>
				<path fill="#FFFFFF" d="M397.062,464.367c-0.085,0-0.127-0.042-0.127-0.127v-1.803c0-0.067,0.042-0.102,0.127-0.102h3.225
					c-0.644-1.676-0.965-3.156-0.965-4.443c0-1.548,0.313-2.928,0.939-4.138c0.635-0.533,1.362-0.957,2.184-1.27
					c0.82-0.313,1.676-0.47,2.563-0.47c1.084,0,2.036,0.239,2.856,0.717c0.821,0.479,1.451,1.157,1.892,2.038
					c0.44,0.88,0.66,1.879,0.66,2.995c0,1.363-0.247,2.539-0.742,3.529s-1.193,1.75-2.095,2.279
					c-0.901,0.528-1.932,0.793-3.091,0.793H397.062z M401.657,457.448c0,0.805,0.071,1.594,0.216,2.368
					c0.144,0.774,0.401,1.614,0.774,2.52h1.841c1.159,0,2.048-0.394,2.665-1.181c0.618-0.787,0.927-1.925,0.927-3.415
					c0-1.091-0.298-1.984-0.895-2.678c-0.597-0.694-1.322-1.041-2.178-1.041c-0.55,0-1.089,0.097-1.618,0.292
					c-0.529,0.194-1.001,0.452-1.415,0.774c-0.145,0.363-0.233,0.734-0.267,1.11C401.674,456.575,401.657,456.991,401.657,457.448z"
					/>
			</g>
		</g>
	</g>
</g>
<g display="none">
	<g display="inline">
		<path fill="#FFFFFF" d="M561.08,740.729c-0.083,0-0.172-0.031-0.235-0.09l-26.498-24.055c-0.129-0.121-0.152-0.314-0.05-0.459
			c0.101-0.146,0.294-0.189,0.451-0.104l14.551,7.943l5.083-27.746c0.029-0.162,0.173-0.283,0.341-0.283h0.008
			c0.171,0.002,0.311,0.131,0.338,0.297l6.355,44.1c0.021,0.145-0.054,0.285-0.183,0.355
			C561.191,740.715,561.136,740.729,561.08,740.729 M536.975,718.027l23.621,21.445l-5.916-41.037l-4.782,26.127
			c-0.022,0.107-0.093,0.203-0.194,0.252c-0.101,0.045-0.221,0.045-0.317-0.01L536.975,718.027z"/>
		<path fill="#FFFFFF" d="M478.074,724.846c-0.16,0-0.311-0.115-0.339-0.283l-5.104-27.459l-7.7,14.109
			c-0.061,0.115-0.156,0.176-0.313,0.184c-0.127-0.004-0.245-0.076-0.303-0.193l-8.636-16.949c-0.068-0.135-0.041-0.303,0.071-0.408
			l12.403-11.652c0.139-0.131,0.358-0.125,0.49,0.016c0.133,0.141,0.128,0.361-0.014,0.49l-12.214,11.473l8.219,16.133l7.853-14.391
			c0.072-0.131,0.218-0.197,0.361-0.178c0.144,0.023,0.258,0.135,0.285,0.281l5.283,28.418c0.035,0.189-0.09,0.369-0.276,0.406
			C478.118,724.846,478.097,724.846,478.074,724.846"/>
		<path fill="#FFFFFF" d="M495.026,733.482c-0.051,0-0.106-0.01-0.157-0.035l-16.949-8.637c-0.136-0.072-0.215-0.223-0.184-0.375
			l3.144-16.762c0.036-0.189,0.219-0.311,0.405-0.277c0.188,0.037,0.311,0.217,0.278,0.406l-3.097,16.506l16.716,8.518
			c0.172,0.088,0.24,0.297,0.154,0.467C495.274,733.414,495.151,733.482,495.026,733.482"/>
		<path fill="#FFFFFF" d="M563.006,711.396c-0.054,0-0.106-0.012-0.158-0.039c-0.172-0.086-0.239-0.295-0.15-0.467l8.559-16.799
			l-12.334-25.705c-0.059-0.131-0.035-0.289,0.068-0.396c0.104-0.1,0.26-0.133,0.394-0.07l14.79,6.793l-2.875-18.139
			c-0.028-0.189,0.102-0.367,0.291-0.396c0.186-0.031,0.365,0.098,0.396,0.287l2.975,18.781c0.02,0.127-0.031,0.254-0.132,0.332
			c-0.104,0.08-0.24,0.092-0.357,0.037l-14.506-6.66l11.989,24.992c0.049,0.096,0.044,0.211-0.004,0.307l-8.634,16.953
			C563.252,711.328,563.132,711.396,563.006,711.396"/>
		<path fill="#FFFFFF" d="M466.552,740.711c-0.056,0-0.11-0.014-0.163-0.041c-0.128-0.068-0.203-0.211-0.183-0.357l6.217-44.115
			l-19.662-20.656c-0.114-0.123-0.128-0.309-0.031-0.443s0.278-0.186,0.43-0.113l14.886,6.916l0.022-13.896l-3.788-28.387
			c-0.027-0.189,0.109-0.367,0.299-0.393c0.186-0.037,0.366,0.111,0.389,0.301l3.794,28.432l-0.024,14.488
			c0,0.121-0.06,0.23-0.158,0.297c-0.1,0.061-0.225,0.07-0.335,0.021l-13.717-6.379l18.518,19.455
			c0.074,0.076,0.106,0.186,0.093,0.289l-6.104,43.322l25.568-23.486c0.141-0.127,0.36-0.119,0.491,0.021
			c0.13,0.143,0.121,0.361-0.021,0.494l-26.286,24.137C466.719,740.68,466.636,740.711,466.552,740.711"/>
		<path fill="#FFFFFF" d="M481.38,643.064c-0.018,0-0.038,0-0.051,0c-0.146-0.021-0.265-0.131-0.29-0.277l-3.304-16.604
			c-0.038-0.186,0.083-0.369,0.272-0.406c0.183-0.039,0.369,0.084,0.409,0.273l3.114,15.654l13.189-24.389
			c0.051-0.096,0.144-0.16,0.25-0.182l18.485-2.928l0.022-19.313c0-0.191,0.157-0.346,0.348-0.346h0.004
			c0.189,0,0.344,0.156,0.344,0.35l-0.026,19.607c0,0.172-0.124,0.316-0.296,0.344l-18.604,2.949l-13.563,25.086
			C481.624,642.998,481.505,643.064,481.38,643.064"/>
		<path fill="#FFFFFF" d="M493.039,634.639c-0.093,0-0.186-0.035-0.254-0.104c-0.13-0.141-0.126-0.361,0.014-0.494l20.763-19.791
			c0.139-0.127,0.356-0.123,0.489,0.018c0.134,0.137,0.13,0.357-0.01,0.49l-20.763,19.789
			C493.21,634.607,493.124,634.639,493.039,634.639"/>
		<path fill="#FFFFFF" d="M546.398,643.229c-0.12,0-0.24-0.066-0.303-0.186l-3.755-6.908l-7.619-1.396
			c-0.147-0.027-0.264-0.146-0.283-0.297l-2.181-16.918c-0.018-0.164,0.079-0.322,0.243-0.375c0.16-0.049,0.332,0.02,0.408,0.168
			l9.884,18.193l19.179,3.518l-12.661-12.664c-0.14-0.137-0.14-0.355,0-0.494c0.134-0.133,0.354-0.133,0.491,0l13.451,13.453
			c0.105,0.109,0.133,0.277,0.062,0.41c-0.071,0.135-0.216,0.201-0.369,0.18l-19.724-3.617l3.483,6.418
			c0.093,0.168,0.031,0.381-0.14,0.471C546.511,643.213,546.457,643.229,546.398,643.229 M535.096,634.1l6.815,1.248l-8.725-16.063
			L535.096,634.1z"/>
		<path fill="#FFFFFF" d="M513.801,736.461c-0.133,0-0.258-0.076-0.314-0.199l-7.296-15.412c-0.064-0.131-0.033-0.289,0.068-0.393
			c0.106-0.104,0.265-0.131,0.396-0.068l26.1,12.434c0.136,0.066,0.215,0.211,0.193,0.365c-0.022,0.148-0.14,0.268-0.291,0.291
			l-18.8,2.977C513.835,736.457,513.818,736.461,513.801,736.461 M507.237,721.436l6.766,14.293l17.439-2.762L507.237,721.436z"/>
		<path fill="#FFFFFF" d="M464.623,639.916c-0.089,0-0.178-0.029-0.245-0.102c-0.134-0.135-0.134-0.354,0-0.488l13.451-13.457
			c0.135-0.133,0.357-0.133,0.491,0c0.136,0.137,0.136,0.359,0,0.494l-13.45,13.451
			C464.803,639.887,464.716,639.916,464.623,639.916"/>
		<path fill="#FFFFFF" d="M468.391,669.172c-0.088,0-0.179-0.031-0.244-0.102l-12.382-12.277c-0.075-0.078-0.11-0.189-0.097-0.297
			s0.084-0.203,0.176-0.258l23.507-12.813l-42.047,7.375c-0.183,0.039-0.368-0.09-0.401-0.281c-0.034-0.188,0.095-0.367,0.284-0.402
			l44.133-7.738c0.168-0.035,0.332,0.064,0.389,0.227c0.058,0.16-0.014,0.336-0.163,0.42l-24.957,13.602l12.048,11.949
			c0.136,0.137,0.136,0.357,0,0.494C468.569,669.141,468.482,669.172,468.391,669.172"/>
		<path fill="#FFFFFF" d="M453.012,675.646c-0.086,0-0.172-0.031-0.237-0.094c-0.142-0.131-0.147-0.352-0.014-0.492l19.741-20.939
			c0.136-0.141,0.353-0.148,0.494-0.018c0.138,0.131,0.145,0.352,0.015,0.492l-19.748,20.945
			C453.198,675.611,453.105,675.646,453.012,675.646"/>
		<path fill="#FFFFFF" d="M464.623,711.396c-0.164,0-0.307-0.115-0.34-0.279c-0.035-0.189,0.083-0.371,0.272-0.41l16.598-3.309
			c0.185-0.039,0.369,0.084,0.405,0.273c0.039,0.189-0.082,0.369-0.269,0.406l-16.599,3.311
			C464.669,711.393,464.645,711.396,464.623,711.396"/>
		<path fill="#FFFFFF" d="M513.8,736.461c-0.089,0-0.172-0.035-0.238-0.098l-11.219-10.641l-7.064,7.65
			c-0.088,0.1-0.229,0.135-0.356,0.094c-0.129-0.041-0.226-0.152-0.243-0.285l-2.187-16.914c-0.02-0.148,0.056-0.289,0.188-0.354
			c0.13-0.068,0.288-0.045,0.395,0.057l9.238,8.762l3.938-4.266c0.133-0.141,0.351-0.15,0.494-0.021
			c0.138,0.133,0.147,0.352,0.018,0.494l-3.947,4.271l10.875,10.316l6.869-14.936c0.083-0.174,0.29-0.248,0.462-0.168
			c0.176,0.078,0.251,0.285,0.172,0.459l-7.076,15.375c-0.048,0.1-0.141,0.176-0.251,0.197
			C513.844,736.455,513.824,736.461,513.8,736.461 M493.305,717.148l1.969,15.203l6.567-7.109L493.305,717.148z"/>
		<path fill="#FFFFFF" d="M532.605,733.482c-0.008,0-0.018,0-0.026,0c-0.193-0.016-0.336-0.186-0.321-0.375l1.398-16.811
			c0.012-0.16,0.127-0.283,0.281-0.314l13.087-2.381l-1.125-5.635c-0.022-0.115,0.011-0.229,0.093-0.313
			c0.08-0.084,0.193-0.121,0.312-0.098l16.768,3.15c0.164,0.031,0.285,0.176,0.283,0.342c0,0.168-0.119,0.313-0.284,0.34
			l-15.225,2.771l2.048,10.27c0.04,0.191-0.084,0.373-0.272,0.412c-0.184,0.035-0.368-0.086-0.406-0.275l-2.056-10.281
			l-12.833,2.334l-1.373,16.545C532.935,733.346,532.786,733.482,532.605,733.482 M546.682,708.336l1.025,5.141l13.387-2.436
			L546.682,708.336z"/>
		<path fill="#FFFFFF" d="M590.292,700.504c-0.035,0-0.071-0.004-0.103-0.014l-19.512-6.037l-15.909,2.174
			c-0.146,0.016-0.286-0.055-0.357-0.186c-0.065-0.129-0.043-0.291,0.058-0.398l18.614-19.631l-13.733,6.516
			c-0.172,0.078-0.382,0.008-0.463-0.168c-0.079-0.172-0.009-0.379,0.166-0.463l15.415-7.313c0.153-0.072,0.333-0.025,0.43,0.111
			c0.101,0.137,0.089,0.322-0.026,0.445l-19.215,20.264l15.004-2.051c0.046-0.006,0.102-0.006,0.148,0.014l19.584,6.061
			c0.186,0.057,0.287,0.25,0.229,0.43C590.578,700.414,590.44,700.504,590.292,700.504"/>
		<path fill="#FFFFFF" d="M571.643,656.867c-0.057,0-0.113-0.016-0.165-0.041l-13.516-7.303l-2.832,5.18
			c-0.093,0.172-0.304,0.232-0.472,0.141c-0.168-0.094-0.229-0.305-0.137-0.477l2.831-5.174l-11.12-6.01
			c-0.133-0.07-0.202-0.219-0.176-0.369l3.157-16.762c0.036-0.188,0.217-0.314,0.406-0.277c0.188,0.037,0.313,0.219,0.277,0.408
			l-3.11,16.51l10.896,5.887l5.018-9.178c0.062-0.113,0.203-0.152,0.309-0.18c0.132,0.002,0.249,0.074,0.308,0.189l8.634,16.951
			c0.07,0.133,0.043,0.299-0.067,0.404C571.819,656.834,571.731,656.867,571.643,656.867 M558.297,648.912l12.53,6.771
			l-7.833-15.371L558.297,648.912z"/>
		<path fill="#FFFFFF" d="M559.24,668.584c-0.015,0-0.031,0-0.049-0.004c-0.189-0.023-0.321-0.199-0.295-0.389l3.767-28.666
			c0.021-0.193,0.197-0.322,0.387-0.301c0.193,0.025,0.326,0.201,0.3,0.391l-3.766,28.666
			C559.562,668.455,559.411,668.584,559.24,668.584"/>
		<path fill="#FFFFFF" d="M506.752,630.297c-0.094,0-0.187-0.039-0.251-0.111l-11.729-12.465c-0.132-0.139-0.123-0.361,0.015-0.492
			c0.14-0.131,0.36-0.125,0.492,0.014l11.553,12.283l11.16-5.383l-4.505-9.488c-0.058-0.117-0.04-0.254,0.035-0.359
			c0.078-0.102,0.207-0.15,0.33-0.133l18.809,2.977c0.147,0.023,0.266,0.143,0.288,0.293c0.021,0.154-0.058,0.295-0.191,0.365
			l-13.846,6.672l2.519,5.299c0.08,0.172,0.006,0.383-0.166,0.465c-0.176,0.082-0.384,0.008-0.463-0.164l-2.513-5.295l-11.386,5.49
			C506.854,630.287,506.801,630.297,506.752,630.297 M514.399,614.951l4.217,8.891l12.836-6.191L514.399,614.951z"/>
		<path fill="#FFFFFF" d="M534.783,634.742c-0.086,0-0.172-0.031-0.24-0.094l-20.981-19.891c-0.141-0.133-0.145-0.354-0.016-0.49
			c0.134-0.141,0.354-0.145,0.494-0.014l20.983,19.891c0.139,0.129,0.143,0.35,0.012,0.49
			C534.968,634.707,534.876,634.742,534.783,634.742"/>
		<path fill="#FFFFFF" d="M513.801,756.07L513.801,756.07c-0.104,0-0.204-0.047-0.269-0.127L494.9,733.525l-28.262,7.174
			c-0.104,0.025-0.21,0.004-0.291-0.055c-0.084-0.063-0.134-0.154-0.144-0.26l-1.911-29.096l-27.177-10.807
			c-0.097-0.039-0.169-0.117-0.202-0.215c-0.031-0.102-0.018-0.207,0.037-0.295l15.652-24.672l-15.652-24.654
			c-0.055-0.09-0.068-0.195-0.037-0.293c0.033-0.1,0.105-0.18,0.202-0.217l27.177-10.809l1.91-29.1
			c0.007-0.1,0.059-0.197,0.143-0.26c0.083-0.059,0.189-0.08,0.291-0.053l28.264,7.176l18.66-22.416
			c0.068-0.08,0.165-0.127,0.267-0.127c0.104,0,0.203,0.047,0.269,0.127l18.638,22.416l28.262-7.176
			c0.101-0.025,0.21-0.006,0.289,0.053c0.083,0.063,0.137,0.16,0.141,0.26l1.914,29.1l27.081,10.82
			c0.097,0.039,0.17,0.119,0.203,0.215c0.03,0.102,0.018,0.207-0.035,0.295l-15.558,24.643l15.558,24.672
			c0.053,0.088,0.065,0.193,0.035,0.295c-0.033,0.098-0.106,0.176-0.203,0.215l-27.081,10.807l-1.914,29.115
			c-0.004,0.102-0.058,0.195-0.141,0.258c-0.084,0.059-0.192,0.08-0.289,0.055l-28.262-7.191l-18.664,22.418
			C514.002,756.023,513.905,756.07,513.801,756.07 M495.026,732.785c0.101,0,0.2,0.047,0.269,0.129l18.507,22.262l18.535-22.262
			c0.086-0.104,0.225-0.15,0.354-0.115l28.068,7.141l1.9-28.914c0.01-0.135,0.093-0.248,0.217-0.301l26.9-10.734l-15.452-24.504
			c-0.072-0.113-0.072-0.258,0-0.371l15.452-24.475l-26.899-10.75c-0.122-0.049-0.208-0.164-0.218-0.299l-1.9-28.9l-28.068,7.127
			c-0.13,0.035-0.269-0.012-0.354-0.115l-18.51-22.262l-18.532,22.262c-0.086,0.104-0.223,0.15-0.354,0.115l-28.071-7.127
			l-1.897,28.9c-0.01,0.135-0.096,0.25-0.219,0.303l-26.989,10.734l15.542,24.484c0.072,0.115,0.072,0.26,0,0.373l-15.542,24.504
			l26.989,10.734c0.126,0.049,0.209,0.166,0.219,0.301l1.897,28.896l28.071-7.123C494.971,732.791,494.996,732.785,495.026,732.785"
			/>
		<path fill="#FFFFFF" d="M464.623,639.916c-0.166,0-0.309-0.115-0.34-0.283c-0.038-0.188,0.089-0.373,0.277-0.404l27.454-5.098
			l-14.104-7.707c-0.046-0.025-0.089-0.061-0.117-0.104l-11.528-15.865c-0.11-0.154-0.075-0.371,0.079-0.482
			c0.154-0.113,0.372-0.08,0.484,0.076l11.482,15.801l14.892,8.139c0.133,0.07,0.201,0.215,0.179,0.361
			c-0.024,0.145-0.139,0.258-0.282,0.285l-28.415,5.277C464.667,639.916,464.645,639.916,464.623,639.916"/>
		<path fill="#FFFFFF" d="M549.898,682.277c-0.838-0.482-2.381-1.275-4.503-1.949c-3.058-0.977-7.32-1.705-12.373-0.908
			c-1.698,0.273-3.496,0.719-5.356,1.385c-0.179,0.064-0.356,0.127-0.535,0.193c-0.947,0.355-1.894,0.785-2.838,1.264
			c-0.809,0.41-1.614,0.855-2.421,1.34c-1.825,1.1-3.635,2.365-5.391,3.711c-1.999-12.096-1.025-23.32-0.561-28.838
			c0.003-0.027,0.04-0.045,0.066-0.027c4.276,2.695,3.079,10.227,2.182,12.381c-0.019,0.039,0.047,0.068,0.078,0.033
			c5.324-6.307,2.722-13.266,1.629-15.031c-0.025-0.035,0.031-0.074,0.067-0.043c0.771,0.623,1.4,1.287,1.929,1.963
			c1.654,2.111,2.256,4.387,2.421,6.396c0.087,1.061,0.059,2.047,0,2.893c-0.019,0.225-0.034,0.439-0.051,0.646
			c0,0.029,0.025,0.037,0.051,0.033c0.011-0.004,0.021-0.004,0.028-0.016c1.436-2.826,2.13-7.107-0.028-11.262
			c-0.584-1.123-1.378-2.236-2.421-3.316c-0.3-0.309-0.617-0.617-0.962-0.92c-0.033-0.025-0.006-0.084,0.036-0.072
			c0.322,0.076,0.626,0.168,0.926,0.275c0.911,0.316,1.713,0.752,2.421,1.273c1.615,1.197,2.714,2.838,3.373,4.549
			c0.54,1.414,0.795,2.871,0.782,4.162c0,0.051,0.068,0.055,0.08,0.01c0.998-3.691,0.404-6.475-0.862-8.512
			c-0.9-1.447-2.141-2.518-3.373-3.262c-0.845-0.508-1.686-0.865-2.421-1.084c-0.428-0.129-0.823-0.215-1.154-0.256
			c-0.048-0.006-0.04-0.074,0.007-0.084c0.397-0.037,0.781-0.057,1.147-0.061c0.9-0.02,1.695,0.061,2.421,0.197
			c1.425,0.264,2.534,0.77,3.373,1.338c1.354,0.916,2.032,1.986,2.262,2.424c0.021,0.039,0.083,0.014,0.083-0.031
			c-0.193-1.945-1.094-3.471-2.345-4.563c-0.967-0.844-2.146-1.436-3.373-1.775c-0.801-0.225-1.619-0.34-2.421-0.348
			c-1.084-0.014-2.128,0.166-3.02,0.539c-0.037,0.018-0.068-0.029-0.047-0.059c0.783-1.129,1.895-1.822,3.066-2.18
			c0.811-0.248,1.642-0.332,2.421-0.285c0.744,0.041,1.432,0.205,1.98,0.465c0.042,0.018,0.078-0.031,0.047-0.066
			c-0.605-0.697-1.294-1.242-2.027-1.65c-0.773-0.428-1.593-0.697-2.421-0.785c-2.161-0.248-4.355,0.668-5.823,2.889
			c-0.018,0.027-0.053,0.027-0.07,0c-0.282-0.502-0.551-1.059-0.804-1.643c-0.586-1.355-1.07-2.891-1.322-4.406
			c-0.006-0.041-0.065-0.041-0.072,0c-0.254,1.523-0.741,3.063-1.328,4.424c-0.251,0.582-0.52,1.133-0.798,1.625
			c-0.012,0.027-0.05,0.027-0.069,0c-2.559-3.875-7.355-3.801-10.272-0.453c-0.029,0.035,0.006,0.084,0.047,0.066
			c1.945-0.926,5.63-0.654,7.469,2c0.022,0.029-0.01,0.076-0.049,0.059c-2.846-1.195-7.241-0.416-9.587,2.381
			c-0.84,0.996-1.42,2.25-1.567,3.766c-0.007,0.045,0.057,0.07,0.076,0.031c0.188-0.344,0.644-1.078,1.491-1.828
			c1.368-1.207,3.764-2.439,7.718-2.07c0.046,0.01,0.055,0.078,0.004,0.084c-2.024,0.252-6.187,2.059-7.722,6.191
			c-0.684,1.828-0.852,4.111-0.09,6.922c0.011,0.045,0.083,0.041,0.083-0.01c0-0.063,0.007-0.123,0.007-0.189
			c0.037-3.756,2.188-8.787,7.495-10.07c0.041-0.012,0.069,0.047,0.037,0.072c-5.938,5.232-5.349,11.686-3.411,15.498
			c0.021,0.041,0.083,0.023,0.079-0.018c-0.258-2.885-0.467-8.023,4.299-11.898c0.035-0.031,0.09,0.008,0.068,0.043
			c-1.1,1.766-3.698,8.725,1.628,15.031c0.025,0.035,0.097,0.006,0.076-0.033c-0.896-2.154-2.095-9.686,2.183-12.381
			c0.021-0.018,0.062,0,0.062,0.027c0.468,5.518,1.441,16.742-0.553,28.838c-3.438-2.633-7.063-4.957-10.652-6.314
			c-0.444-0.168-0.881-0.318-1.311-0.459c-3.705-1.219-7.102-1.563-10.062-1.436c-4.758,0.207-8.391,1.635-10.389,2.633
			c-0.403,0.203-0.741,0.389-1.01,0.541c-0.106,0.061-0.03,0.217,0.087,0.182c0.309-0.098,0.619-0.186,0.923-0.268
			c3.655-1.035,7.117-1.313,10.389-1.027c3.573,0.314,6.923,1.299,10.062,2.713c4.398,1.986,8.385,4.814,11.975,7.811
			c-5.069,4.436-9.369,8.748-11.975,10.262c-0.129,0.076-0.264,0.148-0.383,0.213c-0.623-0.855-1.707-1.348-2.895-1.094
			c-1.028,0.23-1.866,1.053-2.103,2.08c-0.207,0.918,0.033,1.906,0.551,2.422c1.383,1.389,2.989,1.48,4.829,0.705
			c3.512-1.479,7.887-6.137,13.26-11.063c0.446-0.408,0.898-0.818,1.366-1.234c0.458,0.408,0.907,0.822,1.356,1.23
			c2.432,2.23,4.658,4.402,6.697,6.258c0.839,0.766,1.642,1.467,2.421,2.102c1.199,0.979,2.323,1.789,3.373,2.342
			c2.055,1.088,3.83,1.219,5.356-0.115c0.081-0.074,0.165-0.141,0.248-0.225c0.348-0.348,0.753-1.504,0.547-2.422
			c-0.121-0.529-0.406-1.004-0.795-1.375c-0.364-0.342-0.811-0.59-1.306-0.705c-1.186-0.254-2.271,0.238-2.893,1.094
			c-0.35-0.18-0.743-0.42-1.158-0.709c-0.963-0.664-2.099-1.604-3.373-2.723c-0.759-0.67-1.567-1.4-2.421-2.174
			c-1.656-1.508-3.475-3.178-5.408-4.869c1.712-1.426,3.514-2.814,5.408-4.096c0.793-0.533,1.599-1.049,2.421-1.539
			c1.095-0.654,2.217-1.26,3.373-1.811c1.718-0.826,3.504-1.525,5.356-2.051c3.834-1.102,7.952-1.48,12.373-0.773
			c1.441,0.229,2.913,0.566,4.414,1.041C549.926,682.494,550.002,682.338,549.898,682.277"/>
		<path fill="#FFFFFF" d="M496.018,634.395c0,1.645-1.333,2.982-2.981,2.982c-1.645,0-2.979-1.338-2.979-2.982
			s1.335-2.98,2.979-2.98C494.685,631.414,496.018,632.75,496.018,634.395"/>
		<path fill="#FFFFFF" d="M482.655,642.717c0,0.705-0.569,1.279-1.271,1.279c-0.705,0-1.278-0.574-1.278-1.279
			c0-0.699,0.573-1.273,1.278-1.273C482.085,641.443,482.655,642.018,482.655,642.717"/>
		<path fill="#FFFFFF" d="M517.105,736.111c0,1.811-1.467,3.277-3.278,3.277c-1.806,0-3.277-1.467-3.277-3.277
			c0-1.809,1.472-3.277,3.277-3.277C515.638,732.834,517.105,734.303,517.105,736.111"/>
		<path fill="#FFFFFF" d="M515.555,755.721c0,0.986-0.799,1.789-1.786,1.789c-0.988,0-1.788-0.803-1.788-1.789
			c0-0.988,0.8-1.787,1.788-1.787C514.756,753.934,515.555,754.732,515.555,755.721"/>
		<path fill="#FFFFFF" d="M456.289,675.301c0,1.807-1.467,3.277-3.277,3.277s-3.276-1.471-3.276-3.277
			c0-1.811,1.466-3.275,3.276-3.275S456.289,673.49,456.289,675.301"/>
		<path fill="#FFFFFF" d="M474.74,696.078c0,1.098-0.89,1.984-1.982,1.984c-1.096,0-1.98-0.887-1.98-1.984
			c0-1.092,0.885-1.982,1.98-1.982C473.85,694.096,474.74,694.986,474.74,696.078"/>
		<path fill="#FFFFFF" d="M557.328,654.535c0,1.383-1.119,2.506-2.502,2.506s-2.502-1.123-2.502-2.506c0-1.381,1.119-2.5,2.502-2.5
			S557.328,653.154,557.328,654.535"/>
		<path fill="#FFFFFF" d="M536.921,617.482c0,2.385-1.933,4.316-4.317,4.316c-2.387,0-4.317-1.932-4.317-4.316
			s1.931-4.32,4.317-4.32C534.989,613.162,536.921,615.098,536.921,617.482"/>
		<path fill="#FFFFFF" d="M508.073,720.736c0,0.674-0.545,1.219-1.22,1.219c-0.67,0-1.215-0.545-1.215-1.219
			c0-0.67,0.545-1.217,1.215-1.217C507.529,719.52,508.073,720.066,508.073,720.736"/>
		<path fill="#FFFFFF" d="M561.291,682.674c0,1.135-0.92,2.055-2.055,2.055c-1.134,0-2.052-0.92-2.052-2.055
			s0.918-2.055,2.052-2.055C560.371,680.619,561.291,681.539,561.291,682.674"/>
		<path fill="#FFFFFF" d="M534.741,733.135c0,1.18-0.956,2.135-2.137,2.135s-2.137-0.955-2.137-2.135s0.956-2.135,2.137-2.135
			S534.741,731.955,534.741,733.135"/>
		<path fill="#FFFFFF" d="M469.635,668.127c0,0.766-0.616,1.385-1.383,1.385c-0.762,0-1.384-0.619-1.384-1.385
			c0-0.762,0.622-1.383,1.384-1.383C469.019,666.744,469.635,667.365,469.635,668.127"/>
		<path fill="#FFFFFF" d="M439.821,700.053c0,1.418-1.153,2.574-2.577,2.574c-1.422,0-2.574-1.156-2.574-2.574
			c0-1.424,1.152-2.578,2.574-2.578C438.667,697.475,439.821,698.629,439.821,700.053"/>
		<path fill="#FFFFFF" d="M482.809,707.738c0,0.877-0.709,1.59-1.59,1.59c-0.877,0-1.588-0.713-1.588-1.59s0.711-1.586,1.588-1.586
			C482.1,706.152,482.809,706.861,482.809,707.738"/>
		<path fill="#FFFFFF" d="M497.357,733.135c0,1.289-1.043,2.334-2.329,2.334c-1.288,0-2.335-1.045-2.335-2.334
			c0-1.287,1.047-2.33,2.335-2.33C496.314,730.805,497.357,731.848,497.357,733.135"/>
		<path fill="#FFFFFF" d="M469.976,610.252c0,1.893-1.535,3.426-3.424,3.426c-1.894,0-3.429-1.533-3.429-3.426
			c0-1.891,1.535-3.428,3.429-3.428C468.441,606.824,469.976,608.361,469.976,610.252"/>
		<path fill="#FFFFFF" d="M457.891,694.096c0,0.887-0.716,1.604-1.602,1.604s-1.602-0.717-1.602-1.604
			c0-0.879,0.716-1.598,1.602-1.598S457.891,693.217,457.891,694.096"/>
		<path fill="#FFFFFF" d="M479.911,724.498c0,1.014-0.825,1.838-1.835,1.838c-1.016,0-1.834-0.824-1.834-1.838
			s0.818-1.834,1.834-1.834C479.086,722.664,479.911,723.484,479.911,724.498"/>
		<path fill="#FFFFFF" d="M547.768,642.717c0,0.758-0.609,1.369-1.367,1.369c-0.753,0-1.368-0.611-1.368-1.369
			c0-0.754,0.615-1.365,1.368-1.365C547.158,641.352,547.768,641.963,547.768,642.717"/>
		<path fill="#FFFFFF" d="M578.547,675.314c0,2.172-1.76,3.93-3.929,3.93c-2.17,0-3.927-1.758-3.927-3.93
			c0-2.168,1.757-3.928,3.927-3.928C576.787,671.387,578.547,673.146,578.547,675.314"/>
		<path fill="#FFFFFF" d="M523.615,629.918c0,1.383-1.121,2.502-2.502,2.502c-1.383,0-2.502-1.119-2.502-2.502
			s1.119-2.502,2.502-2.502C522.494,627.416,523.615,628.535,523.615,629.918"/>
		<path fill="#FFFFFF" d="M572.95,694.096c0,0.723-0.588,1.309-1.308,1.309c-0.723,0-1.309-0.586-1.309-1.309
			c0-0.719,0.586-1.305,1.309-1.305C572.363,692.791,572.95,693.377,572.95,694.096"/>
		<path fill="#FFFFFF" d="M498.451,617.482c0,1.891-1.535,3.424-3.424,3.424c-1.895,0-3.429-1.533-3.429-3.424
			c0-1.893,1.534-3.43,3.429-3.43C496.916,614.053,498.451,615.59,498.451,617.482"/>
		<path fill="#FFFFFF" d="M535.648,716.221c0,0.775-0.624,1.404-1.4,1.404c-0.774,0-1.404-0.629-1.404-1.404s0.63-1.4,1.404-1.4
			C535.024,714.82,535.648,715.445,535.648,716.221"/>
		<path fill="#FFFFFF" d="M564.653,639.568c0,0.912-0.74,1.645-1.646,1.645c-0.909,0-1.645-0.732-1.645-1.645
			c0-0.908,0.735-1.643,1.645-1.643C563.912,637.926,564.653,638.66,564.653,639.568"/>
		<path fill="#FFFFFF" d="M467.451,639.568c0,1.564-1.266,2.828-2.827,2.828c-1.563,0-2.827-1.264-2.827-2.828
			c0-1.561,1.264-2.824,2.827-2.824C466.186,636.744,467.451,638.008,467.451,639.568"/>
		<path fill="#FFFFFF" d="M549.065,707.9c0,1.561-1.265,2.824-2.822,2.824c-1.564,0-2.828-1.264-2.828-2.824
			c0-1.564,1.264-2.828,2.828-2.828C547.8,705.072,549.065,706.336,549.065,707.9"/>
		<path fill="#FFFFFF" d="M458.366,656.234c0,1.314-1.063,2.379-2.377,2.379c-1.316,0-2.378-1.064-2.378-2.379
			c0-1.313,1.062-2.377,2.378-2.377C457.303,653.857,458.366,654.922,458.366,656.234"/>
		<path fill="#FFFFFF" d="M592.67,650.473c0,1.313-1.066,2.379-2.381,2.379c-1.313,0-2.376-1.066-2.376-2.379
			c0-1.311,1.063-2.377,2.376-2.377C591.604,648.096,592.67,649.162,592.67,650.473"/>
		<path fill="#FFFFFF" d="M562.394,610.252c0,0.727-0.591,1.316-1.314,1.316c-0.726,0-1.313-0.59-1.313-1.316
			c0-0.725,0.588-1.314,1.313-1.314C561.803,608.938,562.394,609.527,562.394,610.252"/>
		<path fill="#FFFFFF" d="M550.611,724.498c0,0.584-0.471,1.057-1.057,1.057c-0.584,0-1.057-0.473-1.057-1.057
			c0-0.582,0.473-1.053,1.057-1.053C550.14,723.445,550.611,723.916,550.611,724.498"/>
		<path fill="#FFFFFF" d="M592.226,700.17c0,1.07-0.87,1.938-1.938,1.938c-1.07,0-1.938-0.867-1.938-1.938s0.867-1.936,1.938-1.936
			C591.356,698.234,592.226,699.1,592.226,700.17"/>
		<path fill="#FFFFFF" d="M565.63,740.381c0,2.355-1.911,4.268-4.271,4.268c-2.355,0-4.27-1.912-4.27-4.268
			c0-2.357,1.914-4.27,4.27-4.27C563.719,736.111,565.63,738.023,565.63,740.381"/>
		<path fill="#FFFFFF" d="M470.774,682.445c0,1.305-1.056,2.357-2.356,2.357c-1.302,0-2.357-1.053-2.357-2.357
			c0-1.301,1.056-2.355,2.357-2.355C469.718,680.09,470.774,681.145,470.774,682.445"/>
		<path fill="#FFFFFF" d="M495.388,716.221c0,1.494-1.206,2.701-2.695,2.701c-1.487,0-2.697-1.207-2.697-2.701
			c0-1.488,1.21-2.695,2.697-2.695C494.182,713.525,495.388,714.732,495.388,716.221"/>
		<path fill="#FFFFFF" d="M556.695,696.281c0,1.088-0.881,1.975-1.972,1.975s-1.972-0.887-1.972-1.975s0.881-1.973,1.972-1.973
			S556.695,695.193,556.695,696.281"/>
		<path fill="#FFFFFF" d="M470.075,739.904c0,2.094-1.7,3.791-3.792,3.791c-2.096,0-3.793-1.697-3.793-3.791
			c0-2.098,1.697-3.793,3.793-3.793C468.375,736.111,470.075,737.807,470.075,739.904"/>
		<path fill="#FFFFFF" d="M522.845,720.736c0,1.07-0.864,1.934-1.929,1.934c-1.07,0-1.936-0.863-1.936-1.934
			c0-1.064,0.865-1.93,1.936-1.93C521.981,718.807,522.845,719.672,522.845,720.736"/>
		<path fill="#FFFFFF" d="M474.483,654.359c0,0.951-0.773,1.721-1.726,1.721c-0.95,0-1.726-0.77-1.726-1.721
			c0-0.955,0.775-1.727,1.726-1.727C473.709,652.633,474.483,653.404,474.483,654.359"/>
		<path fill="#FFFFFF" d="M467.345,710.725c0,1.65-1.339,2.99-2.986,2.99c-1.652,0-2.988-1.34-2.988-2.99
			c0-1.648,1.336-2.986,2.988-2.986C466.006,707.738,467.345,709.076,467.345,710.725"/>
		<path fill="#FFFFFF" d="M508.193,629.918c0,0.797-0.646,1.439-1.44,1.439s-1.439-0.643-1.439-1.439
			c0-0.799,0.645-1.439,1.439-1.439S508.193,629.119,508.193,629.918"/>
		<path fill="#FFFFFF" d="M439.019,650.535c0,0.871-0.705,1.572-1.574,1.572c-0.867,0-1.575-0.701-1.575-1.572
			c0-0.867,0.708-1.574,1.575-1.574C438.314,648.961,439.019,649.668,439.019,650.535"/>
		<path fill="#FFFFFF" d="M573.642,656.52c0,1.104-0.896,1.996-1.999,1.996c-1.105,0-2-0.893-2-1.996s0.895-1.998,2-1.998
			C572.746,654.521,573.642,655.416,573.642,656.52"/>
		<path fill="#FFFFFF" d="M536.528,634.395c0,0.963-0.781,1.742-1.742,1.742c-0.965,0-1.744-0.779-1.744-1.742
			c0-0.961,0.779-1.742,1.744-1.742C535.746,632.652,536.528,633.434,536.528,634.395"/>
		<path fill="#FFFFFF" d="M560.847,668.238c0,0.887-0.718,1.607-1.607,1.607s-1.612-0.721-1.612-1.607
			c0-0.891,0.723-1.607,1.612-1.607S560.847,667.348,560.847,668.238"/>
		<path fill="#FFFFFF" d="M551.932,626.117c0,1.313-1.065,2.379-2.378,2.379c-1.313,0-2.374-1.066-2.374-2.379
			c0-1.314,1.061-2.375,2.374-2.375C550.866,623.742,551.932,624.803,551.932,626.117"/>
		<path fill="#FFFFFF" d="M516.205,614.506c0,1.313-1.066,2.375-2.379,2.375c-1.313,0-2.374-1.063-2.374-2.375
			c0-1.314,1.061-2.379,2.374-2.379C515.139,612.127,516.205,613.191,516.205,614.506"/>
		<path fill="#FFFFFF" d="M565.383,711.049c0,1.311-1.064,2.375-2.377,2.375c-1.313,0-2.374-1.064-2.374-2.375
			c0-1.316,1.061-2.377,2.374-2.377C564.319,708.672,565.383,709.732,565.383,711.049"/>
		<path fill="#FFFFFF" d="M479.743,626.117c0,0.92-0.747,1.668-1.669,1.668c-0.921,0-1.666-0.748-1.666-1.668
			c0-0.918,0.745-1.666,1.666-1.666C478.996,624.451,479.743,625.199,479.743,626.117"/>
		<path fill="#FFFFFF" d="M511.24,594.898c0-1.428,1.158-2.588,2.586-2.588c1.429,0,2.587,1.16,2.587,2.588
			c0,1.426-1.158,2.584-2.587,2.584C512.399,597.482,511.24,596.324,511.24,594.898"/>
	</g>
	<g display="inline">
		<g>
			<text transform="matrix(1 0 0 1 -13.907 672.4434)" fill="#FFFFFF" font-family="'DroidArabicKufi'" font-size="48.5992">  </text>
		</g>
		<g>
			<text transform="matrix(1 0 0 1 -4.1096 718.332)" fill="#FFFFFF" font-family="'DroidArabicKufi'" font-size="25.9983">   </text>
		</g>
	</g>
</g>
</svg>
