<?xml version="1.0" encoding="utf-8"?>
<!-- Generator: Adobe Illustrator 16.0.0, SVG Export Plug-In . SVG Version: 6.00 Build 0)  -->
<!DOCTYPE svg PUBLIC "-//W3C//DTD SVG 1.1//EN" "http://www.w3.org/Graphics/SVG/1.1/DTD/svg11.dtd">
<svg version="1.1" id="Layer_1" xmlns="http://www.w3.org/2000/svg" xmlns:xlink="http://www.w3.org/1999/xlink" x="0px" y="0px"
	 width="32px" height="32px" viewBox="0 0 32 32" enable-background="new 0 0 32 32" xml:space="preserve">
<g>
	<path d="M16,0C7.18,0,0,7.177,0,16c0,4.578,1.941,8.7,5.033,11.62c1.922,1.813,4.287,3.151,6.918,3.84C13.248,31.801,14.6,32,16,32
		s2.752-0.199,4.047-0.54c2.471-0.647,4.705-1.865,6.559-3.515C29.906,25.014,32,20.751,32,16C32,7.177,24.822,0,16,0z M16,30.2
		c-4.412,0-8.359-2.021-10.967-5.188c-2.021-2.453-3.236-5.595-3.236-9.014C1.797,8.167,8.168,1.797,16,1.797
		s14.203,6.371,14.203,14.202c0,3.612-1.369,6.901-3.598,9.412C24.002,28.342,20.219,30.2,16,30.2L16,30.2z"/>
	<path d="M21.895,14.858c0.004-0.249-0.094-0.489-0.273-0.664c-0.175-0.179-0.415-0.278-0.664-0.273h-0.313v-1.253v-0.023
		c0-1.204-0.429-2.234-1.284-3.091c-0.856-0.855-1.885-1.283-3.09-1.283s-2.234,0.428-3.091,1.283
		c-0.855,0.856-1.285,1.887-1.285,3.091v1.276h-0.312c-0.249-0.005-0.49,0.095-0.664,0.273c-0.179,0.175-0.278,0.415-0.273,0.664
		v7.394c0,0.26,0.091,0.48,0.273,0.664c0.182,0.182,0.402,0.273,0.664,0.273h9.374c0.249,0.004,0.489-0.096,0.664-0.273
		c0.18-0.174,0.277-0.414,0.273-0.664V14.858z M17.461,20.789h-1.067h-1.067l0.46-2.055c-0.48-0.227-0.815-0.715-0.815-1.281
		c0-0.787,0.638-1.422,1.423-1.422s1.422,0.635,1.422,1.422c0,0.566-0.335,1.055-0.815,1.281L17.461,20.789z M18.768,13.92H13.77
		v-1.276c0-0.69,0.243-1.279,0.734-1.767c0.461-0.479,1.102-0.742,1.767-0.732c0.689,0,1.28,0.244,1.768,0.732
		c0.487,0.487,0.732,1.078,0.732,1.767v1.276H18.768z"/>
</g>
</svg>
