<?xml version="1.0" encoding="utf-8"?>
<!-- Generator: Adobe Illustrator 16.0.0, SVG Export Plug-In . SVG Version: 6.00 Build 0)  -->
<!DOCTYPE svg PUBLIC "-//W3C//DTD SVG 1.1//EN" "http://www.w3.org/Graphics/SVG/1.1/DTD/svg11.dtd">
<svg version="1.1" id="Layer_1" xmlns="http://www.w3.org/2000/svg" xmlns:xlink="http://www.w3.org/1999/xlink" x="0px" y="0px"
	 width="32px" height="32px" viewBox="0 0 32 32" enable-background="new 0 0 32 32" xml:space="preserve">
<path d="M16,0C7.179,0,0,7.177,0,16c0,4.578,1.942,8.7,5.033,11.62c1.922,1.813,4.288,3.151,6.918,3.84C13.248,31.801,14.6,32,16,32
	c1.4,0,2.752-0.199,4.047-0.54c2.471-0.647,4.705-1.865,6.559-3.515C29.906,25.014,32,20.751,32,16C32,7.177,24.822,0,16,0z
	 M16,30.2c-4.412,0-8.359-2.021-10.967-5.188c-2.021-2.453-3.236-5.595-3.236-9.014C1.797,8.167,8.168,1.797,16,1.797
	s14.203,6.371,14.203,14.202c0,3.612-1.369,6.901-3.598,9.412C24.002,28.342,20.219,30.2,16,30.2L16,30.2z"/>
<path d="M21.621,16.003c-0.174-0.178-0.414-0.278-0.663-0.273h-7.189v-3.125c0-0.69,0.244-1.279,0.733-1.768
	c0.464-0.478,1.103-0.741,1.768-0.731c0.69,0,1.28,0.243,1.767,0.731c0.489,0.488,0.733,1.078,0.733,1.768
	c0,0.17,0.062,0.315,0.186,0.438c0.113,0.12,0.273,0.188,0.438,0.187h0.626c0.168,0,0.315-0.062,0.439-0.187
	c0.119-0.114,0.187-0.272,0.186-0.438c0-1.204-0.429-2.234-1.284-3.091c-0.856-0.855-1.887-1.284-3.091-1.284
	c-1.205,0-2.235,0.429-3.091,1.284c-0.856,0.856-1.285,1.887-1.285,3.091v3.125h-0.312c-0.249-0.004-0.49,0.096-0.664,0.273
	c-0.179,0.174-0.277,0.415-0.273,0.664v5.625c0,0.26,0.091,0.481,0.273,0.664c0.182,0.182,0.403,0.273,0.664,0.273h9.375
	c0.249,0.004,0.489-0.096,0.663-0.273c0.179-0.174,0.277-0.415,0.274-0.664v-5.625C21.898,16.418,21.8,16.177,21.621,16.003z"/>
</svg>
