<?xml version="1.0" encoding="utf-8"?>
<!-- Generator: Adobe Illustrator 16.0.0, SVG Export Plug-In . SVG Version: 6.00 Build 0)  -->
<!DOCTYPE svg PUBLIC "-//W3C//DTD SVG 1.1//EN" "http://www.w3.org/Graphics/SVG/1.1/DTD/svg11.dtd">
<svg version="1.1" id="Layer_1" xmlns="http://www.w3.org/2000/svg" xmlns:xlink="http://www.w3.org/1999/xlink" x="0px" y="0px"
	 width="32px" height="32px" viewBox="0 0 32 32" enable-background="new 0 0 32 32" xml:space="preserve">
<g>
	<g>
		<path d="M16,0C7.179,0,0,7.177,0,16c0,4.578,1.942,8.7,5.033,11.62c1.922,1.813,4.288,3.151,6.918,3.84
			C13.248,31.801,14.6,32,16,32c1.4,0,2.752-0.199,4.047-0.54c2.471-0.647,4.705-1.865,6.559-3.515C29.906,25.014,32,20.751,32,16
			C32,7.177,24.822,0,16,0z M16,30.2c-4.412,0-8.359-2.021-10.967-5.188c-2.021-2.453-3.236-5.595-3.236-9.014
			C1.797,8.167,8.168,1.797,16,1.797s14.203,6.371,14.203,14.202c0,3.612-1.369,6.901-3.598,9.412
			C24.002,28.342,20.219,30.2,16,30.2L16,30.2z"/>
		<g>
			<path d="M14.335,12.143c-0.01,0.108-0.014,0.218-0.015,0.326c0.001,1.981,1.601,3.585,3.575,3.585
				c0.106,0,0.217-0.004,0.321-0.012c0.039,1.403-0.563,2.542-1.741,3.386c-0.152,0.109-0.229,0.211-0.202,0.396
				c0.007,0.045-0.003,0.091-0.007,0.146h-3.873c-0.01-0.017-0.015-0.021-0.014-0.026c0.063-0.303-0.113-0.443-0.335-0.604
				c-1.285-0.928-1.88-2.572-1.519-4.138c0.361-1.563,1.623-2.758,3.176-3.008C13.913,12.159,14.123,12.142,14.335,12.143z
				 M16.271,21.926c-0.008,0.397-0.136,0.719-0.4,0.967c-0.214,0.201-0.463,0.318-0.739,0.324c-0.538,0.014-1.077,0.021-1.614,0
				c-0.576-0.023-1.023-0.459-1.127-1.061c-0.012-0.071-0.012-0.146-0.018-0.231L16.271,21.926L16.271,21.926L16.271,21.926z
				 M12.38,21.273c-0.004-0.039-0.008-0.069-0.008-0.101V20.62h3.897v0.653H12.38L12.38,21.273z"/>
			<g>
				<path d="M18.545,8.229c-1.971,0-3.574,1.609-3.574,3.586c0,1.979,1.605,3.588,3.574,3.588s3.574-1.609,3.574-3.588
					C22.119,9.839,20.514,8.229,18.545,8.229z M18.578,14.378c-1.432-0.004-2.589-1.166-2.587-2.596
					c0-0.547,0.164-1.063,0.479-1.503l3.604,3.618C19.641,14.212,19.115,14.38,18.578,14.378z M20.617,13.353l-3.604-3.617
					c0.436-0.314,0.959-0.482,1.495-0.48c1.433,0.004,2.589,1.166,2.587,2.596c0,0.547-0.162,1.063-0.479,1.504L20.617,13.353
					L20.617,13.353z"/>
			</g>
		</g>
	</g>
</g>
</svg>
