<?xml version="1.0" encoding="utf-8"?>
<!-- Generator: Adobe Illustrator 16.0.0, SVG Export Plug-In . SVG Version: 6.00 Build 0)  -->
<!DOCTYPE svg PUBLIC "-//W3C//DTD SVG 1.1//EN" "http://www.w3.org/Graphics/SVG/1.1/DTD/svg11.dtd">
<svg version="1.1" id="Layer_1" xmlns="http://www.w3.org/2000/svg" xmlns:xlink="http://www.w3.org/1999/xlink" x="0px" y="0px"
	 width="32px" height="32px" viewBox="77.938 36.037 32 32" enable-background="new 77.938 36.037 32 32" xml:space="preserve">
<g>
	<path d="M90.001,54.5h-4.548c-0.538,0-0.382,0.945-0.382,1.5v4.644h4.45c0.536,0,1.454,0.108,1.454-0.446v-4.693
		C90.976,54.947,90.54,54.5,90.001,54.5z"/>
	<path d="M107.155,39.081h-8.348l0.16-1.557c0-0.822-0.614-1.487-1.375-1.487c-0.756,0-1.369,0.665-1.369,1.487l-0.197,1.557h-4.174
		l-0.199-1.557c0-0.822-0.613-1.487-1.371-1.487s-1.213,0.7-1.213,1.519v1.525h-8.35c-1.919,0-2.781,1.779-2.781,4.279v20.217
		c0,2.502,1.506,4.46,3.421,4.46h25.156c1.919,0,3.423-1.958,3.423-4.46V43.36C109.938,40.86,109.076,39.081,107.155,39.081z
		 M80.426,42.452l8.027-0.261v0.614c0,0.836,0.777,1.198,1.521,1.198c0.742,0,1.169-0.362,1.169-1.198v-0.614h4.483v0.614
		c0,0.836,0.425,1.198,1.169,1.198c0.741,0,1.519-0.362,1.519-1.198v-0.614l0,0h7.4c0.235,0,0.67,0.573,0.67,1.515l-0.041,3.406
		H80.422l-0.037-3.406C80.385,42.767,80.19,42.452,80.426,42.452z M107.447,64.344H80.43c-0.247,0-0.043-0.479-0.043-1.373
		l0.043-13.396h27.018l0.043,13.396C107.49,63.864,107.692,64.344,107.447,64.344z"/>
</g>
</svg>
