<?xml version="1.0" encoding="utf-8"?>
<!-- Generator: Adobe Illustrator 16.0.0, SVG Export Plug-In . SVG Version: 6.00 Build 0)  -->
<!DOCTYPE svg PUBLIC "-//W3C//DTD SVG 1.1//EN" "http://www.w3.org/Graphics/SVG/1.1/DTD/svg11.dtd">
<svg version="1.1" id="Layer_1" xmlns="http://www.w3.org/2000/svg" xmlns:xlink="http://www.w3.org/1999/xlink" x="0px" y="0px"
	 width="32px" height="32px" viewBox="55.938 21.489 32 32" enable-background="new 55.938 21.489 32 32" xml:space="preserve">
<g>
	<path d="M68.616,38.398c-0.023-0.057-0.059-0.109-0.101-0.154l-3.183-3.251c-0.092-0.092-0.214-0.146-0.343-0.152
		c-0.012,0-0.021-0.006-0.029-0.006h-6.37c-0.297,0.001-0.534,0.243-0.532,0.539c0,0.001,0,0.002,0,0.003v1.625h-1.59
		c-0.296,0.003-0.533,0.245-0.531,0.541c0,0,0,0,0,0.002v12.462c0,0.299,0.237,0.543,0.529,0.543h9.552
		c0.293,0,0.53-0.244,0.53-0.543v-1.626h1.591c0.294,0,0.531-0.243,0.531-0.542v-9.213c0-0.012-0.007-0.021-0.007-0.033
		C68.661,38.525,68.645,38.459,68.616,38.398z M65.486,36.683l1.371,1.401h-1.371V36.683z M65.486,49.464h-8.49v-11.38h1.063v9.754
		c0,0.3,0.236,0.542,0.529,0.542h6.898V49.464z M67.61,47.296h-8.49v-9.754l0,0v-1.626h5.306v2.71c0,0.299,0.237,0.541,0.53,0.541
		h2.654V47.296z"/>
	<rect x="59.549" y="44.469" width="6.366" height="1.204"/>
	<rect x="59.549" y="40.856" width="3.658" height="1.204"/>
	<path d="M87.932,31.366c-0.005-0.067-0.02-0.133-0.047-0.194c-0.026-0.057-0.059-0.109-0.102-0.154l-3.185-3.251
		c-0.092-0.092-0.214-0.146-0.343-0.151c-0.011,0-0.02-0.006-0.028-0.006h-6.37c-0.297,0.001-0.535,0.243-0.533,0.538
		c0,0.001,0,0.002,0,0.004v1.626h-1.59c-0.296,0.002-0.533,0.244-0.531,0.541c0,0,0,0,0,0.001v12.463
		c0,0.299,0.237,0.542,0.529,0.542h9.552c0.293,0,0.53-0.243,0.53-0.542v-1.626h1.592c0.294,0,0.531-0.244,0.531-0.543v-9.214
		C87.938,31.388,87.932,31.378,87.932,31.366z M84.752,29.457l1.373,1.402h-1.373V29.457z M84.752,42.239h-8.489v-11.38h1.062v9.753
		c0,0.3,0.238,0.542,0.53,0.542h6.897V42.239z M86.876,40.07h-8.491v-9.753V28.69h5.307v2.71c0,0.299,0.237,0.542,0.529,0.542h2.655
		V40.07z"/>
	<rect x="80.02" y="33.631" width="3.658" height="1.204"/>
	<rect x="80.02" y="37.243" width="6.367" height="1.204"/>
	<path d="M76.146,26.93l-1.112-2.501l-0.798,0.358l0.643,1.438c-6.485-2.923-12.962,0.338-14.645,7.374l0.885,0.436
		c1.534-6.408,7.369-9.452,13.306-6.937l-0.896,0.397l0.447,0.998l1.994-0.887C76.191,27.509,76.269,27.205,76.146,26.93z"/>
</g>
</svg>
