<?xml version="1.0" encoding="utf-8"?>
<!-- Generator: Adobe Illustrator 16.0.0, SVG Export Plug-In . SVG Version: 6.00 Build 0)  -->
<!DOCTYPE svg PUBLIC "-//W3C//DTD SVG 1.1//EN" "http://www.w3.org/Graphics/SVG/1.1/DTD/svg11.dtd">
<svg version="1.1" id="Layer_1" xmlns="http://www.w3.org/2000/svg" xmlns:xlink="http://www.w3.org/1999/xlink" x="0px" y="0px"
	 width="32px" height="32px" viewBox="61.149 34.633 32 32" enable-background="new 61.149 34.633 32 32" xml:space="preserve">
<g>
	<path d="M84.711,34.633H69.588c-2.673,0-4.848,2.174-4.848,4.848v22.305c0,2.673,2.175,4.848,4.848,4.848h15.123
		c2.672,0,4.848-2.175,4.848-4.848V39.48C89.559,36.807,87.383,34.633,84.711,34.633z M87.831,61.785c0,1.721-1.4,3.12-3.12,3.12
		H69.588c-1.721,0-3.12-1.399-3.12-3.12V39.48c0-1.723,1.399-3.122,3.12-3.122h15.123c1.72,0,3.12,1.399,3.12,3.122V61.785z"/>
	<path d="M84.846,55.32c-0.13-0.124-0.332-0.124-0.461,0l-1.411,1.359v-6.052c0-3.446-2.736-6.25-6.102-6.25
		s-6.102,2.804-6.102,6.25v7.097c-0.005,0.344,0.271,0.628,0.626,0.633c0.344-0.005,0.619-0.289,0.615-0.629v-7.101
		c0-2.754,2.18-4.993,4.86-4.993s4.859,2.239,4.859,4.993v5.959l-1.315-1.267c-0.13-0.124-0.332-0.124-0.462,0l-0.428,0.414
		c-0.064,0.063-0.101,0.149-0.101,0.238c0,0.091,0.036,0.177,0.101,0.239l2.643,2.544c0.065,0.063,0.148,0.094,0.231,0.094
		s0.166-0.031,0.23-0.094l2.643-2.544c0.068-0.063,0.104-0.148,0.104-0.239c0-0.089-0.036-0.176-0.102-0.238L84.846,55.32z"/>
</g>
</svg>
