<?xml version="1.0" encoding="utf-8"?>
<!-- Generator: Adobe Illustrator 16.0.0, SVG Export Plug-In . SVG Version: 6.00 Build 0)  -->
<!DOCTYPE svg PUBLIC "-//W3C//DTD SVG 1.1//EN" "http://www.w3.org/Graphics/SVG/1.1/DTD/svg11.dtd">
<svg version="1.1" id="Layer_1" xmlns="http://www.w3.org/2000/svg" xmlns:xlink="http://www.w3.org/1999/xlink" x="0px" y="0px"
	 width="32px" height="32px" viewBox="39.716 14.084 32 32" enable-background="new 39.716 14.084 32 32" xml:space="preserve">
<path d="M69.641,14.084H41.789c-0.494,0.002-0.946,0.284-1.164,0.728c-0.229,0.456-0.188,0.997,0.104,1.416L50.932,30.95
	l0.011,0.015c0.37,0.514,0.569,1.134,0.571,1.772v12.004c-0.003,0.354,0.132,0.695,0.379,0.949c0.372,0.387,0.947,0.5,1.438,0.289
	l5.733-2.241c0.514-0.161,0.854-0.656,0.854-1.256v-9.745c0-0.639,0.202-1.259,0.573-1.772l0.01-0.015l10.202-14.725
	c0.292-0.417,0.331-0.958,0.104-1.414C70.588,14.367,70.135,14.086,69.641,14.084z M59.213,30.004
	c-0.571,0.796-0.88,1.753-0.881,2.733v9.549L53.1,44.33V32.737c-0.001-0.98-0.31-1.938-0.881-2.733l-9.904-14.296h26.803
	l-9.904,14.293V30.004z"/>
</svg>
