<?xml version="1.0" encoding="utf-8"?>
<!-- Generator: Adobe Illustrator 16.0.0, SVG Export Plug-In . SVG Version: 6.00 Build 0)  -->
<!DOCTYPE svg PUBLIC "-//W3C//DTD SVG 1.1//EN" "http://www.w3.org/Graphics/SVG/1.1/DTD/svg11.dtd">
<svg version="1.1" id="Layer_1" xmlns="http://www.w3.org/2000/svg" xmlns:xlink="http://www.w3.org/1999/xlink" x="0px" y="0px"
	 width="32px" height="32px" viewBox="0 0 32 32" enable-background="new 0 0 32 32" xml:space="preserve">
<g>
	<path d="M11.306,0.001H1.493C0.668,0.001,0,0.669,0,1.493v9.813c0,0.825,0.668,1.493,1.493,1.493h9.813
		c0.825,0,1.493-0.668,1.493-1.493V1.493C12.8,0.669,12.132,0.001,11.306,0.001z"/>
	<path d="M11.306,19.202H1.493C0.668,19.202,0,19.87,0,20.694v9.813c0,0.824,0.668,1.492,1.493,1.492h9.813
		c0.825,0,1.493-0.668,1.493-1.492v-9.813C12.8,19.87,12.132,19.202,11.306,19.202z"/>
	<path d="M30.508,0.001h-9.814c-0.825,0-1.493,0.668-1.493,1.492v9.813c0,0.825,0.668,1.493,1.493,1.493h9.814
		c0.822,0,1.492-0.668,1.492-1.493V1.493C32,0.669,31.33,0.001,30.508,0.001z"/>
	<path d="M30.508,19.202h-9.814c-0.825,0-1.493,0.668-1.493,1.492v9.813c0,0.824,0.668,1.492,1.493,1.492h9.814
		c0.822,0,1.492-0.668,1.492-1.492v-9.813C32,19.87,31.33,19.202,30.508,19.202z"/>
</g>
</svg>
