<?xml version="1.0" encoding="utf-8"?>
<!-- Generator: Adobe Illustrator 16.0.0, SVG Export Plug-In . SVG Version: 6.00 Build 0)  -->
<!DOCTYPE svg PUBLIC "-//W3C//DTD SVG 1.1//EN" "http://www.w3.org/Graphics/SVG/1.1/DTD/svg11.dtd">
<svg version="1.1" id="Layer_1" xmlns="http://www.w3.org/2000/svg" xmlns:xlink="http://www.w3.org/1999/xlink" x="0px" y="0px"
	 width="32px" height="32px" viewBox="0 0 32 32" enable-background="new 0 0 32 32" xml:space="preserve">
<g>
	<path d="M30.69,1.966H1.31c-0.723,0-1.311,0.587-1.311,1.31v8.608c0,0.723,0.588,1.309,1.311,1.309H30.69
		c0.723,0,1.311-0.586,1.311-1.309V3.275C31.999,2.553,31.413,1.966,30.69,1.966z"/>
	<path d="M30.69,18.809H1.31c-0.723,0-1.311,0.586-1.311,1.311v8.605c0,0.723,0.588,1.309,1.311,1.309H30.69
		c0.723,0,1.311-0.586,1.311-1.309v-8.605C31.999,19.395,31.413,18.809,30.69,18.809z"/>
</g>
</svg>
