<?xml version="1.0" encoding="utf-8"?>
<!-- Generator: Adobe Illustrator 16.0.0, SVG Export Plug-In . SVG Version: 6.00 Build 0)  -->
<!DOCTYPE svg PUBLIC "-//W3C//DTD SVG 1.1//EN" "http://www.w3.org/Graphics/SVG/1.1/DTD/svg11.dtd">
<svg version="1.1" id="Layer_1" xmlns="http://www.w3.org/2000/svg" xmlns:xlink="http://www.w3.org/1999/xlink" x="0px" y="0px"
	 width="32px" height="32px" viewBox="0 0 32 32" enable-background="new 0 0 32 32" xml:space="preserve">
<g>
	<path fill="#262B56" d="M8.797,32.001c-2.115,0.007-4.145-0.836-5.631-2.343c-1.498-1.507-2.334-3.55-2.324-5.675
		c0-2.148,0.826-4.164,2.324-5.676L19.633,1.711c2.356-2.375,6.02-2.268,8.516,0.253c2.496,2.516,2.604,6.206,0.25,8.581
		L12.929,26.14c-1.452,1.467-3.816,1.467-5.271,0c-1.453-1.473-1.453-3.839,0-5.313l10.477-10.563
		c0.35-0.353,0.92-0.357,1.272-0.008c0.004,0.002,0.006,0.005,0.008,0.008c0.355,0.355,0.355,0.933,0,1.29L8.938,22.113
		c-0.748,0.76-0.748,1.979,0,2.735c0.745,0.75,1.954,0.754,2.703,0.008c0.003-0.002,0.006-0.004,0.008-0.008L27.119,9.257
		c1.624-1.639,1.52-4.219-0.251-6.002c-1.771-1.783-4.329-1.892-5.955-0.252l-16.467,16.6c-1.156,1.165-1.802,2.742-1.793,4.384
		c-0.008,1.642,0.638,3.22,1.793,4.384c1.148,1.163,2.716,1.815,4.351,1.81c1.647,0,3.193-0.642,4.351-1.81l16.465-16.598
		c0.349-0.354,0.919-0.358,1.271-0.008c0.003,0.002,0.007,0.004,0.009,0.008c0.354,0.354,0.354,0.932,0,1.287L14.425,29.658
		C12.939,31.164,10.912,32.008,8.797,32.001z"/>
</g>
</svg>
