<?xml version="1.0" encoding="utf-8"?>
<!-- Generator: Adobe Illustrator 16.0.0, SVG Export Plug-In . SVG Version: 6.00 Build 0)  -->
<!DOCTYPE svg PUBLIC "-//W3C//DTD SVG 1.1//EN" "http://www.w3.org/Graphics/SVG/1.1/DTD/svg11.dtd">
<svg version="1.1" id="Layer_1" xmlns="http://www.w3.org/2000/svg" xmlns:xlink="http://www.w3.org/1999/xlink" x="0px" y="0px"
	 width="32px" height="32px" viewBox="0 0 32 32" enable-background="new 0 0 32 32" xml:space="preserve">
<path d="M19.237,1.292c-6.713,0-12.264,4.161-12.707,9.495c-3.971,1.321-6.529,4.378-6.529,7.819
	c0.076,2.512,1.359,4.836,3.441,6.238v5.203c0,0.365,0.297,0.662,0.662,0.662c0.166,0,0.326-0.064,0.449-0.176l3.983-3.645
	c0.674,0.105,1.362,0.16,2.048,0.16c4.406,0,8.37-2.201,9.908-5.49c0.474-0.037,0.896-0.086,1.292-0.146l4.907,4.48
	c0.121,0.109,0.281,0.17,0.445,0.17c0.187,0,0.365-0.078,0.49-0.215c0.109-0.121,0.172-0.277,0.174-0.441V18.99
	c2.668-1.92,4.197-4.66,4.197-7.534C31.992,5.852,26.269,1.292,19.237,1.292z M4.479,23.945c-2.004-1.35-3.153-3.301-3.153-5.354
	c0-2.711,2.026-5.207,5.188-6.408c0.036,0.351,0.102,0.7,0.188,1.043c0.479,1.97,1.55,3.701,3.099,5.013
	c0.349,0.328,3.517,3.17,9.185,3.344c-1.514,2.525-4.771,4.143-8.42,4.143c-0.707,0-1.42-0.064-2.115-0.191
	c-0.207-0.035-0.414,0.021-0.567,0.16l-3.108,2.857v-4.061C4.772,24.273,4.664,24.066,4.479,23.945z M7.955,12.968
	c-0.12-0.503-0.183-1.021-0.187-1.536c0.037-4.865,5.182-8.824,11.469-8.824c6.303,0,11.43,3.968,11.43,8.843
	c0,2.544-1.423,4.968-3.902,6.649c-0.185,0.123-0.295,0.328-0.295,0.549v5.238l-4.035-3.684c-0.123-0.111-0.281-0.176-0.451-0.178
	H21.88l-0.018,0.004c-0.825,0.152-1.663,0.229-2.49,0.229c-4.275,0-7.03-1.563-8.587-2.869C9.427,16.216,8.446,14.686,7.955,12.968z
	"/>
</svg>
