<?xml version="1.0" encoding="utf-8"?>
<!-- Generator: Adobe Illustrator 16.0.0, SVG Export Plug-In . SVG Version: 6.00 Build 0)  -->
<!DOCTYPE svg PUBLIC "-//W3C//DTD SVG 1.1//EN" "http://www.w3.org/Graphics/SVG/1.1/DTD/svg11.dtd">
<svg version="1.1" id="Layer_1" xmlns="http://www.w3.org/2000/svg" xmlns:xlink="http://www.w3.org/1999/xlink" x="0px" y="0px"
	 width="32px" height="32px" viewBox="0 0 32 32" enable-background="new 0 0 32 32" xml:space="preserve">
<title>tab4</title>
<g>
	<path d="M32,22.1V5.038c0-0.346-0.282-0.625-0.629-0.625H10.1V1.294c0-0.346-0.28-0.625-0.626-0.625H0.628
		C0.283,0.668,0.002,0.946,0,1.292v20.809c0,0.346,0.279,0.625,0.626,0.625h16.66c-0.808,1.133-1.242,2.486-1.242,3.878v4.106
		c0,0.344,0.279,0.624,0.626,0.624h14.662c0.348,0,0.629-0.28,0.629-0.624v-4.106c0-1.423-0.455-2.769-1.243-3.878h0.652
		C31.719,22.726,32,22.446,32,22.1L32,22.1z M1.255,1.916h7.59v2.496h-7.59V1.916z M30.708,30.084h-2.957V28.79
		c0-0.345-0.281-0.626-0.624-0.626c-0.348,0-0.631,0.282-0.631,0.626v1.294h-4.988v-3.854c0-0.347-0.282-0.628-0.629-0.628
		s-0.629,0.281-0.629,0.628v3.854h-2.957v-3.479c0.006-2.324,1.48-4.392,3.677-5.15l0.705-0.244l0.6,1.509
		c0.277,0.646,0.909,1.072,1.613,1.084c0.694,0.022,1.337-0.359,1.652-0.977l0.013-0.027l0.734-1.602l0.738,0.256
		c2.196,0.76,3.671,2.827,3.675,5.15v3.479h0.006H30.708z M22.27,15.539c0.399,0,0.767-0.077,1.124-0.232
		c1.44-0.626,2.242-0.521,3.144-0.32c0.114,0.025,0.232,0.032,0.35,0.022l0.048-0.005v2.303c-0.005,1.507-1.231,2.729-2.74,2.726
		h-0.508c-1.509,0-2.733-1.219-2.739-2.726v-2C21.438,15.461,21.87,15.54,22.27,15.539L22.27,15.539z M20.995,14.045
		c0.068-0.359,0.204-0.693,0.4-0.989c0.546-0.782,1.442-1.247,2.399-1.237h0.296c0.981,0,1.87,0.475,2.383,1.213
		c0.147,0.223,0.266,0.467,0.345,0.727l-0.028,0.004c-1.25-0.277-2.294-0.299-3.898,0.399c-0.301,0.13-0.722,0.226-1.579-0.054
		c-0.104-0.033-0.209-0.054-0.317-0.063V14.045z M24.907,21.216l-0.484,1.051c-0.095,0.185-0.292,0.297-0.499,0.288
		c-0.207-0.004-0.396-0.125-0.483-0.312l-0.403-1.017c0.21,0.033,0.428,0.054,0.647,0.054h0.508c0.243,0,0.48-0.022,0.713-0.064
		H24.907z M30.745,21.476h-1.181c-0.628-0.526-1.346-0.936-2.12-1.204l-0.434-0.15c0.729-0.719,1.18-1.717,1.18-2.814v-2.758
		c0-0.229-0.022-0.455-0.058-0.675c-0.005-0.059-0.016-0.117-0.028-0.176c-0.103-0.473-0.298-0.923-0.569-1.324
		c-0.74-1.124-1.997-1.8-3.341-1.8h-0.508c-1.362,0-2.635,0.694-3.368,1.842c-0.396,0.603-0.627,1.316-0.627,2.078l0.002,0.011
		v2.806c0,1.115,0.463,2.125,1.211,2.849l-0.346,0.121c-0.773,0.268-1.492,0.676-2.12,1.202H1.255V5.665h29.488v15.813
		L30.745,21.476z"/>
	<path d="M27.694,26.41l-0.021-0.047c-0.115-0.261-0.417-0.387-0.684-0.279c-0.258,0.098-0.39,0.383-0.294,0.643
		c0,0.006,0.002,0.011,0.006,0.017l0.02,0.044c0.111,0.265,0.417,0.389,0.684,0.279c0.256-0.094,0.392-0.381,0.294-0.641
		C27.696,26.419,27.693,26.415,27.694,26.41L27.694,26.41z"/>
	<path d="M3.806,14.413h8.389c0.333,0,0.605-0.236,0.605-0.528c0-0.293-0.271-0.53-0.605-0.53H3.806
		c-0.334,0-0.606,0.237-0.606,0.53S3.471,14.413,3.806,14.413z"/>
	<path d="M4.008,18.643h11.184c0.446,0,0.808-0.238,0.808-0.528c0-0.291-0.362-0.527-0.808-0.527H4.008
		c-0.447,0-0.809,0.239-0.809,0.527C3.2,18.41,3.562,18.643,4.008,18.643z"/>
	<path d="M3.814,10.184h6.24c0.339,0,0.613-0.237,0.613-0.529c0-0.293-0.275-0.528-0.613-0.528h-6.24
		c-0.339,0-0.613,0.236-0.613,0.528C3.201,9.948,3.476,10.184,3.814,10.184z"/>
</g>
</svg>
