<?xml version="1.0" encoding="utf-8"?>
<!-- Generator: Adobe Illustrator 16.0.0, SVG Export Plug-In . SVG Version: 6.00 Build 0)  -->
<!DOCTYPE svg PUBLIC "-//W3C//DTD SVG 1.1//EN" "http://www.w3.org/Graphics/SVG/1.1/DTD/svg11.dtd">
<svg version="1.1" id="Layer_1" xmlns="http://www.w3.org/2000/svg" xmlns:xlink="http://www.w3.org/1999/xlink" x="0px" y="0px"
	 width="32px" height="32px" viewBox="0 0 32 32" enable-background="new 0 0 32 32" xml:space="preserve">
<title>tab8</title>
<g>
	<path d="M16.593,23.254V8.748c0-0.269-0.265-0.487-0.593-0.487s-0.593,0.217-0.593,0.487v14.506c0,0.268,0.265,0.485,0.593,0.485
		S16.593,23.521,16.593,23.254z"/>
	<path d="M31.486,5.961c-1.094,0-2.453-0.432-3.894-0.887C25.771,4.496,23.706,3.84,21.56,3.84c-2.479,0-3.992,0.996-4.825,1.83
		C16.458,5.946,16.213,6.249,16,6.574c-0.215-0.325-0.46-0.627-0.736-0.904c-0.833-0.834-2.345-1.83-4.827-1.83
		c-2.142,0-4.206,0.655-6.03,1.233C2.966,5.529,1.609,5.961,0.515,5.961c-0.285,0-0.514,0.212-0.514,0.473v19.04
		c0,0.262,0.23,0.476,0.514,0.476c1.265,0,2.705-0.456,4.231-0.94c1.745-0.555,3.725-1.183,5.694-1.183
		c1.688,0,3.056,0.512,4.063,1.522c0.2,0.19,0.514,0.204,0.729,0.027c0.192-0.153,0.223-0.433,0.071-0.625
		c-0.013-0.017-0.026-0.026-0.039-0.04c-0.832-0.834-2.345-1.832-4.827-1.832c-2.143,0-4.208,0.658-6.031,1.233
		c-1.22,0.389-2.384,0.759-3.376,0.859V6.883c1.136-0.1,2.392-0.5,3.711-0.916c1.747-0.555,3.727-1.182,5.696-1.182
		c3.982,0,5.025,2.897,5.068,3.019C15.583,8.008,15.781,8.143,16,8.138c0.218,0.005,0.416-0.128,0.493-0.333
		c0.01-0.031,1.06-3.021,5.07-3.021c1.968,0,3.947,0.628,5.691,1.183c1.32,0.418,2.58,0.817,3.71,0.917v18.091
		c-0.987-0.102-2.153-0.472-3.372-0.859c-1.824-0.577-3.891-1.232-6.033-1.232c-2.481,0-3.995,0.994-4.827,1.83
		c-0.177,0.173-0.182,0.455-0.009,0.63c0.014,0.017,0.026,0.026,0.042,0.038c0.216,0.177,0.527,0.162,0.728-0.029
		c1.008-1.01,2.372-1.521,4.063-1.521c1.97,0,3.95,0.626,5.694,1.182c1.521,0.483,2.962,0.939,4.229,0.939
		c0.285,0,0.515-0.212,0.515-0.476V6.434C32.002,6.173,31.77,5.961,31.486,5.961L31.486,5.961z"/>
	<path d="M31.486,26.798c-1.094,0-2.453-0.62-3.894-1.279c-1.822-0.833-3.887-1.781-6.033-1.781c-2.33,0-3.805,1.268-4.666,2.419
		h-1.789c-0.861-1.149-2.337-2.419-4.667-2.419c-2.145,0-4.21,0.946-6.033,1.781c-1.441,0.659-2.8,1.279-3.892,1.279
		c-0.284,0-0.515,0.304-0.515,0.682c0,0.377,0.231,0.682,0.515,0.682c1.265,0,2.705-0.658,4.23-1.354
		c1.746-0.799,3.726-1.703,5.693-1.703c1.69,0,3.057,0.737,4.064,2.194c0.096,0.141,0.235,0.223,0.381,0.223h2.232
		c0.156-0.008,0.299-0.089,0.382-0.223c1.008-1.457,2.375-2.197,4.063-2.197c1.969,0,3.949,0.908,5.695,1.706
		c1.523,0.696,2.963,1.354,4.229,1.354c0.284,0,0.514-0.305,0.514-0.682c0-0.378-0.23-0.682-0.514-0.682H31.486z"/>
</g>
</svg>
