<?xml version="1.0" encoding="utf-8"?>
<!-- Generator: Adobe Illustrator 16.0.0, SVG Export Plug-In . SVG Version: 6.00 Build 0)  -->
<!DOCTYPE svg PUBLIC "-//W3C//DTD SVG 1.1//EN" "http://www.w3.org/Graphics/SVG/1.1/DTD/svg11.dtd">
<svg version="1.1" id="Layer_1" xmlns="http://www.w3.org/2000/svg" xmlns:xlink="http://www.w3.org/1999/xlink" x="0px" y="0px"
	 width="32px" height="32px" viewBox="0 0 32 32" enable-background="new 0 0 32 32" xml:space="preserve">
<title>user-settings-5</title>
<path d="M29.333,0H2.667C1.194,0,0,1.194,0,2.666v26.666C0,30.805,1.194,32,2.667,32h26.666C30.806,32,32,30.805,32,29.332V2.666
	C32,1.194,30.806,0,29.333,0z M25.081,16.829h-8.254v8.253c-0.002,0.459-0.372,0.83-0.828,0.83c0,0-0.001,0-0.002,0
	c-0.455-0.003-0.826-0.374-0.826-0.83v-8.253H6.918c-0.458,0-0.83-0.371-0.83-0.829s0.372-0.83,0.83-0.83h8.253V6.918
	c0.002-0.458,0.373-0.827,0.829-0.827c0.457,0,0.827,0.372,0.827,0.828v8.254h8.255c0.455,0,0.826,0.369,0.829,0.826
	C25.91,16.457,25.538,16.829,25.081,16.829z"/>
</svg>
