<?xml version="1.0" encoding="utf-8"?>
<!-- Generator: Adobe Illustrator 16.0.0, SVG Export Plug-In . SVG Version: 6.00 Build 0)  -->
<!DOCTYPE svg PUBLIC "-//W3C//DTD SVG 1.1//EN" "http://www.w3.org/Graphics/SVG/1.1/DTD/svg11.dtd">
<svg version="1.1" id="Layer_1" xmlns="http://www.w3.org/2000/svg" xmlns:xlink="http://www.w3.org/1999/xlink" x="0px" y="0px"
	 width="32px" height="32px" viewBox="0 0 32 32" enable-background="new 0 0 32 32" xml:space="preserve">
<g>
	<path d="M16,12.489c-2.116,0.003-3.83,1.719-3.833,3.835c0.003,2.114,1.717,3.83,3.833,3.833c2.116-0.003,3.832-1.718,3.835-3.833
		C19.832,14.207,18.116,12.491,16,12.489z"/>
	<path d="M31.307,14.563c0.631-0.614,0.853-1.515,0.58-2.354c-0.267-0.833-0.986-1.442-1.852-1.564l-7.75-1.126
		c-0.33-0.048-0.615-0.255-0.764-0.555l-3.461-7.025C17.674,1.151,16.875,0.655,16,0.659c-0.88,0-1.669,0.49-2.057,1.28
		l-3.466,7.025c-0.148,0.3-0.434,0.507-0.764,0.555l-7.748,1.127c-0.871,0.126-1.581,0.725-1.853,1.564
		c-0.27,0.837-0.048,1.74,0.583,2.353L6.3,20.031c0.24,0.233,0.349,0.569,0.292,0.897l-1.323,7.724
		C5.122,29.518,5.47,30.379,6.181,30.9c0.711,0.518,1.637,0.586,2.418,0.174l0.044-0.023l6.716-3.533l0.169-0.09
		c0.295-0.154,0.647-0.154,0.942,0l0.168,0.09l6.717,3.533l0.045,0.023c1.117,0.592,2.504,0.166,3.097-0.953
		c0.237-0.449,0.321-0.967,0.233-1.469l-1.323-7.722c-0.058-0.33,0.054-0.666,0.292-0.899L31.307,14.563z M24.146,20.99h-0.002
		l1.323,7.721c0.069,0.381-0.087,0.768-0.401,0.992c-0.313,0.23-0.729,0.26-1.068,0.078l-0.527-0.279v-4.279
		c0-1.457-0.938-2.756-2.324-3.207h-0.008c-0.5-0.125-2.025-0.338-2.025-0.338c-0.174-0.055-0.358,0.037-0.422,0.209l-1.56,4.281
		l-0.063-0.033c-0.234-0.123-0.486-0.188-0.744-0.225l0.316-0.844l-0.25-2.139l0.542-0.818c0.101-0.178,0.075-0.4-0.063-0.551
		v-0.002c-0.096-0.098-0.227-0.152-0.362-0.15h-1.014c-0.135,0-0.267,0.053-0.36,0.15c-0.141,0.15-0.166,0.377-0.063,0.555
		l0.54,0.816l-0.252,2.139l0.317,0.844c-0.256,0.037-0.509,0.104-0.744,0.225l-0.063,0.033l-1.56-4.28
		c-0.048-0.138-0.175-0.226-0.318-0.228c-0.034,0-1.605,0.223-2.128,0.354c-1.429,0.354-2.333,1.759-2.333,3.226v4.264l-0.526,0.277
		c-0.34,0.182-0.756,0.152-1.067-0.078c-0.316-0.225-0.473-0.611-0.404-0.992l1.323-7.721c0.128-0.746-0.118-1.507-0.66-2.035
		l-5.607-5.469c-0.281-0.267-0.38-0.673-0.256-1.04c0.116-0.369,0.434-0.638,0.818-0.689l7.748-1.128
		c0.748-0.108,1.394-0.578,1.729-1.256l3.464-7.026c0.167-0.349,0.521-0.569,0.907-0.566c0.387-0.005,0.743,0.216,0.912,0.566
		l3.463,7.026c0.335,0.679,0.98,1.147,1.729,1.256l7.748,1.128c0.385,0.051,0.703,0.32,0.817,0.689
		c0.125,0.367,0.024,0.772-0.257,1.04l-5.605,5.469C24.264,19.483,24.018,20.244,24.146,20.99z"/>
</g>
</svg>
