<?xml version="1.0" encoding="utf-8"?>
<!-- Generator: Adobe Illustrator 16.0.0, SVG Export Plug-In . SVG Version: 6.00 Build 0)  -->
<!DOCTYPE svg PUBLIC "-//W3C//DTD SVG 1.1//EN" "http://www.w3.org/Graphics/SVG/1.1/DTD/svg11.dtd">
<svg version="1.1" id="Layer_1" xmlns="http://www.w3.org/2000/svg" xmlns:xlink="http://www.w3.org/1999/xlink" x="0px" y="0px"
	 width="32px" height="32px" viewBox="0 0 32 32" enable-background="new 0 0 32 32" xml:space="preserve">
<g>
	<path d="M13.87,15.504c0.729-1.148,1.116-2.48,1.115-3.84c-0.002-3.88-3.063-7.037-6.822-7.037c-3.757,0-6.814,3.157-6.814,7.037
		c0,1.436,0.422,2.773,1.141,3.886C0.933,16.605,0,18.132,0,19.77v7.604h1.594v-7.605c0-1.127,0.727-2.203,1.935-2.963
		c1.24,1.213,2.903,1.891,4.636,1.896c1.81,0,3.454-0.738,4.677-1.934c1.243,0.76,1.99,1.852,1.99,3v7.604h1.594v-7.604
		C16.426,18.104,15.468,16.561,13.87,15.504z M8.165,17.063c-2.88,0-5.222-2.421-5.222-5.4c0-2.976,2.342-5.399,5.222-5.399
		s5.224,2.423,5.224,5.399C13.389,14.64,11.045,17.063,8.165,17.063z"/>
	<path d="M32,9.05c0-0.529-0.4-0.975-0.875-0.975H16.838c-0.475,0-0.876,0.446-0.876,0.975c0,0.529,0.401,0.976,0.876,0.976h14.289
		C31.602,10.026,32,9.58,32,9.05z"/>
	<path d="M31.125,14.393H18.811c-0.477,0-0.877,0.446-0.877,0.975c0,0.529,0.4,0.976,0.877,0.976h12.314
		c0.475,0,0.875-0.447,0.875-0.976C32,14.839,31.6,14.393,31.125,14.393z"/>
	<path d="M31.125,20.711h-9.911c-0.474,0-0.875,0.446-0.875,0.975c0,0.529,0.399,0.977,0.873,0.977h9.913
		c0.482,0,0.875-0.438,0.875-0.977C32,21.157,31.6,20.711,31.125,20.711z"/>
</g>
</svg>
