<?xml version="1.0" encoding="utf-8"?>
<!-- Generator: Adobe Illustrator 16.0.0, SVG Export Plug-In . SVG Version: 6.00 Build 0)  -->
<!DOCTYPE svg PUBLIC "-//W3C//DTD SVG 1.1//EN" "http://www.w3.org/Graphics/SVG/1.1/DTD/svg11.dtd">
<svg version="1.1" id="Layer_1" xmlns="http://www.w3.org/2000/svg" xmlns:xlink="http://www.w3.org/1999/xlink" x="0px" y="0px"
	 width="32px" height="32px" viewBox="0 0 32 32" enable-background="new 0 0 32 32" xml:space="preserve">
<g>
	<path d="M31.178,13.834c-1.1-1.096-2.883-1.096-3.979,0.003l-0.941,0.949V9.274c0-0.75-0.292-1.457-0.825-1.987l-2.649-2.652
		c-0.085-0.087-0.177-0.165-0.274-0.241V0.937c0-0.519-0.421-0.938-0.938-0.938c-0.002,0-0.002,0-0.002,0H0.938
		c-0.52,0-0.938,0.419-0.938,0.938l0,0V27.25c0,0.519,0.419,0.938,0.938,0.938h2.813v2.875c0,0.519,0.419,0.938,0.938,0.938H25.32
		c0.517,0,0.936-0.419,0.936-0.938v-8.295l4.922-4.953c1.098-1.101,1.098-2.877,0-3.978V13.834z M20.629,5.687h0.162
		c0.25,0,0.484,0.097,0.661,0.272l2.655,2.654c0.176,0.175,0.272,0.409,0.272,0.659v0.162h-3.752V5.681L20.629,5.687L20.629,5.687z
		 M3.752,4.749v21.566H1.875V1.874h18.754v1.938H4.689C4.173,3.812,3.754,4.229,3.752,4.749z M24.381,30.123H5.625V5.687h13.129
		v4.688c0,0.521,0.419,0.939,0.938,0.939h4.688v5.361l-6.399,6.446c-0.123,0.122-0.209,0.274-0.248,0.442l-0.826,3.468
		c-0.121,0.504,0.191,1.012,0.695,1.131c0.142,0.035,0.289,0.035,0.432,0l3.479-0.817c0.172-0.041,0.327-0.128,0.45-0.25
		l2.421-2.438v5.469v-0.002H24.381z M21.182,25.216L20.82,25.58l-1.738,0.408l0.412-1.735l0.357-0.359
		c0.582,0.274,1.051,0.744,1.328,1.322H21.182z M22.548,23.839c-0.349-0.525-0.801-0.976-1.327-1.322l5.32-5.358l1.327,1.327
		L22.548,23.839L22.548,23.839z M29.85,16.49l-0.66,0.663l-1.324-1.325l0.662-0.667c0.346-0.387,0.938-0.42,1.324-0.074
		c0.389,0.346,0.422,0.939,0.076,1.327C29.9,16.44,29.876,16.466,29.85,16.49z"/>
	<path d="M16.641,7.999H8.96C8.43,7.999,8,8.354,8,8.799c0,0.442,0.43,0.8,0.96,0.8h7.681c0.53,0,0.959-0.356,0.959-0.8
		C17.6,8.354,17.171,7.999,16.641,7.999z M16.641,11.199H8.96c-0.53,0-0.96,0.358-0.96,0.8s0.43,0.8,0.96,0.8h7.681
		c0.53,0,0.959-0.358,0.959-0.8S17.171,11.199,16.641,11.199z M21.5,15.999H8.9c-0.498,0-0.9,0.355-0.9,0.8s0.402,0.8,0.9,0.8h12.6
		c0.497,0,0.9-0.355,0.9-0.8S21.997,15.999,21.5,15.999z M17.318,21.093c-0.354-0.373-0.947-0.39-1.32-0.035
		c-0.014,0.013-0.023,0.022-0.034,0.035l-5.085,5.293l-1.24-1.293c-0.354-0.373-0.947-0.39-1.32-0.033
		c-0.014,0.011-0.023,0.021-0.034,0.033c-0.377,0.391-0.377,1.022,0,1.412l1.919,2.002c0.375,0.391,0.98,0.391,1.355,0l5.76-6
		C17.695,22.115,17.695,21.481,17.318,21.093z"/>
</g>
</svg>
