<?xml version="1.0" encoding="utf-8"?>
<!-- Generator: Adobe Illustrator 16.0.0, SVG Export Plug-In . SVG Version: 6.00 Build 0)  -->
<!DOCTYPE svg PUBLIC "-//W3C//DTD SVG 1.1//EN" "http://www.w3.org/Graphics/SVG/1.1/DTD/svg11.dtd">
<svg version="1.1" id="Layer_1" xmlns="http://www.w3.org/2000/svg" xmlns:xlink="http://www.w3.org/1999/xlink" x="0px" y="0px"
	 width="32px" height="32px" viewBox="0 0 32 32" enable-background="new 0 0 32 32" xml:space="preserve">
<g>
	<path d="M29.988,2.61c-4.285-4.256-11.407-1.128-11.494,4.744c-0.041,2.34,1.125,4.537,3.084,5.813
		c0.41,0.269,0.285,0.167,2.73,4.519c0.043,0.074,0.094,0.146,0.151,0.209l-3.567,3.463c-1.108-1.112-2.906-1.116-4.019-0.007
		c-0.153,0.152-0.291,0.323-0.406,0.508l-4.762-2.854c-0.004-1.576-1.28-2.855-2.858-2.863c-2.492,0-3.776,3.004-2.095,4.833
		l-3.112,4.74C1.824,25.189,0,26.57,0,28.48c0,1.588,1.28,2.879,2.856,2.879c2.748,0,3.904-3.551,1.696-5.193l3.011-4.582
		c1.482,0.76,3.326,0.072,3.945-1.516l4.576,2.74c-0.37,1.782,0.988,3.467,2.796,3.467c2.082,0,3.466-2.183,2.599-4.078
		c4.361-4.234,4.097-3.968,4.141-4.028c0.24-0.088,0.441-0.26,0.566-0.483c2.441-4.351,2.319-4.25,2.73-4.52
		c1.93-1.259,3.09-3.408,3.084-5.711C32.006,5.636,31.281,3.89,29.988,2.61z M4.704,28.48c0.004,1.024-0.824,1.859-1.848,1.862
		c-1.025-0.005-1.851-0.839-1.847-1.862c-0.002-1.022,0.824-1.855,1.847-1.861C3.88,26.625,4.707,27.456,4.704,28.48L4.704,28.48z
		 M7.337,20.084c-0.852-1.219,0.013-2.928,1.512-2.928c1.024,0,1.849,0.841,1.849,1.859C10.698,20.823,8.377,21.575,7.337,20.084z
		 M18.881,25.26c-1.22,0-1.936-1.158-1.847-1.879c0.013-1.631,1.972-2.453,3.132-1.317C21.35,23.213,20.545,25.26,18.881,25.26z
		 M28.4,12.367c-0.322,0.212-0.592,0.498-0.781,0.835c-2.434,4.326-2.26,4.08-2.372,4.08s0.063,0.252-2.37-4.08
		c-0.189-0.337-0.46-0.624-0.783-0.835c-1.688-1.098-2.689-2.987-2.652-4.999c0.072-5.104,6.244-7.694,9.885-4.08
		C31.969,5.917,31.518,10.332,28.4,12.367z"/>
	<path d="M28.689,4.761c-1.258-1.707-3.662-2.07-5.367-0.813c0,0.001-0.004,0.002-0.004,0.002c-1.709,1.257-2.074,3.66-0.818,5.369
		s3.659,2.075,5.369,0.818c0.092-0.067,0.181-0.139,0.268-0.216c0.18-0.14,0.211-0.399,0.069-0.579
		c-0.14-0.18-0.397-0.211-0.578-0.071c-0.013,0.009-0.024,0.02-0.036,0.031c-1.254,1.093-3.16,0.961-4.253-0.294
		c-1.092-1.256-0.961-3.16,0.296-4.252c0.057-0.049,0.112-0.096,0.174-0.142c1.338-0.991,3.227-0.71,4.217,0.628
		c0.635,0.856,0.77,1.985,0.354,2.967c-0.084,0.212,0.021,0.453,0.23,0.536c0.207,0.083,0.443-0.014,0.531-0.217
		C29.666,7.281,29.494,5.849,28.689,4.761z"/>
</g>
</svg>
