<?xml version="1.0" encoding="utf-8"?>
<!-- Generator: Adobe Illustrator 16.0.0, SVG Export Plug-In . SVG Version: 6.00 Build 0)  -->
<!DOCTYPE svg PUBLIC "-//W3C//DTD SVG 1.1//EN" "http://www.w3.org/Graphics/SVG/1.1/DTD/svg11.dtd">
<svg version="1.1" id="Layer_1" xmlns="http://www.w3.org/2000/svg" xmlns:xlink="http://www.w3.org/1999/xlink" x="0px" y="0px"
	 width="32px" height="32px" viewBox="0 0 32 32" enable-background="new 0 0 32 32" xml:space="preserve">
<g>
	<path fill="#2B4177" d="M31.242,28.8H0.756C0.326,28.813-0.012,29.172,0,29.6C0,30.04,0.339,30.4,0.756,30.4h30.486
		C31.661,30.4,32,30.041,32,29.6C32,29.159,31.661,28.8,31.242,28.8L31.242,28.8z M29.623,5.189h-5.449
		c-0.424-0.004-0.771,0.336-0.775,0.76V5.95v5.168h-3.896V2.36c-0.007-0.424-0.354-0.765-0.776-0.76c-0.001,0-0.001,0-0.001,0
		h-5.451c-0.424-0.005-0.771,0.336-0.776,0.76l0,0v14.387H8.6v-6.464C8.595,9.86,8.249,9.52,7.824,9.524l0,0h-5.45
		C1.95,9.52,1.604,9.86,1.599,10.283c0,0.001,0,0.002,0,0.002v14.556c0.005,0.423,0.352,0.765,0.776,0.759l0,0h27.249
		c0.424,0.006,0.771-0.336,0.774-0.759l0,0V5.951C30.396,5.527,30.049,5.186,29.623,5.189L29.623,5.189z M7.048,24.08H3.151V11.045
		h3.897V24.08z M12.498,24.08H8.6v-5.813h3.897L12.498,24.08L12.498,24.08z M17.947,11.88v12.2H14.05V3.121h3.897V11.88z
		 M23.396,24.08h-3.898V12.64h3.898V24.08z M28.846,24.08h-3.896V6.711h3.896V24.08z"/>
</g>
</svg>
