<?xml version="1.0" encoding="utf-8"?>
<!-- Generator: Adobe Illustrator 16.0.0, SVG Export Plug-In . SVG Version: 6.00 Build 0)  -->
<!DOCTYPE svg PUBLIC "-//W3C//DTD SVG 1.1//EN" "http://www.w3.org/Graphics/SVG/1.1/DTD/svg11.dtd">
<svg version="1.1" id="Layer_1" xmlns="http://www.w3.org/2000/svg" xmlns:xlink="http://www.w3.org/1999/xlink" x="0px" y="0px"
	 width="32px" height="32px" viewBox="-7.5 -6.5 32 32" enable-background="new -7.5 -6.5 32 32" xml:space="preserve">
<g>
	<path fill="#262B56" d="M22.818,24.269h-1.352V4.646c0-0.916-0.74-1.656-1.658-1.656h-3.018c-0.916,0-1.658,0.742-1.658,1.658
		v19.62h-3.428V13.537c0-0.915-0.742-1.658-1.658-1.658H7.03c-0.917,0-1.658,0.743-1.658,1.658v10.731H1.939v-5.558
		c0-0.915-0.742-1.656-1.656-1.658h-3.02c-0.914,0.002-1.655,0.743-1.655,1.658v5.558h-1.427c-0.34,0-0.616,0.274-0.616,0.616
		c0,0.338,0.276,0.615,0.616,0.615h28.637c0.34,0,0.615-0.277,0.615-0.615C23.434,24.543,23.158,24.269,22.818,24.269L22.818,24.269
		z M0.708,24.269h-3.87v-5.558c0-0.235,0.191-0.424,0.424-0.424h3.021c0.233,0,0.424,0.188,0.424,0.422v5.557V24.269z
		 M10.471,24.269H6.603V13.537c0-0.235,0.189-0.424,0.424-0.424h3.021c0.234,0,0.424,0.188,0.424,0.424V24.269z M20.236,24.269
		h-3.869V4.646c0-0.233,0.188-0.423,0.424-0.423h3.02c0.236,0,0.424,0.19,0.424,0.423v19.622H20.236z"/>
	<g>
		<path fill="#4A90E2" d="M17.822-5.396c0.02-0.339-0.238-0.629-0.576-0.648c-0.025-0.001-0.047-0.001-0.072,0h-0.027h-3.729
			c-0.34,0-0.615,0.276-0.615,0.616c0,0.339,0.275,0.615,0.615,0.615h2.301l-6.09,6.093L7.334-1.017
			c-0.24-0.24-0.63-0.241-0.871-0.002c0,0.001-0.001,0.002-0.001,0.002L-4.612,10.057c-0.239,0.242-0.237,0.632,0.003,0.872
			c0.24,0.238,0.627,0.238,0.868,0L6.898,0.289l2.295,2.295c0.24,0.242,0.629,0.244,0.871,0.003c0-0.001,0.002-0.001,0.004-0.003
			l6.523-6.523v2.082c0,0.341,0.277,0.618,0.619,0.618c0.34,0,0.615-0.277,0.615-0.618v-3.508l-0.002-0.029H17.822z"/>
		<path fill="#4A90E2" d="M-4.175,11.563c-0.284-0.001-0.553-0.111-0.754-0.311c-0.418-0.419-0.421-1.098-0.006-1.516L6.139-1.339
			c0.412-0.408,1.113-0.405,1.517,0l1.973,1.974l4.99-4.993h-1.201c-0.59,0-1.07-0.48-1.07-1.071c0-0.591,0.48-1.071,1.07-1.071
			h3.844c0.598,0.035,1.049,0.542,1.016,1.131l0.004,3.511c0,0.592-0.48,1.073-1.07,1.073c-0.592,0-1.074-0.481-1.074-1.073V-2.84
			l-5.752,5.75C9.98,3.315,9.273,3.311,8.87,2.904L6.898,0.933L-3.419,11.251C-3.622,11.452-3.891,11.563-4.175,11.563z
			 M6.897-0.742c-0.025,0-0.072,0.006-0.113,0.046L-4.29,10.379c-0.061,0.063-0.061,0.164,0.002,0.228
			c0.083,0.078,0.144,0.078,0.225-0.002l10.96-10.96l2.618,2.617c0.076,0.076,0.127,0.06,0.186,0.033l0.08-0.064l7.268-7.27v3.181
			c0,0.178,0.322,0.178,0.322,0v-3.508c0.002-0.142-0.064-0.218-0.152-0.223l-3.801,0.001c-0.088,0-0.16,0.072-0.16,0.16
			c0,0.088,0.072,0.16,0.16,0.16h3.4L9.629,1.923L7.012-0.695C6.971-0.735,6.923-0.742,6.897-0.742z"/>
	</g>
</g>
</svg>
