<?xml version="1.0" encoding="utf-8"?>
<!-- Generator: Adobe Illustrator 16.0.0, SVG Export Plug-In . SVG Version: 6.00 Build 0)  -->
<!DOCTYPE svg PUBLIC "-//W3C//DTD SVG 1.1//EN" "http://www.w3.org/Graphics/SVG/1.1/DTD/svg11.dtd">
<svg version="1.1" id="Layer_1" xmlns="http://www.w3.org/2000/svg" xmlns:xlink="http://www.w3.org/1999/xlink" x="0px" y="0px"
	 width="32px" height="32px" viewBox="0 0 32 32" enable-background="new 0 0 32 32" xml:space="preserve">
<g>
	<path fill="#2A2F59" d="M25.454,32H6.545c-2.005,0-3.636-1.631-3.636-3.637V3.636C2.909,1.631,4.541,0,6.545,0h18.909
		c2.006,0,3.637,1.631,3.637,3.636v24.728C29.091,30.369,27.46,32,25.454,32z M6.545,1.455c-1.203,0-2.182,0.979-2.182,2.182v24.727
		c0,1.202,0.979,2.183,2.182,2.183h18.909c1.203,0,2.183-0.979,2.183-2.183V3.636c0-1.203-0.979-2.182-2.183-2.182L6.545,1.455
		L6.545,1.455z"/>
	<path fill="#4A90E2" d="M20.395,24.619H9.547c-0.201,0-0.363-0.163-0.363-0.363c0-0.199,0.163-0.363,0.363-0.363h10.848
		c0.199,0,0.363,0.164,0.363,0.363C20.758,24.456,20.596,24.619,20.395,24.619z M22.923,18.801H9.547
		c-0.201,0-0.363-0.162-0.363-0.363c0-0.199,0.163-0.362,0.363-0.362h13.375c0.201,0,0.364,0.163,0.364,0.362
		C23.286,18.639,23.124,18.801,22.923,18.801z M22.923,11.528H9.547c-0.201,0-0.363-0.163-0.363-0.364s0.163-0.363,0.363-0.363
		h13.375c0.201,0,0.364,0.163,0.364,0.363C23.287,11.366,23.124,11.528,22.923,11.528z"/>
</g>
</svg>
