<?xml version="1.0" encoding="utf-8"?>
<!-- Generator: Adobe Illustrator 16.0.0, SVG Export Plug-In . SVG Version: 6.00 Build 0)  -->
<!DOCTYPE svg PUBLIC "-//W3C//DTD SVG 1.1//EN" "http://www.w3.org/Graphics/SVG/1.1/DTD/svg11.dtd">
<svg version="1.1" id="Layer_1" xmlns="http://www.w3.org/2000/svg" xmlns:xlink="http://www.w3.org/1999/xlink" x="0px" y="0px"
	 width="32px" height="32px" viewBox="-8.5 -9 32 32" enable-background="new -8.5 -9 32 32" xml:space="preserve">
<g>
	<path fill="#262B56" d="M7.5-8.939c-8.836,0-16,7.136-16,15.939c0,8.8,7.164,15.939,16,15.939c8.834,0,16-7.14,16-15.939
		C23.5-1.803,16.335-8.939,7.5-8.939z M7.5,19.397C0.639,19.397-4.945,13.836-4.945,7c0-6.836,5.583-12.397,12.445-12.397
		c6.863,0,12.446,5.561,12.446,12.397C19.946,13.836,14.363,19.397,7.5,19.397z"/>
	<path fill="#4A90E2" d="M8.388-1.855H5.72V8.771l8.447,5.046L15.5,11.64L8.388,7.444V-1.855z"/>
</g>
</svg>
