<?xml version="1.0" encoding="utf-8"?>
<!-- Generator: Adobe Illustrator 16.0.0, SVG Export Plug-In . SVG Version: 6.00 Build 0)  -->
<!DOCTYPE svg PUBLIC "-//W3C//DTD SVG 1.1//EN" "http://www.w3.org/Graphics/SVG/1.1/DTD/svg11.dtd">
<svg version="1.1" id="Layer_1" xmlns="http://www.w3.org/2000/svg" xmlns:xlink="http://www.w3.org/1999/xlink" x="0px" y="0px"
	 width="32px" height="32px" viewBox="-7 -7 32 32" enable-background="new -7 -7 32 32" xml:space="preserve">
<path fill="#262B56" d="M24.497,0.356C24.178,0.03,23.74-0.15,23.284-0.142h-7.429c-0.715,0-1.476,0.237-2.284,0.711v-5.854
	c0.007-0.457-0.174-0.896-0.502-1.214c-0.317-0.327-0.759-0.508-1.213-0.5H4.431C3.888-6.983,3.354-6.863,2.859-6.642
	C2.354-6.447,1.894-6.156,1.501-5.783L-5.786,1.5c-0.371,0.393-0.662,0.854-0.856,1.357C-6.863,3.354-6.985,3.887-7,4.43v12
	c-0.008,0.455,0.172,0.894,0.499,1.212c0.319,0.326,0.758,0.507,1.214,0.5h9.717v5.144c-0.008,0.456,0.171,0.894,0.498,1.213
	c0.318,0.328,0.759,0.509,1.216,0.5h17.142c0.454,0.009,0.896-0.173,1.215-0.5c0.326-0.317,0.507-0.757,0.498-1.213V1.573
	c0.009-0.458-0.172-0.897-0.498-1.217H24.497z M13.571,3.661v5.338h-5.34L13.571,3.661z M2.141-3.195v5.339h-5.336l5.338-5.339
	H2.141z M5.643,8.356C5.271,8.748,4.979,9.209,4.784,9.714c-0.221,0.496-0.341,1.028-0.355,1.572v4.57h-9.143V4.43h7.426
	C3.17,4.438,3.61,4.255,3.927,3.928C4.255,3.61,4.437,3.17,4.429,2.713v-7.426h6.856v7.426L5.643,8.356z M22.711,22.712H6.713
	V11.286h7.428c0.458,0.009,0.896-0.174,1.215-0.502c0.327-0.319,0.507-0.757,0.5-1.214V2.144h6.855V22.712z"/>
</svg>
