<?xml version="1.0" encoding="utf-8"?>
<!-- Generator: Adobe Illustrator 16.0.0, SVG Export Plug-In . SVG Version: 6.00 Build 0)  -->
<!DOCTYPE svg PUBLIC "-//W3C//DTD SVG 1.1//EN" "http://www.w3.org/Graphics/SVG/1.1/DTD/svg11.dtd">
<svg version="1.1" id="Layer_1" xmlns="http://www.w3.org/2000/svg" xmlns:xlink="http://www.w3.org/1999/xlink" x="0px" y="0px"
	 width="32px" height="32px" viewBox="-7 -10 32 32" enable-background="new -7 -10 32 32" xml:space="preserve">
<g>
	<path fill="#262B56" d="M19.401-0.687c-2.895-2.489-6.587-3.857-10.404-3.854C0.162-4.54-7.001,2.624-7,11.461l0,0
		c0,0.234,0.023,2.447,0.034,2.684v2.396h31.9V14.32l0.031-0.176C24.976,13.908,25,11.695,25,11.459
		c0-7.842-5.599-12.144-5.599-12.144V-0.687z M-4.635,14.342c-0.015-0.162,0.007-2.729-0.005-2.891h3.691v-1.184H-4.38
		c0-0.014-0.26,0.002-0.26,0.002c0.143-3.174,1.398-6.193,3.545-8.534L-1,1.637l0.166,0.143l2.458,2.439L2.395,3.45l-2.611-2.587
		c2.354-2.138,5.383-3.381,8.56-3.513h0.185c0,0,0.077-0.003,0.071,0.045v3.61h0.984v-3.653c0.484,0.02,0.969,0.076,1.447,0.151
		c2.747,0.356,5.317,1.546,7.366,3.407l-2.605,2.585l0.726,0.721l2.503-2.481l0.139-0.11l0.118,0.156
		c2.15,2.318,3.406,5.326,3.545,8.486h-3.688v1.182l3.705-0.004c0,0,0.003,2.738-0.009,2.885l-27.464,0.01L-4.635,14.342z"/>
	<path fill="#4A90E2" d="M16.21,5.197c-1.788,0.565-6.306,3.754-7.211,4.537c-0.904,0.789-1.127,1.125-0.372,2.059
		c0.502,0.623,1.191,0.623,2.065,0C15.563,7.02,17.401,4.821,16.21,5.197z"/>
	<circle fill="#4A90E2" cx="9.03" cy="11.371" r="2.291"/>
</g>
</svg>
