<?xml version="1.0" encoding="utf-8"?>
<!-- Generator: Adobe Illustrator 16.0.0, SVG Export Plug-In . SVG Version: 6.00 Build 0)  -->
<!DOCTYPE svg PUBLIC "-//W3C//DTD SVG 1.1//EN" "http://www.w3.org/Graphics/SVG/1.1/DTD/svg11.dtd">
<svg version="1.1" id="Layer_1" xmlns="http://www.w3.org/2000/svg" xmlns:xlink="http://www.w3.org/1999/xlink" x="0px" y="0px"
	 width="32px" height="32px" viewBox="-5 -9 32 32" enable-background="new -5 -9 32 32" xml:space="preserve">
<g>
	<g>
		<path fill="#262B56" d="M3.287,4.935c0.001,0,0.002,0,0.004,0C5.575,4.94,7.432,3.092,7.437,0.807c0,0,0-0.002,0-0.003
			C7.433-1.48,5.577-3.33,3.292-3.325c-0.001,0-0.001,0-0.001,0C2.047-3.328,0.941-2.77,0.182-1.902
			c-0.636,0.726-1.035,1.664-1.037,2.705c0,0,0,0,0,0.001c0.001,1.042,0.401,1.98,1.037,2.708C0.941,4.378,2.044,4.936,3.287,4.935z
			 M1.114,0.804c0-1.197,0.975-2.168,2.177-2.168c1.201,0,2.177,0.971,2.177,2.168c0,1.199-0.976,2.168-2.177,2.168
			c-1.2,0.003-2.174-0.967-2.177-2.167C1.114,0.805,1.114,0.805,1.114,0.804z"/>
		<path fill="#262B56" d="M3.291,5.968c-0.854,0-1.973,0.133-3.109,0.396C-2.361,6.953-5,8.199-5,10.098v3.096h5.182h11.401v-3.096
			C11.583,7.352,6.059,5.968,3.291,5.968z M9.612,11.232H0.182H-3.03v-1.135c0-0.432,1.394-1.219,3.212-1.717
			C1.146,8.117,2.225,7.93,3.291,7.93c3.079,0,6.321,1.508,6.321,2.168V11.232z"/>
	</g>
	<polygon fill="#4A90E2" points="25.25,7.452 18.85,13.84 15.729,10.742 15.339,10.355 13.591,12.098 15.729,14.223 18.85,17.324 
		27,9.193 	"/>
</g>
</svg>
