<?xml version="1.0" encoding="utf-8"?>
<!-- Generator: Adobe Illustrator 16.0.0, SVG Export Plug-In . SVG Version: 6.00 Build 0)  -->
<!DOCTYPE svg PUBLIC "-//W3C//DTD SVG 1.1//EN" "http://www.w3.org/Graphics/SVG/1.1/DTD/svg11.dtd">
<svg version="1.1" id="Layer_1" xmlns="http://www.w3.org/2000/svg" xmlns:xlink="http://www.w3.org/1999/xlink" x="0px" y="0px"
	 width="32px" height="32px" viewBox="0 0 32 32" enable-background="new 0 0 32 32" xml:space="preserve">
<path fill="#1B204D" d="M26.859,14.213c1.213-1.069,1.904-2.612,1.896-4.228c0-3.021-2.328-5.48-5.188-5.48
	c-2.857,0-5.187,2.459-5.187,5.48c0,1.699,0.742,3.224,1.897,4.228c-0.436,0.193-0.854,0.423-1.25,0.688
	c-1.014,0.678-1.875,1.559-2.528,2.585c-0.674-0.465-1.4-0.852-2.162-1.147c1.727-1.319,2.731-3.372,2.714-5.546
	c0-3.746-2.884-6.792-6.431-6.792c-3.543,0-6.426,3.047-6.426,6.792c0,2.289,1.074,4.316,2.717,5.546
	c-3.496,1.354-6.176,4.584-6.873,8.646c-0.129,0.746,0.066,1.515,0.541,2.104c0.467,0.578,1.148,0.91,1.871,0.91h16.343
	c0.721,0,1.4-0.332,1.871-0.91c0.473-0.586,0.668-1.353,0.539-2.104c-0.084-0.493-0.199-0.981-0.346-1.463h9.031
	c0.62,0,1.209-0.285,1.61-0.782c0.405-0.503,0.576-1.158,0.467-1.806C31.438,17.843,29.464,15.366,26.859,14.213z M20.255,9.985
	c0-1.951,1.486-3.533,3.312-3.533c1.824,0,3.313,1.582,3.313,3.533c0,1.947-1.487,3.533-3.313,3.533
	C21.742,13.518,20.255,11.933,20.255,9.985z M6.071,10.792c0-2.672,2.041-4.847,4.552-4.847c2.51,0,4.553,2.175,4.553,4.847
	c0,2.676-2.043,4.852-4.553,4.852C8.112,15.644,6.071,13.468,6.071,10.792z M19.229,25.837c-0.104,0.136-0.267,0.214-0.435,0.216
	H2.455c-0.17-0.002-0.33-0.08-0.437-0.216c-0.117-0.146-0.166-0.332-0.134-0.514c0.771-4.48,4.443-7.735,8.738-7.735
	s7.97,3.255,8.737,7.735C19.393,25.505,19.346,25.693,19.229,25.837z M30.066,21.489c-0.043,0.053-0.104,0.086-0.176,0.088h-9.818
	c-0.545-1.063-1.256-2.031-2.104-2.871c1.219-2.019,3.309-3.242,5.6-3.242c3.222,0,5.976,2.441,6.554,5.81
	C30.132,21.352,30.113,21.43,30.066,21.489z"/>
</svg>
