<?xml version="1.0" encoding="utf-8"?>
<!-- Generator: Adobe Illustrator 16.0.0, SVG Export Plug-In . SVG Version: 6.00 Build 0)  -->
<!DOCTYPE svg PUBLIC "-//W3C//DTD SVG 1.1//EN" "http://www.w3.org/Graphics/SVG/1.1/DTD/svg11.dtd">
<svg version="1.1" id="Layer_1" xmlns="http://www.w3.org/2000/svg" xmlns:xlink="http://www.w3.org/1999/xlink" x="0px" y="0px"
	 width="32px" height="32px" viewBox="-7 -7.5 32 32" enable-background="new -7 -7.5 32 32" xml:space="preserve">
<path fill="#262B56" d="M10.661,23.562H7.363c-0.443,0-0.847-0.146-1.168-0.426c-0.335-0.293-0.535-0.68-0.579-1.12l-0.311-2.928
	c-0.552-0.176-1.093-0.393-1.621-0.646l-2.481,1.906c-0.367,0.258-0.723,0.377-1.091,0.377c-0.403,0-0.886-0.16-1.211-0.452
	l-2.35-2.204c-0.31-0.272-0.512-0.693-0.537-1.136c-0.021-0.478,0.158-0.93,0.491-1.257l1.926-2.208
	c-0.251-0.47-0.466-0.949-0.644-1.435l-3.189-0.298c-0.434-0.04-0.823-0.22-1.118-0.522C-6.833,10.899-7,10.493-7,10.04V6.964
	c-0.008-0.432,0.171-0.873,0.493-1.19c0.279-0.288,0.668-0.468,1.11-0.508l3.185-0.297c0.18-0.494,0.394-0.973,0.64-1.437
	l-1.975-2.258c-0.283-0.275-0.461-0.729-0.441-1.193c0.026-0.452,0.228-0.871,0.556-1.164l2.317-2.171
	c0.335-0.306,0.756-0.47,1.194-0.47c0.443,0.012,0.811,0.142,1.12,0.376L3.682-1.44C4.207-1.691,4.75-1.906,5.305-2.085L5.618-5.02
	c0.041-0.432,0.25-0.833,0.587-1.119c0.309-0.27,0.716-0.423,1.14-0.423h3.292h0.002c0.442,0,0.848,0.152,1.166,0.428
	c0.339,0.29,0.545,0.695,0.579,1.14l0.311,2.907c0.553,0.179,1.096,0.394,1.62,0.646l2.482-1.905
	c0.284-0.235,0.679-0.378,1.083-0.378h0.002c0.478,0,0.898,0.163,1.225,0.458l2.345,2.199c0.314,0.281,0.516,0.702,0.536,1.141
	c0.019,0.478-0.16,0.931-0.492,1.255L19.57,3.533c0.249,0.464,0.463,0.943,0.644,1.438l3.19,0.297
	c0.401,0.027,0.804,0.209,1.108,0.509L25,6.724v0.234c0,0.005,0,0.011,0,0.016v3.066c0.003,0.432-0.174,0.866-0.487,1.18
	c-0.281,0.294-0.671,0.476-1.117,0.516l-3.186,0.298c-0.177,0.485-0.391,0.965-0.642,1.435l1.977,2.262
	c0.28,0.269,0.461,0.722,0.444,1.188c-0.028,0.463-0.233,0.882-0.564,1.172l-2.31,2.168c-0.613,0.565-1.652,0.626-2.331,0.077
	l-2.468-1.894c-0.528,0.254-1.071,0.471-1.622,0.646l-0.313,2.934c-0.032,0.421-0.242,0.829-0.586,1.121
	C11.488,23.41,11.081,23.562,10.661,23.562z M7.512,21.636h3.033l0.373-4.054l0.643-0.167c0.825-0.217,1.634-0.538,2.401-0.954
	l0.549-0.297l3.461,2.656l1.986-1.983l-2.755-3.151l0.368-0.604c0.438-0.717,0.775-1.465,1.001-2.225l0.187-0.624l4.314-0.4V7.14
	l-4.31-0.371l-0.187-0.621c-0.234-0.78-0.572-1.528-1.002-2.224l-0.374-0.604l2.753-3.15L17.8-1.852l-3.289,2.688l-0.549-0.298
	c-0.761-0.411-1.569-0.73-2.401-0.95L10.918-0.58l-0.432-4.055H7.514L7.081-0.578L6.439-0.41C5.602-0.189,4.793,0.13,4.036,0.539
	L3.487,0.838L0.029-1.817L-1.96,0.166l2.757,3.151L0.424,3.922C-0.004,4.616-0.34,5.364-0.574,6.146L-0.76,6.767L-5.074,7.17v2.698
	l4.315,0.365l0.185,0.626c0.223,0.754,0.56,1.502,1.001,2.221l0.371,0.604l-2.752,3.15l2.156,2.021l3.286-2.693l0.55,0.299
	c0.766,0.416,1.574,0.735,2.4,0.954l0.643,0.169L7.512,21.636z M9.017,13.633L9.002,12.67l0.002,0.963H8.987
	c-1.405,0-2.75-0.521-3.787-1.464C4.692,11.69,4.301,11.14,4.025,10.52c-0.29-0.634-0.438-1.318-0.435-2.023
	c0-0.703,0.146-1.384,0.433-2.019c0.28-0.624,0.672-1.175,1.164-1.635c2.126-1.934,5.569-1.871,7.611-0.01
	c0.503,0.471,0.894,1.021,1.174,1.647c0.286,0.629,0.433,1.309,0.433,2.018c0,0.39,0.033,0.809-0.053,1.177l0,0l-0.376,0.848
	c-0.28,0.626-0.673,1.178-1.166,1.636C11.767,13.112,10.422,13.633,9.017,13.633z M9.004,11.708L9.002,12.67l0.015-0.962
	c0.924,0,1.808-0.343,2.488-0.964c0.257-0.238,0.473-0.527,0.643-0.854l0.071-0.162c0.176-0.386,0.261-0.789,0.261-1.229
	c0-0.438-0.085-0.839-0.261-1.226c-0.178-0.396-0.421-0.739-0.727-1.025C10.123,5,7.831,5.035,6.493,6.258
	C6.199,6.533,5.955,6.877,5.779,7.269C5.602,7.66,5.516,8.063,5.516,8.498c-0.002,0.43,0.088,0.844,0.264,1.23
	c0.175,0.394,0.419,0.736,0.727,1.026c0.67,0.61,1.555,0.953,2.479,0.953H9.004z"/>
</svg>
