<?xml version="1.0" encoding="utf-8"?>
<!-- Generator: Adobe Illustrator 16.0.0, SVG Export Plug-In . SVG Version: 6.00 Build 0)  -->
<!DOCTYPE svg PUBLIC "-//W3C//DTD SVG 1.1//EN" "http://www.w3.org/Graphics/SVG/1.1/DTD/svg11.dtd">
<svg version="1.1" id="Layer_1" xmlns="http://www.w3.org/2000/svg" xmlns:xlink="http://www.w3.org/1999/xlink" x="0px" y="0px"
	 width="32px" height="32px" viewBox="-7.5 -5.5 32 32" enable-background="new -7.5 -5.5 32 32" xml:space="preserve">
<g>
	<path fill="#262B56" d="M21.295,25.589l-1.461-1.443V5.479l-0.268-0.265l-2.43-2.402V-5.5H-4.451v27.733h2.697v2.666h20.827
		l1.457,1.442c0.213,0.211,0.555,0.211,0.766,0c0.207-0.205,0.209-0.539,0.004-0.747C21.299,25.594,21.295,25.592,21.295,25.589z
		 M17.992,5.167h-6.254v-6.179l5.398,5.333L17.992,5.167z M-3.373,21.166V-4.433h19.427v6.178l-4.365-4.314l-0.268-0.265H-1.753
		v23.999H-3.373z M-0.674,23.833V-1.766H10.66v8h8.094v16.845l-4.055-4.007c0.938-1.097,1.51-2.515,1.51-4.063
		c0-3.479-2.865-6.309-6.385-6.309c-3.521,0-6.382,2.829-6.382,6.309c0,3.478,2.863,6.31,6.382,6.31c1.566,0,3-0.565,4.111-1.493
		l4.057,4.008H-0.672H-0.674z M9.824,20.25c-2.925,0-5.303-2.352-5.303-5.243c0-2.888,2.38-5.241,5.303-5.241
		c2.926,0,5.305,2.354,5.305,5.241C15.129,17.898,12.75,20.25,9.824,20.25z"/>
	<path fill="#4A90E2" d="M6.68,13.699h3.238c0.297,0.003,0.537-0.236,0.539-0.533l0,0c-0.002-0.296-0.242-0.535-0.539-0.532l0,0
		H6.68c-0.296-0.003-0.538,0.236-0.54,0.532l0,0C6.141,13.461,6.381,13.699,6.68,13.699z M13.156,15.833H6.68
		c-0.296-0.001-0.538,0.238-0.54,0.533l0,0c0,0.296,0.24,0.534,0.54,0.534h6.476c0.297,0.001,0.537-0.237,0.539-0.534l0,0
		C13.693,16.071,13.453,15.832,13.156,15.833L13.156,15.833z"/>
</g>
</svg>
