<?xml version="1.0" encoding="utf-8"?>
<!-- Generator: Adobe Illustrator 16.0.0, SVG Export Plug-In . SVG Version: 6.00 Build 0)  -->
<!DOCTYPE svg PUBLIC "-//W3C//DTD SVG 1.1//EN" "http://www.w3.org/Graphics/SVG/1.1/DTD/svg11.dtd">
<svg version="1.1" id="Layer_1" xmlns="http://www.w3.org/2000/svg" xmlns:xlink="http://www.w3.org/1999/xlink" x="0px" y="0px"
	 width="32px" height="32px" viewBox="0 0 32 32" enable-background="new 0 0 32 32" xml:space="preserve">
<g>
	<g>
		<g>
			<path fill="#4A90E2" d="M4.403,6.599v7c0,0.403,0.322,0.726,0.724,0.726c0.398,0.002,0.723-0.319,0.725-0.718
				c0-0.003,0-0.005,0-0.007V7.322h6.92l-1.066,1.066c-0.283,0.278-0.286,0.734-0.008,1.017c0.002,0.002,0.004,0.005,0.008,0.006
				c0.279,0.283,0.733,0.285,1.017,0.005c0.002-0.001,0.004-0.003,0.005-0.005l2.303-2.302c0.136-0.136,0.211-0.318,0.212-0.511
				c-0.001-0.191-0.076-0.376-0.212-0.513l-2.302-2.301c-0.28-0.283-0.734-0.284-1.017-0.005c-0.001,0.002-0.002,0.003-0.004,0.005
				c-0.283,0.278-0.285,0.734-0.006,1.017c0.002,0.001,0.003,0.003,0.005,0.004l1.064,1.068H5.126
				C4.728,5.873,4.403,6.195,4.402,6.593C4.403,6.596,4.403,6.598,4.403,6.599z M27.007,18.494v6.277h-6.92l1.066-1.066
				c0.135-0.135,0.211-0.317,0.213-0.51c0-0.192-0.076-0.375-0.213-0.513c-0.277-0.285-0.733-0.286-1.017-0.008
				c-0.002,0.002-0.006,0.006-0.006,0.008l-2.305,2.302c-0.282,0.278-0.284,0.734-0.006,1.018c0.002,0.002,0.006,0.004,0.006,0.006
				l2.305,2.302c0.277,0.283,0.733,0.285,1.017,0.004c0,0,0.002-0.002,0.004-0.004c0.282-0.278,0.284-0.733,0.004-1.017
				c0-0.002-0.002-0.004-0.004-0.006l-1.064-1.066h7.643c0.399,0.002,0.724-0.32,0.726-0.719c0-0.002,0-0.004,0-0.006v-7.002
				c-0.027-0.398-0.376-0.698-0.775-0.668c-0.358,0.023-0.644,0.311-0.67,0.668H27.007z"/>
			<path fill="#4A90E2" d="M20.642,28.812c-0.271,0-0.524-0.106-0.715-0.299l-2.389-2.404c-0.146-0.19-0.214-0.399-0.214-0.618
				c0.002-0.271,0.107-0.521,0.3-0.711l2.311-2.31c0.386-0.383,1.046-0.373,1.427,0.009c0.19,0.194,0.296,0.448,0.296,0.717
				c-0.004,0.27-0.108,0.521-0.298,0.713l-0.574,0.573h5.933v-6.276h0.061c0.135-0.369,0.478-0.642,0.884-0.667l0.073-0.004
				c0.528,0,0.972,0.412,1.008,0.938l0.003,7.023c-0.005,0.562-0.457,1.014-1.011,1.014h-6.951l0.659,0.67
				c0.14,0.179,0.213,0.396,0.213,0.625c-0.002,0.27-0.106,0.521-0.3,0.71C21.162,28.705,20.908,28.812,20.642,28.812z
				 M18.139,25.91l2.198,2.193c0.158,0.168,0.443,0.168,0.607,0.004c0.085-0.085,0.13-0.191,0.132-0.307
				c0-0.115-0.045-0.223-0.126-0.305L19.39,25.93h8.34c0.24,0,0.436-0.191,0.436-0.43v-7.007c-0.016-0.205-0.204-0.382-0.432-0.382
				c-0.248,0.017-0.42,0.189-0.438,0.402v6.547h-7.908l1.561-1.563c0.081-0.081,0.128-0.191,0.128-0.308
				c0-0.112-0.045-0.222-0.128-0.307c-0.153-0.154-0.416-0.168-0.586-0.026l-0.025,0.028l-2.305,2.302
				c-0.083,0.081-0.128,0.188-0.13,0.305c0,0.113,0.043,0.224,0.124,0.305l0.116,0.087L18.139,25.91z M5.131,14.613L5.131,14.613
				H5.127c-0.558,0-1.012-0.455-1.012-1.015v-7C4.116,6.037,4.57,5.585,5.126,5.585h6.949l-0.61-0.613
				c-0.169-0.187-0.262-0.427-0.261-0.681c0.002-0.271,0.106-0.522,0.299-0.712c0.392-0.39,1.052-0.382,1.43,0.002l2.301,2.301
				c0.19,0.193,0.296,0.446,0.297,0.715c-0.001,0.272-0.105,0.524-0.295,0.717L12.89,9.654c-0.382,0.351-1.022,0.334-1.39-0.039
				c-0.196-0.198-0.301-0.451-0.3-0.721c0.003-0.27,0.108-0.521,0.301-0.712l0.571-0.57H6.14V13.6
				C6.138,14.162,5.686,14.613,5.131,14.613z M5.128,6.163c-0.239,0-0.434,0.192-0.435,0.431v7.005c0,0.245,0.191,0.437,0.435,0.437
				h0.003c0.236,0,0.431-0.193,0.432-0.43V7.033h7.908l-1.563,1.56c-0.083,0.082-0.128,0.19-0.129,0.305
				c-0.001,0.115,0.043,0.223,0.123,0.305c0.178,0.177,0.451,0.169,0.615,0.009l2.308-2.305c0.081-0.082,0.126-0.192,0.128-0.31
				c-0.002-0.112-0.049-0.226-0.13-0.308l-2.3-2.3c-0.166-0.163-0.444-0.163-0.608-0.005c-0.087,0.087-0.133,0.194-0.133,0.31
				s0.043,0.222,0.125,0.303l1.563,1.566H5.128z"/>
		</g>
	</g>
	<g>
		<path fill="#262B56" d="M4.992,24.262H7.21v1.928H4.992V24.262z M4.992,26.481H7.21v1.929H4.992V26.481z M4.992,19.879H7.21v1.928
			H4.992V19.879z M4.992,22.097H7.21v1.928H4.992V22.097z M9.313,24.262h2.217v1.928H9.313V24.262z M9.313,26.481h2.217v1.929H9.313
			V26.481z M9.313,19.879h2.217v1.928H9.313V19.879z M9.313,22.097h2.217v1.928H9.313V22.097z"/>
		<path fill="#262B56" d="M12.376,17.221v-1.109H4.24v1.117H1.985L1.991,32h12.602V17.229L12.376,17.221z M8.899,30.888v-2.293
			H7.791v2.295H3.084l0.011-12.554h2.256v-1.117h5.914v1.109l2.217,0.004v12.556h-4.58H8.899z"/>
	</g>
	<g>
		<path fill="#262B56" d="M20.414,8.153h2.218v1.928h-2.218V8.153z M20.414,10.372h2.218V12.3h-2.218V10.372z M20.414,3.77h2.218
			v1.929h-2.218V3.77z M20.414,5.987h2.218v1.928h-2.218V5.987z M24.735,8.153h2.217v1.928h-2.217V8.153z M24.735,10.372h2.217V12.3
			h-2.217V10.372z M24.735,3.77h2.217v1.929h-2.217V3.77z M24.735,5.987h2.217v1.928h-2.217V5.987z"/>
		<path fill="#262B56" d="M27.798,1.113V0H19.66v1.118h-2.255l0.008,14.767h12.602V1.119l-2.217-0.008V1.113z M24.321,14.781v-2.294
			h-1.109v2.294h-4.706l0.011-12.556h2.255V1.108h5.915v1.107l2.219,0.008v12.558H24.321z"/>
	</g>
</g>
</svg>
