<?xml version="1.0" encoding="utf-8"?>
<!-- Generator: Adobe Illustrator 16.0.0, SVG Export Plug-In . SVG Version: 6.00 Build 0)  -->
<!DOCTYPE svg PUBLIC "-//W3C//DTD SVG 1.1//EN" "http://www.w3.org/Graphics/SVG/1.1/DTD/svg11.dtd">
<svg version="1.1" id="Layer_1" xmlns="http://www.w3.org/2000/svg" xmlns:xlink="http://www.w3.org/1999/xlink" x="0px" y="0px"
	 width="32px" height="32px" viewBox="0 0 32 32" enable-background="new 0 0 32 32" xml:space="preserve">
<g>
	<polygon fill="#262B56" points="17.22,4.806 17.22,4.806 17.222,4.806 	"/>
	<g>
		<path fill="#262B56" d="M19.707,21.986c-0.456-0.849-1.425-1.527-2.579-2.041c-1.765-0.782-3.949-1.181-5.392-1.181
			c-0.247,0-0.523,0.017-0.812,0.04c-0.603,0.048-1.271,0.149-1.962,0.301c-2.627,0.578-5.48,1.896-5.48,3.955v3.223h16.511v-3.223
			C19.993,22.678,19.887,22.32,19.707,21.986z M18.031,24.242H5.443v-1.182c0-0.476,1.555-1.36,3.521-1.869
			c0.877-0.228,1.827-0.386,2.772-0.386c1.854,0,3.759,0.575,4.98,1.181c0.8,0.396,1.313,0.803,1.313,1.074L18.031,24.242
			L18.031,24.242z"/>
		<path fill="#262B56" d="M9.679,17.1c0.607,0.367,1.305,0.593,2.059,0.593c0.223,0,0.437-0.032,0.649-0.068
			c0.553-0.091,1.066-0.292,1.522-0.589c0.854-0.554,1.487-1.418,1.775-2.446c0.105-0.382,0.182-0.776,0.182-1.194
			c0-0.091-0.02-0.174-0.026-0.263c-0.104-1.749-1.2-3.203-2.721-3.768C12.686,9.203,12.226,9.1,11.736,9.1v0.002
			c-2.28,0-4.127,1.921-4.127,4.295C7.609,14.984,8.446,16.355,9.679,17.1z M11.736,11.141v0.002c1.198,0,2.168,1.009,2.168,2.256
			c0,0.771-0.397,1.421-0.968,1.827c-0.301,0.213-0.644,0.356-1.028,0.39c-0.06,0.005-0.11,0.036-0.172,0.036
			c-1.196,0-2.167-1.011-2.167-2.256S10.54,11.141,11.736,11.141z"/>
	</g>
	<path fill="#4A90E2" d="M30.815,22.425c-0.039-0.476-0.443-0.846-0.92-0.846l-0.084,0.004c-0.455,0.038-0.818,0.413-0.847,0.892
		l0.097,5.474l-5.424,0.094l0.516-0.533c0.169-0.176,0.263-0.407,0.263-0.661c-0.009-0.246-0.108-0.477-0.284-0.646
		c-0.338-0.325-0.901-0.342-1.248-0.036l-2.129,2.196c-0.354,0.363-0.348,0.949,0.022,1.31l2.141,2.069
		c0.174,0.167,0.403,0.261,0.644,0.261c0.254,0,0.489-0.103,0.666-0.284c0.174-0.179,0.265-0.412,0.262-0.66
		c-0.006-0.205-0.076-0.399-0.202-0.557l-0.615-0.607l6.351-0.107c0.506-0.012,0.914-0.432,0.91-0.936L30.815,22.425z"/>
	<path fill="#4A90E2" d="M11.222,2.316L9.404,0.564L9.08,0.253C8.729-0.09,8.123-0.087,7.773,0.274
		C7.689,0.36,7.628,0.46,7.585,0.564C7.443,0.903,7.512,1.308,7.792,1.583L8.326,2.1l-6.347,0.11
		C1.472,2.216,1.063,2.634,1.067,3.146v0.001c0,0.001,0,0.001,0,0.002l0.114,6.396c0.004,0.504,0.418,0.913,0.921,0.913h0.017
		c0.509-0.004,0.919-0.423,0.914-0.941L2.936,4.044l5.423-0.096L7.846,4.479C7.508,4.827,7.499,5.374,7.829,5.746l0.038,0.042
		C8.224,6.137,8.83,6.125,9.176,5.767l2.067-2.141c0.171-0.178,0.262-0.411,0.259-0.659C11.497,2.722,11.397,2.49,11.222,2.316z"/>
	<g>
		<path fill="#262B56" d="M25.476,18.766c0-2.854-5.499-4.294-8.254-4.294c-0.137,0-0.291,0.011-0.439,0.018
			c-0.163,0.8-0.502,1.518-0.969,2.143c0.466-0.065,0.938-0.122,1.408-0.122c3.063,0,6.295,1.567,6.295,2.256v1.182H19.21
			c0.767,0.565,1.366,1.238,1.646,2.041h4.619V18.766L25.476,18.766z"/>
		<path fill="#262B56" d="M15.054,9.102c0-1.245,0.97-2.255,2.168-2.255c1.195,0,2.166,1.01,2.166,2.255
			c0,1.246-0.971,2.256-2.166,2.256c-0.272,0-0.527-0.066-0.769-0.162c0.296,0.675,0.463,1.408,0.466,2.171
			c0.103,0.008,0.198,0.029,0.303,0.029c2.279,0,4.125-1.921,4.125-4.295c0-2.373-1.848-4.295-4.127-4.296
			c-2.008,0.002-3.677,1.494-4.046,3.471c0.708,0.211,1.36,0.574,1.929,1.079C15.094,9.268,15.054,9.19,15.054,9.102z"/>
		<path fill="#6CC28B" d="M14.513,16.558c-0.01,0.009-0.019,0.015-0.026,0.022C14.494,16.57,14.503,16.565,14.513,16.558z"/>
		<path fill="#6CC28B" d="M19.241,21.353c0.02,0.021,0.037,0.041,0.057,0.063C19.278,21.394,19.261,21.373,19.241,21.353z"/>
		<path fill="#6CC28B" d="M15.013,15.985c-0.006,0.005-0.009,0.009-0.014,0.015C15.004,15.995,15.007,15.991,15.013,15.985z"/>
		<path fill="#6CC28B" d="M19.707,21.986c-0.105-0.2-0.248-0.391-0.409-0.57C19.458,21.597,19.6,21.786,19.707,21.986L19.707,21.986
			z"/>
		<path fill="#6CC28B" d="M13.909,17.034c0.001,0,0.001,0,0.002,0c0.205-0.135,0.396-0.287,0.574-0.454
			C14.309,16.747,14.116,16.899,13.909,17.034z"/>
		<path fill="#6CC28B" d="M14.999,16c-0.146,0.201-0.31,0.388-0.486,0.557C14.69,16.389,14.853,16.201,14.999,16z"/>
	</g>
</g>
</svg>
