<?xml version="1.0" encoding="utf-8"?>
<!-- Generator: Adobe Illustrator 16.0.0, SVG Export Plug-In . SVG Version: 6.00 Build 0)  -->
<!DOCTYPE svg PUBLIC "-//W3C//DTD SVG 1.1//EN" "http://www.w3.org/Graphics/SVG/1.1/DTD/svg11.dtd">
<svg version="1.1" id="Layer_1" xmlns="http://www.w3.org/2000/svg" xmlns:xlink="http://www.w3.org/1999/xlink" x="0px" y="0px"
	 width="32px" height="32px" viewBox="0 0 32 32" enable-background="new 0 0 32 32" xml:space="preserve">
<g>
	<path d="M30.646,13.295c-0.748,0-1.352,0.606-1.352,1.351v1.362c0,3.55-1.386,6.891-3.9,9.4c-2.486,2.498-5.871,3.898-9.396,3.888
		h-0.007C8.651,29.283,2.706,23.329,2.703,15.992c0.002-3.55,1.387-6.891,3.9-9.4C9.091,4.094,12.474,2.693,16,2.703h0.008
		c1.873,0,3.692,0.389,5.404,1.152c0.675,0.315,1.479,0.025,1.8-0.651c0.317-0.676,0.024-1.482-0.649-1.798
		c-0.017-0.009-0.033-0.016-0.049-0.022C20.467,0.469,18.25-0.002,16.008,0H16C11.729,0,7.715,1.665,4.694,4.68
		C1.681,7.674-0.008,11.746,0,15.992c-0.012,4.245,1.673,8.32,4.68,11.314c2.994,3.012,7.065,4.701,11.312,4.693H16
		c4.241,0.012,8.313-1.675,11.307-4.68c3.012-2.991,4.701-7.066,4.693-11.313v-1.362C32,13.899,31.395,13.295,30.646,13.295z"/>
	<path d="M31.664,2.825c-0.402-0.448-1.09-0.486-1.535-0.085C30.1,2.767,30.07,2.795,30.043,2.825L17.18,16.704l-2.914-3.149
		c-0.402-0.448-1.089-0.486-1.537-0.085c-0.029,0.028-0.057,0.055-0.085,0.085c-0.446,0.497-0.446,1.252,0,1.749l3.727,4.025
		c0.225,0.24,0.52,0.361,0.813,0.361c0.311,0,0.603-0.133,0.809-0.361L31.664,4.574C32.111,4.077,32.111,3.322,31.664,2.825z"/>
</g>
</svg>
