<?xml version="1.0" encoding="utf-8"?>
<!-- Generator: Adobe Illustrator 16.0.0, SVG Export Plug-In . SVG Version: 6.00 Build 0)  -->
<!DOCTYPE svg PUBLIC "-//W3C//DTD SVG 1.1//EN" "http://www.w3.org/Graphics/SVG/1.1/DTD/svg11.dtd">
<svg version="1.1" id="Layer_1" xmlns="http://www.w3.org/2000/svg" xmlns:xlink="http://www.w3.org/1999/xlink" x="0px" y="0px"
	 width="32px" height="32px" viewBox="0 0 32 32" enable-background="new 0 0 32 32" xml:space="preserve">
<g>
	<path d="M3.734,3.732v27.732C3.734,31.76,3.974,32,4.267,32h20.269c0.296-0.004,0.531-0.242,0.528-0.537l0,0V9.068L25.06,9.035
		c-0.003-0.047-0.012-0.092-0.025-0.137l-0.021-0.051c-0.021-0.058-0.062-0.111-0.104-0.156l-5.335-5.335
		c-0.092-0.091-0.215-0.145-0.344-0.151L19.2,3.2H4.268C3.972,3.202,3.734,3.44,3.734,3.732z M23.247,8.532h-3.514V5.021
		L23.247,8.532L23.247,8.532z M4.801,4.269H18.67V9.07c0,0.29,0.237,0.531,0.53,0.531h4.803v21.33H4.801V4.269z"/>
	<path d="M26.136,27.73v1.068h1.601c0.291,0,0.529-0.238,0.529-0.533V0.535C28.266,0.238,28.031,0,27.736,0H7.469
		C7.175,0,6.935,0.238,6.935,0.535v1.599h1.066V1.066H27.2v26.666h-1.064V27.73z"/>
	<path d="M8.001,10.666h12.803v1.068H8.001V10.666z M8.001,7.466h4.267v1.065H8.001V7.466z M8.001,13.866h8.534v1.067H8.001V13.866z
		 M17.603,13.866h3.196v1.067h-3.196V13.866z M8.001,17.066h12.803v1.064H8.001V17.066z M8.001,23.465h12.803v1.066H8.001V23.465z
		 M12.8,20.265h7.999v1.067h-7.997L12.8,20.265z M8.001,20.265h3.732v1.067H8.004L8.001,20.265z M8.001,26.666h2.134v1.068H8.001
		V26.666z M11.203,26.666h9.596v1.068h-9.596V26.666z"/>
</g>
</svg>
