<?xml version="1.0" encoding="utf-8"?>
<!-- Generator: Adobe Illustrator 16.0.0, SVG Export Plug-In . SVG Version: 6.00 Build 0)  -->
<!DOCTYPE svg PUBLIC "-//W3C//DTD SVG 1.1//EN" "http://www.w3.org/Graphics/SVG/1.1/DTD/svg11.dtd">
<svg version="1.1" id="Layer_1" xmlns="http://www.w3.org/2000/svg" xmlns:xlink="http://www.w3.org/1999/xlink" x="0px" y="0px"
	 width="32px" height="32px" viewBox="0 0 32 32" enable-background="new 0 0 32 32" xml:space="preserve">
<g>
	<path d="M15.389,12.915c0.017,0.017,0.031,0.035,0.048,0.051c0.071,0.074,0.152,0.134,0.243,0.176
		c0.116,0.058,0.217,0.08,0.372,0.086c0.117,0,0.237-0.026,0.35-0.076c0.086-0.041,0.173-0.097,0.245-0.168
		c0.018-0.017,0.035-0.034,0.051-0.051l2.416-2.701c0.313-0.352,0.283-0.89-0.068-1.204c-0.348-0.315-0.889-0.287-1.205,0.064
		l-1.772,1.983l-0.607-0.716c-0.303-0.361-0.84-0.406-1.202-0.103c-0.36,0.305-0.404,0.843-0.1,1.203L15.389,12.915z"/>
	<path d="M5.499,12.521h6.191c0.47,0,0.853-0.382,0.853-0.853c0-0.471-0.382-0.853-0.853-0.853H5.499
		c-0.47,0-0.853,0.381-0.853,0.853S5.029,12.521,5.499,12.521z"/>
	<path d="M17.84,13.722l-1.772,1.979l-0.607-0.718c-0.303-0.359-0.841-0.405-1.202-0.1c-0.36,0.304-0.404,0.842-0.1,1.202
		l1.23,1.458c0.015,0.019,0.031,0.035,0.048,0.048c0.071,0.077,0.155,0.137,0.245,0.179c0.118,0.058,0.251,0.096,0.371,0.085
		c0.117,0,0.235-0.024,0.346-0.072c0.09-0.039,0.176-0.1,0.25-0.173c0.017-0.017,0.033-0.032,0.047-0.048l2.418-2.7
		c0.313-0.351,0.283-0.891-0.067-1.204C18.697,13.342,18.156,13.371,17.84,13.722z"/>
	<path d="M5.499,17.146h6.191c0.47,0,0.853-0.383,0.853-0.853c0-0.471-0.382-0.853-0.853-0.853H5.499
		c-0.47,0-0.853,0.382-0.853,0.853C4.646,16.765,5.029,17.146,5.499,17.146z"/>
	<path d="M11.891,20.013H5.512c-0.47,0-0.853,0.383-0.853,0.854c0,0.472,0.382,0.853,0.853,0.853h6.379
		c0.471,0,0.853-0.381,0.853-0.853C12.744,20.396,12.362,20.013,11.891,20.013z"/>
	<path d="M26.948,11.125V7.405c0-1.667-1.302-2.971-3.087-2.971H3.41C1.623,4.434,0,5.739,0,7.405v17.067
		c0,1.669,1.624,3.095,3.41,3.095h20.451c1.69,0.014,3.072-1.346,3.087-3.038c0-0.02,0-0.035,0-0.055v-1.946
		C29.799,22.124,32,19.736,32,16.828C32,13.916,29.799,11.531,26.948,11.125z M23.861,26.354H3.41c-1.071,0-2.109-0.881-2.109-1.882
		V7.406C1.3,6.403,2.336,5.645,3.409,5.645h20.454c1.072,0,1.785,0.759,1.785,1.758v3.639l0.041,0.042
		c-3.058,0.213-5.479,2.687-5.479,5.744c0,3.041,2.395,5.505,5.436,5.737v1.908h0.002C25.646,25.475,24.936,26.354,23.861,26.354z
		 M29.079,18.464c0.179,0.164,0.276,0.373,0.282,0.593c0.008,0.21-0.072,0.41-0.221,0.57c-0.285,0.306-0.813,0.336-1.135,0.053
		c-0.13-0.111-0.26-0.232-0.39-0.355l-1.4-1.296l-1.655,1.726c-0.178,0.184-0.398,0.286-0.629,0.286
		c-0.172,0-0.334-0.056-0.477-0.159c-0.176-0.123-0.288-0.309-0.321-0.521c-0.028-0.17-0.003-0.337,0.073-0.485v-0.05l0.104-0.106
		c0.015-0.021,0.051-0.065,0.098-0.11l1.621-1.685l-1.891-1.757c-0.258-0.233-0.351-0.533-0.265-0.847
		c0.16-0.55,0.901-0.755,1.343-0.368c0.152,0.137,0.299,0.275,0.445,0.413l1.488,1.385l1.771-1.842
		c0.269-0.267,0.554-0.345,0.861-0.262c0.258,0.07,0.466,0.267,0.555,0.522c0.085,0.249,0.038,0.525-0.125,0.735
		c-0.054,0.072-0.12,0.142-0.187,0.211l-1.674,1.741L29.079,18.464z"/>
</g>
</svg>
