<?xml version="1.0" encoding="utf-8"?>
<!-- Generator: Adobe Illustrator 16.0.0, SVG Export Plug-In . SVG Version: 6.00 Build 0)  -->
<!DOCTYPE svg PUBLIC "-//W3C//DTD SVG 1.1//EN" "http://www.w3.org/Graphics/SVG/1.1/DTD/svg11.dtd">
<svg version="1.1" id="Layer_1" xmlns="http://www.w3.org/2000/svg" xmlns:xlink="http://www.w3.org/1999/xlink" x="0px" y="0px"
	 width="32px" height="32px" viewBox="0 0 32 32" enable-background="new 0 0 32 32" xml:space="preserve">
<g>
	<polygon points="17.6,14.399 14.399,14.399 14.399,19.201 9.602,19.201 9.602,22.4 14.399,22.4 14.399,27.199 17.6,27.199 
		17.6,22.4 22.398,22.4 22.398,19.201 17.6,19.201 	"/>
	<path d="M6.401,0C4.64,0,3.2,1.441,3.2,3.2v25.6c-0.002,1.763,1.422,3.195,3.183,3.2H25.6c1.764,0,3.2-1.441,3.2-3.2V9.602L19.2,0
		H6.401z M25.6,28.8H6.401V3.2H17.6v8.001h8V28.8z"/>
</g>
</svg>
