<?xml version="1.0" encoding="utf-8"?>
<!-- Generator: Adobe Illustrator 16.0.0, SVG Export Plug-In . SVG Version: 6.00 Build 0)  -->
<!DOCTYPE svg PUBLIC "-//W3C//DTD SVG 1.1//EN" "http://www.w3.org/Graphics/SVG/1.1/DTD/svg11.dtd">
<svg version="1.1" id="Layer_1" xmlns="http://www.w3.org/2000/svg" xmlns:xlink="http://www.w3.org/1999/xlink" x="0px" y="0px"
	 width="32px" height="32px" viewBox="0 0 32 32" enable-background="new 0 0 32 32" xml:space="preserve">
<g transform="translate(1 1)">
	<path d="M15,31C6.178,31-1,23.822-1,15S6.178-1,15-1c8.822,0,16,7.178,16,16S23.822,31,15,31z M15,1C7.28,1,1,7.28,1,15
		c0,7.719,6.28,14,14,14c7.719,0,14-6.281,14-14C29,7.28,22.719,1,15,1z"/>
	<path d="M20.375,21.703c-1.367-0.336-3.238-0.793-4.205-1.234c-1.896-0.859-3.128-2.172-3.768-4.004
		c-0.278-0.801-0.43-1.665-0.464-2.641c-0.004-0.128-0.006-0.256-0.006-0.385c0.183,0.108,0.364,0.215,0.546,0.322
		c0.465,0.274,0.929,0.546,1.385,0.826l1.453,0.883l-4.71-9.666l-4.9,9.599l1.468-0.853c0.428-0.248,0.86-0.489,1.294-0.735
		c0.218-0.125,0.438-0.246,0.658-0.37c0.01,0.182,0.022,0.363,0.038,0.542c0.076,0.973,0.28,1.933,0.608,2.855
		c0.792,2.209,2.247,3.834,4.329,4.836c1.502,0.723,2.995,1.115,6.576,1.115l0.123-0.982L20.375,21.703z"/>
</g>
</svg>
