<?xml version="1.0" encoding="utf-8"?>
<!-- Generator: Adobe Illustrator 16.0.0, SVG Export Plug-In . SVG Version: 6.00 Build 0)  -->
<!DOCTYPE svg PUBLIC "-//W3C//DTD SVG 1.1//EN" "http://www.w3.org/Graphics/SVG/1.1/DTD/svg11.dtd">
<svg version="1.1" id="Layer_1" xmlns="http://www.w3.org/2000/svg" xmlns:xlink="http://www.w3.org/1999/xlink" x="0px" y="0px"
	 width="32px" height="32px" viewBox="0 0 32 32" enable-background="new 0 0 32 32" xml:space="preserve">
<path d="M18.859,9.714c0.281,0,0.57,0.006,0.858,0.017l1.195,0.039V2L32,14.818l-6.465,7.471l-1.094,1.266l-3.529,4.078v-7.447
	l-0.885-0.246c-0.141-0.039-3.403-0.918-7.764,0.32c-1.567,0.455-3.069,1.115-4.464,1.963c-1.52,0.918-3.12,2.16-4.7,3.842
	C1.956,27.285,0.918,28.602,0,30c0.132-3.371,0.982-8.473,4.348-13.188c0.851-1.188,1.815-2.292,2.878-3.292l0.036-0.033
	l0.112-0.101c0.07-0.063,0.144-0.126,0.22-0.184l0.194-0.154l0.104-0.08c0.1-0.076,0.208-0.154,0.328-0.238l0.05-0.034
	C9.94,11.536,13.426,9.716,18.859,9.714L18.859,9.714z"/>
</svg>
