<?xml version="1.0" encoding="utf-8"?>
<!-- Generator: Adobe Illustrator 16.0.0, SVG Export Plug-In . SVG Version: 6.00 Build 0)  -->
<!DOCTYPE svg PUBLIC "-//W3C//DTD SVG 1.1//EN" "http://www.w3.org/Graphics/SVG/1.1/DTD/svg11.dtd">
<svg version="1.1" id="Layer_1" xmlns="http://www.w3.org/2000/svg" xmlns:xlink="http://www.w3.org/1999/xlink" x="0px" y="0px"
	 width="32px" height="32px" viewBox="0 0 32 32" enable-background="new 0 0 32 32" xml:space="preserve">
<title>toolbar5</title>
<path d="M31.594,28.545l-8.475-7.798c1.799-2.054,2.88-4.661,2.88-7.506c0-6.609-5.82-11.967-13-11.967
	C5.819,1.273,0,6.629,0,13.238C0,19.849,5.821,25.207,13,25.207c3.09,0,5.92-0.995,8.157-2.651l8.475,7.798
	c0.539,0.499,1.418,0.499,1.961,0C32.136,29.854,32.136,29.043,31.594,28.545z M13,23.367c-6.066,0-11-4.544-11-10.128
	C2,7.656,6.934,3.112,13,3.112c6.068,0,11.003,4.543,11.003,10.127C24.003,18.824,19.067,23.367,13,23.367z"/>
<path d="M19.772,12.844L7.431,12.843c-0.568,0-1.028,0.425-1.028,0.947s0.46,0.947,1.028,0.947h12.342
	c0.565,0,1.029-0.424,1.029-0.946S20.338,12.844,19.772,12.844z"/>
</svg>
