<svg xmlns="http://www.w3.org/2000/svg" width="27" height="25" viewBox="0 0 27 25">
    <path fill="#A4A4A4" fill-rule="nonzero" stroke="#A4A4A4" stroke-width=".3" d="M16.157 1c-5.309 0-9.643 3.317-9.923 7.482-3.1.998-5.164 3.402-5.164 6.076a6.042 6.042 0 0 0 2.725 4.868v4.2a.375.375 0 0 0 .63.274l3.209-2.933c.552.09 1.11.135 1.67.135 3.499 0 6.578-1.736 7.748-4.34.39-.03.78-.07 1.17-.134l3.94 3.596a.376.376 0 0 0 .629-.274v-5.158c2.115-1.496 3.324-3.636 3.324-5.89C26.11 4.546 21.646 1 16.157 1zM9.304 20.354a9.518 9.518 0 0 1-1.72-.155.375.375 0 0 0-.32.09L4.55 22.783v-3.557a.374.374 0 0 0-.165-.309c-1.64-1.102-2.565-2.708-2.565-4.364 0-2.275 1.745-4.345 4.39-5.283.025.337.08.67.164.998a7.38 7.38 0 0 0 2.405 3.89c.07.065 2.61 2.56 7.433 2.62-1.164 2.169-3.854 3.576-6.908 3.576zM22.2 14.288a.374.374 0 0 0-.165.31v4.489l-3.45-3.148a.375.375 0 0 0-.254-.1h-.07a11.02 11.02 0 0 1-2 .185c-3.629 0-5.824-1.407-6.898-2.31a7.445 7.445 0 0 1-2.29-3.58 5.606 5.606 0 0 1-.15-1.253c.03-3.92 4.16-7.138 9.233-7.138 5.074 0 9.203 3.208 9.203 7.153 0 2.065-1.15 4.03-3.159 5.392z"/>
</svg>
