<?xml version="1.0" encoding="utf-8"?>
<!-- Generator: Adobe Illustrator 16.0.0, SVG Export Plug-In . SVG Version: 6.00 Build 0)  -->
<!DOCTYPE svg PUBLIC "-//W3C//DTD SVG 1.1//EN" "http://www.w3.org/Graphics/SVG/1.1/DTD/svg11.dtd">
<svg version="1.1" id="Layer_1" xmlns="http://www.w3.org/2000/svg" xmlns:xlink="http://www.w3.org/1999/xlink" x="0px" y="0px"
	 width="32px" height="32px" viewBox="0 0 32 32" enable-background="new 0 0 32 32" xml:space="preserve">
<title>toolbar10</title>
<path d="M31.35,13.783c-2.939,0-5.188,1.312-7.173,2.468c-1.961,1.143-3.646,2.133-5.742,1.907c-1.884-0.2-1.901-1.408-1.707-3.372
	c0.097-0.981,0.182-1.828-0.393-2.293c-0.332-0.269-0.781-0.314-1.34-0.136c-1.295,0.415-3.381,2.417-6.66,5.666
	c-1.824,1.807-4.446,4.404-5.673,5.125C2.956,22.577,3.52,21.704,4,20.962c1.785-2.764,4.23-6.548,4.23-9.945
	c0-1.747-0.487-2.883-1.451-3.382C5.41,6.924,3.341,7.6,0.274,9.766c-0.292,0.206-0.362,0.612-0.155,0.904
	c0.206,0.292,0.613,0.363,0.904,0.156c3.352-2.364,4.672-2.291,5.16-2.038c0.619,0.32,0.749,1.388,0.749,2.229
	c0,3.015-2.326,6.613-4.022,9.24c-1.441,2.23-2.01,3.163-1.641,3.877c0.092,0.18,0.326,0.481,0.854,0.503
	c0.018,0,0.034,0.002,0.053,0.002c1.2,0,3.097-1.752,7.073-5.691c2.366-2.346,5.05-5.002,6.143-5.354
	c0.041-0.013,0.076-0.021,0.104-0.028c0.026,0.252-0.023,0.747-0.058,1.093c-0.154,1.551-0.44,4.441,2.86,4.793
	c2.521,0.262,4.559-0.926,6.536-2.077c1.931-1.127,3.929-2.292,6.517-2.292c0.357,0,0.648-0.291,0.648-0.649
	C32,14.077,31.709,13.784,31.35,13.783L31.35,13.783z"/>
</svg>
