<?xml version="1.0" encoding="utf-8"?>
<!-- Generator: Adobe Illustrator 16.0.0, SVG Export Plug-In . SVG Version: 6.00 Build 0)  -->
<!DOCTYPE svg PUBLIC "-//W3C//DTD SVG 1.1//EN" "http://www.w3.org/Graphics/SVG/1.1/DTD/svg11.dtd">
<svg version="1.1" id="Layer_1" xmlns="http://www.w3.org/2000/svg" xmlns:xlink="http://www.w3.org/1999/xlink" x="0px" y="0px"
	 width="32px" height="32px" viewBox="0 0 32 32" enable-background="new 0 0 32 32" xml:space="preserve">
<title>toolbar13</title>
<path d="M29.169,20.801h-8.352V17.6h-2.141v-3.328c0-1.142,0.493-2.211,1.318-2.866c1.536-1.206,2.43-3.053,2.425-5.005
	C22.42,2.872,19.54,0,16,0c-0.25,0-0.501,0.015-0.752,0.043c-2.862,0.325-5.223,2.625-5.607,5.47
	c-0.314,2.229,0.571,4.458,2.329,5.864c0.849,0.683,1.356,1.803,1.356,2.994v3.231h-2.142V20.8H2.831
	c-0.703,0-1.276,0.571-1.276,1.273v5.991c0,0.701,0.572,1.27,1.276,1.27h0.376c0.265,1.54,1.6,2.665,3.163,2.665h19.262
	c1.562,0,2.897-1.125,3.16-2.665h0.377c0.704,0,1.275-0.571,1.275-1.272v-5.989C30.444,21.369,29.873,20.801,29.169,20.801
	L29.169,20.801z M12.255,18.667h7.491V20.8h-7.491V18.667z M25.632,30.935H6.371c-0.973,0-1.825-0.658-2.073-1.601h23.403
	C27.456,30.276,26.604,30.935,25.632,30.935z"/>
</svg>
