<?xml version="1.0" encoding="utf-8"?>
<!-- Generator: Adobe Illustrator 16.0.0, SVG Export Plug-In . SVG Version: 6.00 Build 0)  -->
<!DOCTYPE svg PUBLIC "-//W3C//DTD SVG 1.1//EN" "http://www.w3.org/Graphics/SVG/1.1/DTD/svg11.dtd">
<svg version="1.1" id="Layer_1" xmlns="http://www.w3.org/2000/svg" xmlns:xlink="http://www.w3.org/1999/xlink" x="0px" y="0px"
	 width="32px" height="32px" viewBox="0 0 32 32" enable-background="new 0 0 32 32" xml:space="preserve">
<g>
	<path d="M16,6.942c-4.195,0-7.607,3.612-7.607,8.049c0,1.817,0.563,3.535,1.626,4.962c0.211,0.285,0.431,0.557,0.666,0.843
		l0.012,0.015c0.715,0.879,1.455,1.785,1.731,2.854c0.062,0.246,0.07,0.719,0.067,1.08v0.613c0,0.563,0.43,1.018,0.962,1.018h5.044
		c0.532,0,0.962-0.455,0.962-1.018v-0.621c-0.003-0.475,0.021-0.818,0.066-0.998c0.277-1.063,1.098-2.08,1.828-2.988l0.028-0.038
		c0.212-0.261,0.411-0.511,0.593-0.752c1.066-1.437,1.639-3.179,1.629-4.968C23.607,10.554,20.193,6.943,16,6.942L16,6.942L16,6.942
		z M20.464,18.697c-0.159,0.215-0.346,0.446-0.544,0.69l-0.039,0.05c-0.852,1.061-1.816,2.264-2.21,3.76
		c-0.054,0.213-0.114,0.531-0.132,1.141H14.42c-0.014-0.646-0.077-0.979-0.134-1.205c-0.391-1.518-1.354-2.699-2.129-3.652
		l-0.014-0.016c-0.218-0.268-0.425-0.521-0.609-0.77c-0.795-1.07-1.221-2.371-1.214-3.705c0-3.314,2.547-6.012,5.681-6.012
		c3.13,0,5.681,2.697,5.681,6.012C21.688,16.326,21.26,17.628,20.464,18.697L20.464,18.697z M18.501,27.834h-5.002
		c-0.53,0-0.958,0.313-0.958,0.695s0.429,0.691,0.956,0.691h5.004c0.526,0,0.956-0.309,0.956-0.691S19.029,27.834,18.501,27.834z
		 M17.175,30.611h-2.352c-0.495,0-0.897,0.311-0.897,0.693S14.328,32,14.823,32h2.353c0.496,0,0.899-0.313,0.899-0.695
		S17.671,30.611,17.175,30.611z M29.506,13.884h-3.502c-0.561,0-1.016,0.31-1.016,0.694c0,0.383,0.455,0.694,1.016,0.694h3.502
		c0.561,0,1.016-0.311,1.016-0.694C30.521,14.194,30.066,13.884,29.506,13.884z M7.01,14.577c0-0.384-0.454-0.694-1.015-0.694H2.492
		c-0.56,0-1.014,0.31-1.014,0.694c0,0.383,0.454,0.694,1.014,0.694h3.503C6.556,15.271,7.01,14.961,7.01,14.577z M16,5.554
		c0.382,0,0.689-0.456,0.689-1.019V1.02C16.689,0.457,16.383,0,16,0c-0.384,0-0.691,0.456-0.691,1.02v3.515
		C15.309,5.098,15.616,5.554,16,5.554z M23.818,21.098c-0.361-0.365-0.953-0.367-1.318-0.003c0,0-0.002,0.001-0.003,0.003
		c-0.366,0.367-0.366,0.96,0,1.326l2.28,2.291c0.361,0.363,0.949,0.367,1.314,0.006c0-0.004,0.004-0.006,0.006-0.006
		c0.367-0.369,0.367-0.961,0-1.328L23.818,21.098L23.818,21.098z M8.181,8.056c0.362,0.365,0.951,0.368,1.314,0.006
		C9.498,8.061,9.5,8.058,9.502,8.056c0.365-0.367,0.365-0.961,0-1.328L7.223,4.44C6.859,4.074,6.269,4.073,5.904,4.436
		C5.903,4.438,5.901,4.438,5.9,4.44c-0.365,0.367-0.365,0.96,0,1.327L8.181,8.056L8.181,8.056L8.181,8.056z M8.181,21.098
		l-2.28,2.289c-0.365,0.369-0.362,0.967,0.008,1.33c0.174,0.172,0.407,0.271,0.652,0.271c0.241,0,0.48-0.092,0.663-0.277
		l2.279-2.287c0.365-0.366,0.365-0.959,0-1.326c-0.364-0.365-0.955-0.365-1.319-0.002C8.182,21.096,8.181,21.098,8.181,21.098z
		 M23.16,8.331c0.236,0,0.477-0.092,0.658-0.277l2.279-2.288c0.367-0.367,0.367-0.96,0-1.327c-0.361-0.366-0.951-0.368-1.314-0.005
		c-0.004,0.001-0.006,0.003-0.006,0.005l-2.28,2.289c-0.366,0.37-0.363,0.965,0.007,1.331C22.68,8.232,22.914,8.329,23.16,8.331z"/>
</g>
</svg>
