<?xml version="1.0" encoding="utf-8"?>
<!-- Generator: Adobe Illustrator 16.0.0, SVG Export Plug-In . SVG Version: 6.00 Build 0)  -->
<!DOCTYPE svg PUBLIC "-//W3C//DTD SVG 1.1//EN" "http://www.w3.org/Graphics/SVG/1.1/DTD/svg11.dtd">
<svg version="1.1" id="Layer_1" xmlns="http://www.w3.org/2000/svg" xmlns:xlink="http://www.w3.org/1999/xlink" x="0px" y="0px"
	 width="32px" height="32px" viewBox="0 0 32 32" enable-background="new 0 0 32 32" xml:space="preserve">
<g>
	<path d="M11.872,8.348c-0.02,0.231-0.031,0.464-0.032,0.696c0.001,4.226,3.415,7.65,7.625,7.65c0.229,0,0.461-0.01,0.688-0.028
		c0.084,2.997-1.201,5.424-3.714,7.225c-0.326,0.232-0.489,0.449-0.432,0.844c0.014,0.094-0.008,0.192-0.015,0.311H7.73
		c-0.02-0.036-0.032-0.046-0.03-0.056c0.134-0.647-0.242-0.949-0.714-1.291c-2.742-1.978-4.01-5.486-3.239-8.826
		c0.771-3.334,3.462-5.883,6.775-6.417C10.97,8.383,11.419,8.347,11.872,8.348z M16,29.218c-0.015,0.849-0.289,1.534-0.852,2.064
		c-0.458,0.429-0.99,0.678-1.578,0.69c-1.148,0.027-2.297,0.045-3.444,0c-1.229-0.048-2.183-0.979-2.404-2.261
		c-0.025-0.153-0.025-0.313-0.038-0.495h8.314L16,29.218L16,29.218z M7.7,27.827c-0.006-0.083-0.016-0.147-0.016-0.212v-1.182h8.314
		v1.394H7.7L7.7,27.827z"/>
	<g>
		<path d="M20.849,0c-4.202,0-7.621,3.433-7.621,7.651c0,4.221,3.422,7.653,7.623,7.653c4.202,0,7.624-3.433,7.624-7.653
			C28.475,3.433,25.053,0,20.849,0z M20.922,13.118c-3.053-0.01-5.52-2.487-5.518-5.538c0-1.166,0.351-2.267,1.021-3.207l7.689,7.72
			C23.187,12.763,22.068,13.122,20.922,13.118z M25.273,10.93l-7.688-7.717c0.931-0.67,2.045-1.029,3.191-1.025
			c3.053,0.009,5.521,2.487,5.518,5.538c0,1.166-0.348,2.267-1.02,3.206L25.273,10.93z"/>
	</g>
</g>
</svg>
