<?xml version="1.0" encoding="utf-8"?>
<!-- Generator: Adobe Illustrator 16.0.0, SVG Export Plug-In . SVG Version: 6.00 Build 0)  -->
<!DOCTYPE svg PUBLIC "-//W3C//DTD SVG 1.1//EN" "http://www.w3.org/Graphics/SVG/1.1/DTD/svg11.dtd">
<svg version="1.1" id="Layer_1" xmlns="http://www.w3.org/2000/svg" xmlns:xlink="http://www.w3.org/1999/xlink" x="0px" y="0px"
	 width="32px" height="32px" viewBox="0 0 32 32" enable-background="new 0 0 32 32" xml:space="preserve">
<title>toolbar16</title>
<g>
	<ellipse cx="18.798" cy="16.754" rx="0.669" ry="0.664"/>
	<ellipse cx="18.798" cy="9.734" rx="0.669" ry="0.664"/>
	<path d="M29.576,2.191H2.423c-1.336,0-2.424,1.077-2.424,2.399v18.233c0,1.323,1.088,2.396,2.424,2.396h13.091v3.629H9.815
		c-0.266,0-0.483,0.214-0.483,0.479c0.002,0.267,0.218,0.479,0.483,0.479H22.18c0.267,0,0.484-0.215,0.484-0.479
		s-0.216-0.479-0.484-0.479h-5.697V25.22h13.09c1.336,0,2.426-1.076,2.426-2.396V4.591C32.001,3.268,30.911,2.191,29.576,2.191z
		 M13.931,13.246L13.931,13.246c-0.001,0.095-0.014,0.189-0.03,0.282l3.728,2.088c0.298-0.3,0.71-0.484,1.169-0.484
		c0.904,0,1.64,0.729,1.64,1.625c0,0.896-0.735,1.621-1.64,1.621c-0.906,0-1.643-0.727-1.643-1.621c0-0.098,0.015-0.193,0.028-0.286
		l-3.727-2.086c-0.297,0.301-0.709,0.485-1.167,0.485c-0.904,0-1.641-0.728-1.641-1.624c0-0.896,0.736-1.623,1.641-1.623
		c0.457,0,0.87,0.186,1.167,0.482l3.726-2.088c-0.015-0.092-0.026-0.185-0.026-0.281c0-0.895,0.734-1.624,1.643-1.624
		c0.904,0,1.64,0.729,1.64,1.624c0,0.895-0.735,1.622-1.64,1.622c-0.459,0-0.871-0.187-1.171-0.485l-3.726,2.087
		C13.919,13.054,13.931,13.148,13.931,13.246z"/>
	<ellipse cx="12.29" cy="13.244" rx="0.671" ry="0.663"/>
</g>
</svg>
