<?xml version="1.0" encoding="utf-8"?>
<!-- Generator: Adobe Illustrator 16.0.0, SVG Export Plug-In . SVG Version: 6.00 Build 0)  -->
<!DOCTYPE svg PUBLIC "-//W3C//DTD SVG 1.1//EN" "http://www.w3.org/Graphics/SVG/1.1/DTD/svg11.dtd">
<svg version="1.1" id="Layer_1" xmlns="http://www.w3.org/2000/svg" xmlns:xlink="http://www.w3.org/1999/xlink" x="0px" y="0px"
	 width="32px" height="32px" viewBox="0 0 32 32" enable-background="new 0 0 32 32" xml:space="preserve">
<title>toolbar1</title>
<g>
	<path d="M16.302,11.45l-6.86,6.158c-1.281,1.165-1.281,3.063,0,4.228c1.286,1.164,3.371,1.164,4.653,0l6.858-6.16
		c0.919-0.835,0.919-2.184,0-3.021c-0.918-0.834-2.406-0.834-3.323,0l-5.158,4.684c-0.167,0.144-0.184,0.396-0.041,0.563
		c0.014,0.017,0.025,0.028,0.041,0.042c0.184,0.166,0.48,0.166,0.667,0l5.156-4.683c0.571-0.5,1.423-0.5,1.994,0
		c0.55,0.5,0.55,1.312,0,1.813l-6.858,6.156c-0.919,0.836-2.406,0.836-3.325,0c-0.919-0.835-0.919-2.185,0-3.02l6.793-6.099
		c1.286-1.166,3.369-1.166,4.654,0c1.284,1.169,1.284,3.061,0,4.229l-5.089,4.625c-0.167,0.144-0.184,0.395-0.042,0.562
		c0.012,0.015,0.027,0.027,0.042,0.041c0.184,0.168,0.478,0.168,0.664,0l5.157-4.685c1.653-1.5,1.653-3.937,0-5.436
		C20.634,9.947,17.951,9.946,16.302,11.45L16.302,11.45z"/>
	<path d="M25.372,0H6.63C5.28,0,4.18,1.099,4.18,2.45v27.1c0,1.353,1.1,2.45,2.45,2.45h18.74c1.352,0,2.449-1.098,2.449-2.45V2.45
		C27.822,1.099,26.722,0,25.372,0z M26.841,29.552c0,0.812-0.657,1.47-1.469,1.47H6.63c-0.811,0-1.47-0.658-1.47-1.47V2.451
		c0-0.81,0.659-1.47,1.47-1.47h18.74c0.811,0,1.471,0.66,1.471,1.47V29.552L26.841,29.552z"/>
</g>
</svg>
