<?xml version="1.0" encoding="utf-8"?>
<!-- Generator: Adobe Illustrator 16.0.0, SVG Export Plug-In . SVG Version: 6.00 Build 0)  -->
<!DOCTYPE svg PUBLIC "-//W3C//DTD SVG 1.1//EN" "http://www.w3.org/Graphics/SVG/1.1/DTD/svg11.dtd">
<svg version="1.1" id="Layer_1" xmlns="http://www.w3.org/2000/svg" xmlns:xlink="http://www.w3.org/1999/xlink" x="0px" y="0px"
	 width="32px" height="32px" viewBox="0 0 32 32" enable-background="new 0 0 32 32" xml:space="preserve">
<title>toolbar6</title>
<path d="M30.027,0.792H1.973C0.885,0.792,0,1.677,0,2.765v26.47c0,1.088,0.885,1.973,1.973,1.973h28.055
	c1.089,0,1.973-0.885,1.973-1.973V2.765C32,1.677,31.116,0.792,30.027,0.792z M30.31,29.235c0,0.154-0.127,0.281-0.282,0.281H1.973
	c-0.155,0-0.281-0.127-0.281-0.281V2.766c0-0.155,0.126-0.281,0.281-0.281h28.055c0.155,0,0.282,0.126,0.282,0.281V29.235z"/>
</svg>
