<?xml version="1.0" encoding="utf-8"?>
<!-- Generator: Adobe Illustrator 16.0.0, SVG Export Plug-In . SVG Version: 6.00 Build 0)  -->
<!DOCTYPE svg PUBLIC "-//W3C//DTD SVG 1.1//EN" "http://www.w3.org/Graphics/SVG/1.1/DTD/svg11.dtd">
<svg version="1.1" id="Layer_1" xmlns="http://www.w3.org/2000/svg" xmlns:xlink="http://www.w3.org/1999/xlink" x="0px" y="0px"
	 width="32px" height="32px" viewBox="0 0 32 32" enable-background="new 0 0 32 32" xml:space="preserve">
<title>toolbar12</title>
<path d="M31.082,27.867H17.996L31.73,14.222c0.355-0.353,0.357-0.928,0.005-1.283c-0.002-0.001-0.005-0.002-0.005-0.004
	L21.309,2.579c-0.361-0.356-0.938-0.356-1.299,0L0.268,22.196c-0.356,0.354-0.359,0.927-0.007,1.282
	c0.002,0.002,0.003,0.006,0.007,0.007l5.976,5.937c0.171,0.173,0.405,0.268,0.648,0.268h24.189c0.505,0.003,0.914-0.408,0.917-0.911
	C31.999,28.275,31.588,27.867,31.082,27.867L31.082,27.867z M9.87,15.232L20.662,4.511l9.125,9.067L18.995,24.302L9.87,15.232
	L9.87,15.232z"/>
</svg>
