<?xml version="1.0" encoding="utf-8"?>
<!-- Generator: Adobe Illustrator 16.0.0, SVG Export Plug-In . SVG Version: 6.00 Build 0)  -->
<!DOCTYPE svg PUBLIC "-//W3C//DTD SVG 1.1//EN" "http://www.w3.org/Graphics/SVG/1.1/DTD/svg11.dtd">
<svg version="1.1" id="Layer_1" xmlns="http://www.w3.org/2000/svg" xmlns:xlink="http://www.w3.org/1999/xlink" x="0px" y="0px"
	 width="32px" height="32px" viewBox="0 0 32 32" enable-background="new 0 0 32 32" xml:space="preserve">
<title>toolbar15</title>
<path d="M25.919,3.833h-5.322C20.331,1.68,18.373,0,16,0c-2.374,0-4.331,1.681-4.596,3.833H6.081c-2.153,0-3.904,1.643-3.904,3.656
	v0.188c0,1.54,1.023,2.858,2.468,3.396v17.271C4.645,30.358,6.396,32,8.551,32H23.45c2.155,0,3.906-1.642,3.906-3.656V11.073
	c1.443-0.538,2.467-1.855,2.467-3.396V7.49c0.001-2.016-1.749-3.656-3.902-3.657l0,0H25.919z M16,1.734
	c1.352,0,2.478,0.904,2.725,2.099h-5.447C13.525,2.638,14.651,1.734,16,1.734z M25.503,28.344c0,1.063-0.921,1.922-2.054,1.922
	h-14.9c-1.132,0-2.054-0.858-2.054-1.922V11.332h19.004v17.012H25.503z M27.971,7.678c0,1.061-0.92,1.923-2.054,1.923H6.083
	c-1.132,0-2.054-0.862-2.054-1.923V7.49c0-1.06,0.92-1.922,2.054-1.922h19.834c1.134,0,2.054,0.862,2.054,1.922V7.678z"/>
<path d="M11.034,28.05c0.511,0,0.926-0.389,0.926-0.868v-9.761c0-0.479-0.414-0.868-0.926-0.868s-0.927,0.391-0.927,0.868v9.761
	C10.107,27.661,10.522,28.05,11.034,28.05z M16,28.05c0.512,0,0.928-0.389,0.928-0.868v-9.761c0-0.479-0.416-0.868-0.928-0.868
	s-0.926,0.391-0.926,0.868v9.761C15.074,27.661,15.488,28.05,16,28.05z M20.966,28.05c0.513,0,0.927-0.389,0.927-0.868v-9.761
	c0-0.479-0.414-0.868-0.927-0.868c-0.511,0-0.924,0.391-0.924,0.868v9.761C20.042,27.661,20.455,28.05,20.966,28.05z"/>
</svg>
