<?xml version="1.0" encoding="utf-8"?>
<!-- Generator: Adobe Illustrator 16.0.0, SVG Export Plug-In . SVG Version: 6.00 Build 0)  -->
<!DOCTYPE svg PUBLIC "-//W3C//DTD SVG 1.1//EN" "http://www.w3.org/Graphics/SVG/1.1/DTD/svg11.dtd">
<svg version="1.1" id="Layer_1" xmlns="http://www.w3.org/2000/svg" xmlns:xlink="http://www.w3.org/1999/xlink" x="0px" y="0px"
	 width="32px" height="32px" viewBox="0 0 32 32" enable-background="new 0 0 32 32" xml:space="preserve">
<title>toolbar11</title>
<path d="M15.016,13.534l2.602,6.811c0.104,0.275,0.32,0.488,0.59,0.578l12.566,4.192c0.094,0.032,0.188,0.049,0.284,0.049
	c0.243,0,0.487-0.104,0.665-0.292c0.25-0.265,0.339-0.648,0.231-1.004l-3.97-13.284c-0.08-0.279-0.279-0.507-0.544-0.624
	l-6.421-2.73l-2.086-2.58c-0.167-0.21-0.414-0.336-0.679-0.349c-0.266-0.009-0.521,0.097-0.703,0.291L12.542,9.89
	c-0.187,0.2-0.286,0.468-0.275,0.742c0.01,0.278,0.129,0.538,0.329,0.718L15.016,13.534L15.016,13.534z M26.325,11.63L29,20.583
	l-6.327-6.69c-0.34-0.368-0.912-0.392-1.281-0.051c-0.019,0.017-0.036,0.034-0.053,0.051c-0.368,0.397-0.368,1.012,0,1.408
	l6.329,6.688l-8.471-2.826l-2.278-5.962l3.759-3.972L26.325,11.63z M18.164,6.76l1.009,1.247l-3.398,3.591l-1.18-1.065L18.164,6.76
	L18.164,6.76z"/>
<path d="M31.061,25.725H0.941C0.42,25.725,0,26.166,0,26.712c0,0.545,0.421,0.986,0.941,0.986h30.12
	c0.519,0,0.939-0.442,0.939-0.986C32,26.167,31.579,25.725,31.061,25.725z"/>
</svg>
